M48
;DRILL file {KiCad (5.0.1)-3} date 10/29/2018 10:16:39 PM
;FORMAT={2:4/ absolute / inch / suppress leading zeros}
FMAT,2
INCH,TZ
T1C0.0118
T2C0.0157
T3C0.0394
T4C0.0472
T5C0.0492
T6C0.0610
%
G90
G05
M72
T1
X52461Y-43248
X52520Y-45886
X52520Y-50492
X53445Y-32717
X53445Y-40000
X53465Y-38445
X54724Y-43878
X54724Y-44980
X54724Y-47874
X55512Y-46378
X55512Y-49508
X57156Y-41417
X57156Y-48878
X57795Y-39852
X58258Y-41909
X58449Y-35555
X58967Y-40295
X59557Y-40246
X60000Y-40305
X60335Y-36053
X60778Y-43858
X60787Y-40325
X60787Y-41260
X60915Y-43504
X61043Y-42549
X61161Y-41240
X61762Y-39872
X61768Y-43866
X62224Y-48701
X62776Y-40030
X63366Y-44232
X63465Y-49429
X65167Y-37136
X65167Y-39557
X65748Y-43268
X66063Y-41193
X66299Y-45315
X66634Y-39902
X67618Y-49114
X67815Y-51378
X72205Y-41496
X72500Y-41240
X77795Y-55551
X78228Y-41024
T2
X50148Y-49626
X51270Y-52579
X58189Y-48701
X58209Y-51309
X58583Y-48583
X58593Y-41417
X58917Y-42362
X58976Y-48701
X59862Y-46358
X60295Y-37992
X60807Y-50108
X60866Y-41811
X61240Y-46319
X61398Y-50413
X61634Y-46870
X62008Y-37244
X62244Y-50315
X62303Y-42323
X62717Y-37953
X62795Y-41732
X62795Y-42323
X62795Y-42815
X63287Y-41240
X63287Y-41732
X63287Y-42224
X63287Y-42815
X63287Y-43307
X63543Y-54724
X63701Y-44488
X63780Y-41732
X63780Y-42224
X63780Y-42815
X64094Y-54724
X64272Y-42224
X64508Y-39449
X64646Y-54724
X65709Y-42008
X65709Y-46142
X65709Y-46535
X65827Y-42441
X67120Y-41542
X67717Y-48425
X67795Y-34803
X67874Y-40610
X67913Y-35472
X67913Y-50984
X68701Y-36220
X68701Y-36811
X68701Y-37402
X68701Y-37992
X68701Y-38583
X68701Y-39173
X68701Y-39764
X68701Y-44094
X68701Y-44685
X68701Y-45276
X68701Y-45866
X68701Y-46457
X68701Y-47047
X68701Y-47638
X68701Y-52165
X68701Y-52756
X68701Y-53346
X68701Y-53937
X68701Y-54528
X68701Y-55118
X68701Y-55709
X69291Y-36220
X69291Y-36811
X69291Y-37402
X69291Y-37992
X69291Y-38583
X69291Y-39173
X69291Y-39764
X69291Y-44094
X69291Y-44685
X69291Y-45276
X69291Y-45866
X69291Y-46457
X69291Y-47047
X69291Y-47638
X69291Y-52165
X69291Y-52756
X69291Y-53346
X69291Y-53937
X69291Y-54528
X69291Y-55118
X69291Y-55709
X69882Y-36220
X69882Y-36811
X69882Y-37402
X69882Y-37992
X69882Y-38583
X69882Y-39173
X69882Y-39764
X69882Y-44094
X69882Y-44685
X69882Y-45276
X69882Y-45866
X69882Y-46457
X69882Y-47047
X69882Y-47638
X69882Y-52165
X69882Y-52756
X69882Y-53346
X69882Y-53937
X69882Y-54528
X69882Y-55118
X69882Y-55709
X70472Y-36220
X70472Y-36811
X70472Y-37402
X70472Y-37992
X70472Y-38583
X70472Y-39173
X70472Y-39764
X70472Y-44094
X70472Y-44685
X70472Y-45276
X70472Y-45866
X70472Y-46457
X70472Y-47047
X70472Y-47638
X70472Y-52165
X70472Y-52756
X70472Y-53346
X70472Y-53937
X70472Y-54528
X70472Y-55118
X70472Y-55709
X71063Y-36220
X71063Y-36811
X71063Y-37402
X71063Y-37992
X71063Y-38583
X71063Y-39173
X71063Y-39764
X71063Y-44094
X71063Y-44685
X71063Y-45276
X71063Y-45866
X71063Y-46457
X71063Y-47047
X71063Y-47638
X71063Y-52165
X71063Y-52756
X71063Y-53346
X71063Y-53937
X71063Y-54528
X71063Y-55118
X71063Y-55709
X71654Y-36220
X71654Y-36811
X71654Y-37402
X71654Y-37992
X71654Y-38583
X71654Y-39173
X71654Y-39764
X71654Y-44094
X71654Y-44685
X71654Y-45276
X71654Y-45866
X71654Y-46457
X71654Y-47047
X71654Y-47638
X71654Y-52165
X71654Y-52756
X71654Y-53346
X71654Y-53937
X71654Y-54528
X71654Y-55118
X71654Y-55709
X72638Y-34547
X72638Y-35138
X72638Y-35728
X72638Y-37500
X72638Y-42520
X72638Y-43110
X72638Y-43701
X72638Y-45472
X72638Y-50591
X72638Y-51181
X72638Y-51772
X72638Y-53543
X72854Y-40551
X73228Y-34547
X73228Y-35138
X73228Y-35728
X73228Y-36319
X73228Y-37500
X73228Y-42520
X73228Y-43110
X73228Y-43701
X73228Y-44291
X73228Y-45472
X73228Y-50591
X73228Y-51181
X73228Y-51772
X73228Y-52362
X73228Y-53543
X73720Y-48031
X73819Y-34547
X73819Y-35138
X73819Y-35728
X73819Y-36319
X73819Y-37500
X73819Y-42520
X73819Y-43110
X73819Y-43701
X73819Y-44291
X73819Y-45472
X73819Y-50591
X73819Y-51181
X73819Y-51772
X73819Y-52362
X73819Y-53543
X74409Y-34547
X74409Y-35138
X74409Y-35728
X74409Y-36319
X74409Y-37500
X74409Y-42520
X74409Y-43110
X74409Y-43701
X74409Y-44291
X74409Y-45472
X74409Y-50591
X74409Y-51181
X74409Y-51772
X74409Y-52362
X74409Y-53543
X75000Y-34547
X75000Y-35138
X75000Y-35728
X75000Y-36319
X75000Y-36909
X75000Y-37500
X75000Y-42520
X75000Y-43110
X75000Y-43701
X75000Y-44291
X75000Y-44882
X75000Y-45472
X75000Y-50591
X75000Y-51181
X75000Y-51772
X75000Y-52362
X75000Y-52953
X75000Y-53543
X75591Y-34547
X75591Y-35138
X75591Y-35728
X75591Y-36319
X75591Y-36909
X75591Y-37500
X75591Y-42520
X75591Y-43110
X75591Y-43701
X75591Y-44291
X75591Y-44882
X75591Y-45472
X75591Y-50591
X75591Y-51181
X75591Y-51772
X75591Y-52362
X75591Y-52953
X75591Y-53543
T3
X49650Y-36366
X49650Y-37366
X49650Y-38366
X50650Y-36366
X50650Y-37366
X50650Y-38366
X49650Y-32764
X49650Y-33764
X49650Y-34764
X50650Y-32764
X50650Y-33764
X50650Y-34764
X49650Y-39984
X49650Y-40984
X50650Y-39984
X50650Y-40984
X64094Y-51122
X64094Y-53091
T4
X78976Y-29783
X81929Y-29783
T5
X48819Y-52569
X48819Y-53947
X48819Y-44114
X48819Y-45492
X48819Y-46870
X48819Y-48248
X48819Y-49626
X55039Y-29252
X56417Y-29252
X57795Y-29252
X59173Y-29252
X60551Y-29252
X61929Y-29252
X63307Y-29252
X64685Y-29252
T6
X82559Y-41339
X82559Y-43307
X82559Y-45276
X71693Y-27638
X73661Y-27638
T0
M30
