G04 #@! TF.GenerationSoftware,KiCad,Pcbnew,(5.0.1)-3*
G04 #@! TF.CreationDate,2018-10-29T22:15:53-04:00*
G04 #@! TF.ProjectId,GCEW,474345572E6B696361645F7063620000,rev?*
G04 #@! TF.SameCoordinates,Original*
G04 #@! TF.FileFunction,Soldermask,Bot*
G04 #@! TF.FilePolarity,Negative*
%FSLAX46Y46*%
G04 Gerber Fmt 4.6, Leading zero omitted, Abs format (unit mm)*
G04 Created by KiCad (PCBNEW (5.0.1)-3) date 10/29/2018 10:15:53 PM*
%MOMM*%
%LPD*%
G01*
G04 APERTURE LIST*
%ADD10C,0.100000*%
G04 APERTURE END LIST*
D10*
G36*
X124364612Y-135823037D02*
X124592096Y-135917264D01*
X124796831Y-136054064D01*
X124970936Y-136228169D01*
X125107736Y-136432904D01*
X125201963Y-136660388D01*
X125250000Y-136901885D01*
X125250000Y-137148115D01*
X125201963Y-137389612D01*
X125107736Y-137617096D01*
X124970936Y-137821831D01*
X124796831Y-137995936D01*
X124592096Y-138132736D01*
X124364612Y-138226963D01*
X124123115Y-138275000D01*
X123876885Y-138275000D01*
X123635388Y-138226963D01*
X123407904Y-138132736D01*
X123203169Y-137995936D01*
X123029064Y-137821831D01*
X122892264Y-137617096D01*
X122798037Y-137389612D01*
X122750000Y-137148115D01*
X122750000Y-136901885D01*
X122798037Y-136660388D01*
X122892264Y-136432904D01*
X123029064Y-136228169D01*
X123203169Y-136054064D01*
X123407904Y-135917264D01*
X123635388Y-135823037D01*
X123876885Y-135775000D01*
X124123115Y-135775000D01*
X124364612Y-135823037D01*
X124364612Y-135823037D01*
G37*
G36*
X204550000Y-138200000D02*
X201350000Y-138200000D01*
X201350000Y-137200000D01*
X204550000Y-137200000D01*
X204550000Y-138200000D01*
X204550000Y-138200000D01*
G37*
G36*
X193149999Y-138199999D02*
X183749999Y-138199999D01*
X183749999Y-127399999D01*
X193149999Y-127399999D01*
X193149999Y-138199999D01*
X193149999Y-138199999D01*
G37*
G36*
X199899999Y-135889999D02*
X195299999Y-135889999D01*
X195299999Y-134789999D01*
X199899999Y-134789999D01*
X199899999Y-135889999D01*
X199899999Y-135889999D01*
G37*
G36*
X162975770Y-133865372D02*
X163091689Y-133888429D01*
X163273678Y-133963811D01*
X163437463Y-134073249D01*
X163576751Y-134212537D01*
X163686189Y-134376322D01*
X163761571Y-134558311D01*
X163800000Y-134751509D01*
X163800000Y-134948491D01*
X163761571Y-135141689D01*
X163686189Y-135323678D01*
X163576751Y-135487463D01*
X163437463Y-135626751D01*
X163273678Y-135736189D01*
X163091689Y-135811571D01*
X162975770Y-135834628D01*
X162898493Y-135850000D01*
X162701507Y-135850000D01*
X162624230Y-135834628D01*
X162508311Y-135811571D01*
X162326322Y-135736189D01*
X162162537Y-135626751D01*
X162023249Y-135487463D01*
X161913811Y-135323678D01*
X161838429Y-135141689D01*
X161800000Y-134948491D01*
X161800000Y-134751509D01*
X161838429Y-134558311D01*
X161913811Y-134376322D01*
X162023249Y-134212537D01*
X162162537Y-134073249D01*
X162326322Y-133963811D01*
X162508311Y-133888429D01*
X162624230Y-133865372D01*
X162701507Y-133850000D01*
X162898493Y-133850000D01*
X162975770Y-133865372D01*
X162975770Y-133865372D01*
G37*
G36*
X124364612Y-132323037D02*
X124592096Y-132417264D01*
X124796831Y-132554064D01*
X124970936Y-132728169D01*
X125107736Y-132932904D01*
X125201963Y-133160388D01*
X125250000Y-133401885D01*
X125250000Y-133648115D01*
X125201963Y-133889612D01*
X125107736Y-134117096D01*
X124970936Y-134321831D01*
X124796831Y-134495936D01*
X124592096Y-134632736D01*
X124364612Y-134726963D01*
X124123115Y-134775000D01*
X123876885Y-134775000D01*
X123635388Y-134726963D01*
X123407904Y-134632736D01*
X123203169Y-134495936D01*
X123029064Y-134321831D01*
X122892264Y-134117096D01*
X122798037Y-133889612D01*
X122750000Y-133648115D01*
X122750000Y-133401885D01*
X122798037Y-133160388D01*
X122892264Y-132932904D01*
X123029064Y-132728169D01*
X123203169Y-132554064D01*
X123407904Y-132417264D01*
X123635388Y-132323037D01*
X123876885Y-132275000D01*
X124123115Y-132275000D01*
X124364612Y-132323037D01*
X124364612Y-132323037D01*
G37*
G36*
X204550000Y-132000000D02*
X201350000Y-132000000D01*
X201350000Y-131000000D01*
X204550000Y-131000000D01*
X204550000Y-132000000D01*
X204550000Y-132000000D01*
G37*
G36*
X163800000Y-130850000D02*
X161800000Y-130850000D01*
X161800000Y-128850000D01*
X163800000Y-128850000D01*
X163800000Y-130850000D01*
X163800000Y-130850000D01*
G37*
G36*
X199899999Y-130809999D02*
X195299999Y-130809999D01*
X195299999Y-129709999D01*
X199899999Y-129709999D01*
X199899999Y-130809999D01*
X199899999Y-130809999D01*
G37*
G36*
X124364612Y-124848037D02*
X124592096Y-124942264D01*
X124796831Y-125079064D01*
X124970936Y-125253169D01*
X125107736Y-125457904D01*
X125201963Y-125685388D01*
X125250000Y-125926885D01*
X125250000Y-126173115D01*
X125201963Y-126414612D01*
X125107736Y-126642096D01*
X124970936Y-126846831D01*
X124796831Y-127020936D01*
X124592096Y-127157736D01*
X124364612Y-127251963D01*
X124123115Y-127300000D01*
X123876885Y-127300000D01*
X123635388Y-127251963D01*
X123407904Y-127157736D01*
X123203169Y-127020936D01*
X123029064Y-126846831D01*
X122892264Y-126642096D01*
X122798037Y-126414612D01*
X122750000Y-126173115D01*
X122750000Y-125926885D01*
X122798037Y-125685388D01*
X122892264Y-125457904D01*
X123029064Y-125253169D01*
X123203169Y-125079064D01*
X123407904Y-124942264D01*
X123635388Y-124848037D01*
X123876885Y-124800000D01*
X124123115Y-124800000D01*
X124364612Y-124848037D01*
X124364612Y-124848037D01*
G37*
G36*
X124364612Y-121348037D02*
X124592096Y-121442264D01*
X124796831Y-121579064D01*
X124970936Y-121753169D01*
X125107736Y-121957904D01*
X125201963Y-122185388D01*
X125250000Y-122426885D01*
X125250000Y-122673115D01*
X125201963Y-122914612D01*
X125107736Y-123142096D01*
X124970936Y-123346831D01*
X124796831Y-123520936D01*
X124592096Y-123657736D01*
X124364612Y-123751963D01*
X124123115Y-123800000D01*
X123876885Y-123800000D01*
X123635388Y-123751963D01*
X123407904Y-123657736D01*
X123203169Y-123520936D01*
X123029064Y-123346831D01*
X122892264Y-123142096D01*
X122798037Y-122914612D01*
X122750000Y-122673115D01*
X122750000Y-122426885D01*
X122798037Y-122185388D01*
X122892264Y-121957904D01*
X123029064Y-121753169D01*
X123203169Y-121579064D01*
X123407904Y-121442264D01*
X123635388Y-121348037D01*
X123876885Y-121300000D01*
X124123115Y-121300000D01*
X124364612Y-121348037D01*
X124364612Y-121348037D01*
G37*
G36*
X124364612Y-117848037D02*
X124592096Y-117942264D01*
X124796831Y-118079064D01*
X124970936Y-118253169D01*
X125107736Y-118457904D01*
X125201963Y-118685388D01*
X125250000Y-118926885D01*
X125250000Y-119173115D01*
X125201963Y-119414612D01*
X125107736Y-119642096D01*
X124970936Y-119846831D01*
X124796831Y-120020936D01*
X124592096Y-120157736D01*
X124364612Y-120251963D01*
X124123115Y-120300000D01*
X123876885Y-120300000D01*
X123635388Y-120251963D01*
X123407904Y-120157736D01*
X123203169Y-120020936D01*
X123029064Y-119846831D01*
X122892264Y-119642096D01*
X122798037Y-119414612D01*
X122750000Y-119173115D01*
X122750000Y-118926885D01*
X122798037Y-118685388D01*
X122892264Y-118457904D01*
X123029064Y-118253169D01*
X123203169Y-118079064D01*
X123407904Y-117942264D01*
X123635388Y-117848037D01*
X123876885Y-117800000D01*
X124123115Y-117800000D01*
X124364612Y-117848037D01*
X124364612Y-117848037D01*
G37*
G36*
X193199999Y-117850000D02*
X183799999Y-117850000D01*
X183799999Y-107050000D01*
X193199999Y-107050000D01*
X193199999Y-117850000D01*
X193199999Y-117850000D01*
G37*
G36*
X204700000Y-117850000D02*
X201500000Y-117850000D01*
X201500000Y-116850000D01*
X204700000Y-116850000D01*
X204700000Y-117850000D01*
X204700000Y-117850000D01*
G37*
G36*
X124364612Y-114348037D02*
X124592096Y-114442264D01*
X124796831Y-114579064D01*
X124970936Y-114753169D01*
X125107736Y-114957904D01*
X125201963Y-115185388D01*
X125250000Y-115426885D01*
X125250000Y-115673115D01*
X125201963Y-115914612D01*
X125107736Y-116142096D01*
X124970936Y-116346831D01*
X124796831Y-116520936D01*
X124592096Y-116657736D01*
X124364612Y-116751963D01*
X124123115Y-116800000D01*
X123876885Y-116800000D01*
X123635388Y-116751963D01*
X123407904Y-116657736D01*
X123203169Y-116520936D01*
X123029064Y-116346831D01*
X122892264Y-116142096D01*
X122798037Y-115914612D01*
X122750000Y-115673115D01*
X122750000Y-115426885D01*
X122798037Y-115185388D01*
X122892264Y-114957904D01*
X123029064Y-114753169D01*
X123203169Y-114579064D01*
X123407904Y-114442264D01*
X123635388Y-114348037D01*
X123876885Y-114300000D01*
X124123115Y-114300000D01*
X124364612Y-114348037D01*
X124364612Y-114348037D01*
G37*
G36*
X209952481Y-113469855D02*
X210152118Y-113509565D01*
X210340173Y-113587460D01*
X210434201Y-113626408D01*
X210688071Y-113796038D01*
X210903962Y-114011929D01*
X211073592Y-114265799D01*
X211073592Y-114265800D01*
X211190435Y-114547882D01*
X211190435Y-114547884D01*
X211250000Y-114847337D01*
X211250000Y-115152663D01*
X211243490Y-115185389D01*
X211190435Y-115452118D01*
X211112540Y-115640173D01*
X211073592Y-115734201D01*
X210903962Y-115988071D01*
X210688071Y-116203962D01*
X210434201Y-116373592D01*
X210340173Y-116412540D01*
X210152118Y-116490435D01*
X209952481Y-116530145D01*
X209852663Y-116550000D01*
X209547337Y-116550000D01*
X209447519Y-116530145D01*
X209247882Y-116490435D01*
X209059827Y-116412540D01*
X208965799Y-116373592D01*
X208711929Y-116203962D01*
X208496038Y-115988071D01*
X208326408Y-115734201D01*
X208287460Y-115640173D01*
X208209565Y-115452118D01*
X208156510Y-115185389D01*
X208150000Y-115152663D01*
X208150000Y-114847337D01*
X208209565Y-114547884D01*
X208209565Y-114547882D01*
X208326408Y-114265800D01*
X208326408Y-114265799D01*
X208496038Y-114011929D01*
X208711929Y-113796038D01*
X208965799Y-113626408D01*
X209059827Y-113587460D01*
X209247882Y-113509565D01*
X209447519Y-113469855D01*
X209547337Y-113450000D01*
X209852663Y-113450000D01*
X209952481Y-113469855D01*
X209952481Y-113469855D01*
G37*
G36*
X199949999Y-115540000D02*
X195349999Y-115540000D01*
X195349999Y-114440000D01*
X199949999Y-114440000D01*
X199949999Y-115540000D01*
X199949999Y-115540000D01*
G37*
G36*
X124364612Y-110848037D02*
X124592096Y-110942264D01*
X124796831Y-111079064D01*
X124970936Y-111253169D01*
X125107736Y-111457904D01*
X125201963Y-111685388D01*
X125250000Y-111926885D01*
X125250000Y-112173115D01*
X125201963Y-112414612D01*
X125107736Y-112642096D01*
X124970936Y-112846831D01*
X124796831Y-113020936D01*
X124592096Y-113157736D01*
X124364612Y-113251963D01*
X124123115Y-113300000D01*
X123876885Y-113300000D01*
X123635388Y-113251963D01*
X123407904Y-113157736D01*
X123203169Y-113020936D01*
X123029064Y-112846831D01*
X122892264Y-112642096D01*
X122798037Y-112414612D01*
X122750000Y-112173115D01*
X122750000Y-111926885D01*
X122798037Y-111685388D01*
X122892264Y-111457904D01*
X123029064Y-111253169D01*
X123203169Y-111079064D01*
X123407904Y-110942264D01*
X123635388Y-110848037D01*
X123876885Y-110800000D01*
X124123115Y-110800000D01*
X124364612Y-110848037D01*
X124364612Y-110848037D01*
G37*
G36*
X204700000Y-111650000D02*
X201500000Y-111650000D01*
X201500000Y-110650000D01*
X204700000Y-110650000D01*
X204700000Y-111650000D01*
X204700000Y-111650000D01*
G37*
G36*
X209952481Y-108469855D02*
X210152118Y-108509565D01*
X210340173Y-108587460D01*
X210434201Y-108626408D01*
X210688071Y-108796038D01*
X210903962Y-109011929D01*
X211073592Y-109265799D01*
X211073592Y-109265800D01*
X211190435Y-109547882D01*
X211250000Y-109847338D01*
X211250000Y-110152662D01*
X211190435Y-110452118D01*
X211112540Y-110640173D01*
X211073592Y-110734201D01*
X210903962Y-110988071D01*
X210688071Y-111203962D01*
X210434201Y-111373592D01*
X210340173Y-111412540D01*
X210152118Y-111490435D01*
X209952481Y-111530145D01*
X209852663Y-111550000D01*
X209547337Y-111550000D01*
X209447519Y-111530145D01*
X209247882Y-111490435D01*
X209059827Y-111412540D01*
X208965799Y-111373592D01*
X208711929Y-111203962D01*
X208496038Y-110988071D01*
X208326408Y-110734201D01*
X208287460Y-110640173D01*
X208209565Y-110452118D01*
X208150000Y-110152662D01*
X208150000Y-109847338D01*
X208209565Y-109547882D01*
X208326408Y-109265800D01*
X208326408Y-109265799D01*
X208496038Y-109011929D01*
X208711929Y-108796038D01*
X208965799Y-108626408D01*
X209059827Y-108587460D01*
X209247882Y-108509565D01*
X209447519Y-108469855D01*
X209547337Y-108450000D01*
X209852663Y-108450000D01*
X209952481Y-108469855D01*
X209952481Y-108469855D01*
G37*
G36*
X199949999Y-110460000D02*
X195349999Y-110460000D01*
X195349999Y-109360000D01*
X199949999Y-109360000D01*
X199949999Y-110460000D01*
X199949999Y-110460000D01*
G37*
G36*
X209952481Y-103469855D02*
X210152118Y-103509565D01*
X210340173Y-103587460D01*
X210434201Y-103626408D01*
X210688071Y-103796038D01*
X210903962Y-104011929D01*
X211073592Y-104265799D01*
X211073936Y-104266630D01*
X211190435Y-104547882D01*
X211221478Y-104703948D01*
X211242607Y-104810168D01*
X211250000Y-104847338D01*
X211250000Y-105152662D01*
X211190435Y-105452118D01*
X211112540Y-105640173D01*
X211073592Y-105734201D01*
X210903962Y-105988071D01*
X210688071Y-106203962D01*
X210434201Y-106373592D01*
X210340173Y-106412540D01*
X210152118Y-106490435D01*
X209952481Y-106530145D01*
X209852663Y-106550000D01*
X209547337Y-106550000D01*
X209447519Y-106530145D01*
X209247882Y-106490435D01*
X209059827Y-106412540D01*
X208965799Y-106373592D01*
X208711929Y-106203962D01*
X208496038Y-105988071D01*
X208326408Y-105734201D01*
X208287460Y-105640173D01*
X208209565Y-105452118D01*
X208150000Y-105152662D01*
X208150000Y-104847338D01*
X208157394Y-104810168D01*
X208178522Y-104703948D01*
X208209565Y-104547882D01*
X208326064Y-104266630D01*
X208326408Y-104265799D01*
X208496038Y-104011929D01*
X208711929Y-103796038D01*
X208965799Y-103626408D01*
X209059827Y-103587460D01*
X209247882Y-103509565D01*
X209447519Y-103469855D01*
X209547337Y-103450000D01*
X209852663Y-103450000D01*
X209952481Y-103469855D01*
X209952481Y-103469855D01*
G37*
G36*
X129500000Y-104950000D02*
X127800000Y-104950000D01*
X127800000Y-103250000D01*
X129500000Y-103250000D01*
X129500000Y-104950000D01*
X129500000Y-104950000D01*
G37*
G36*
X126276630Y-103262299D02*
X126436855Y-103310903D01*
X126584520Y-103389831D01*
X126713949Y-103496051D01*
X126820169Y-103625480D01*
X126899097Y-103773145D01*
X126947701Y-103933370D01*
X126964112Y-104100000D01*
X126947701Y-104266630D01*
X126899097Y-104426855D01*
X126820169Y-104574520D01*
X126713949Y-104703949D01*
X126584520Y-104810169D01*
X126436855Y-104889097D01*
X126276630Y-104937701D01*
X126151752Y-104950000D01*
X126068248Y-104950000D01*
X125943370Y-104937701D01*
X125783145Y-104889097D01*
X125635480Y-104810169D01*
X125506051Y-104703949D01*
X125399831Y-104574520D01*
X125320903Y-104426855D01*
X125272299Y-104266630D01*
X125255888Y-104100000D01*
X125272299Y-103933370D01*
X125320903Y-103773145D01*
X125399831Y-103625480D01*
X125506051Y-103496051D01*
X125635480Y-103389831D01*
X125783145Y-103310903D01*
X125943370Y-103262299D01*
X126068248Y-103250000D01*
X126151752Y-103250000D01*
X126276630Y-103262299D01*
X126276630Y-103262299D01*
G37*
G36*
X126276630Y-100722299D02*
X126436855Y-100770903D01*
X126584520Y-100849831D01*
X126713949Y-100956051D01*
X126820169Y-101085480D01*
X126899097Y-101233145D01*
X126947701Y-101393370D01*
X126964112Y-101560000D01*
X126947701Y-101726630D01*
X126899097Y-101886855D01*
X126820169Y-102034520D01*
X126713949Y-102163949D01*
X126584520Y-102270169D01*
X126436855Y-102349097D01*
X126276630Y-102397701D01*
X126151752Y-102410000D01*
X126068248Y-102410000D01*
X125943370Y-102397701D01*
X125783145Y-102349097D01*
X125635480Y-102270169D01*
X125506051Y-102163949D01*
X125399831Y-102034520D01*
X125320903Y-101886855D01*
X125272299Y-101726630D01*
X125255888Y-101560000D01*
X125272299Y-101393370D01*
X125320903Y-101233145D01*
X125399831Y-101085480D01*
X125506051Y-100956051D01*
X125635480Y-100849831D01*
X125783145Y-100770903D01*
X125943370Y-100722299D01*
X126068248Y-100710000D01*
X126151752Y-100710000D01*
X126276630Y-100722299D01*
X126276630Y-100722299D01*
G37*
G36*
X128816630Y-100722299D02*
X128976855Y-100770903D01*
X129124520Y-100849831D01*
X129253949Y-100956051D01*
X129360169Y-101085480D01*
X129439097Y-101233145D01*
X129487701Y-101393370D01*
X129504112Y-101560000D01*
X129487701Y-101726630D01*
X129439097Y-101886855D01*
X129360169Y-102034520D01*
X129253949Y-102163949D01*
X129124520Y-102270169D01*
X128976855Y-102349097D01*
X128816630Y-102397701D01*
X128691752Y-102410000D01*
X128608248Y-102410000D01*
X128483370Y-102397701D01*
X128323145Y-102349097D01*
X128175480Y-102270169D01*
X128046051Y-102163949D01*
X127939831Y-102034520D01*
X127860903Y-101886855D01*
X127812299Y-101726630D01*
X127795888Y-101560000D01*
X127812299Y-101393370D01*
X127860903Y-101233145D01*
X127939831Y-101085480D01*
X128046051Y-100956051D01*
X128175480Y-100849831D01*
X128323145Y-100770903D01*
X128483370Y-100722299D01*
X128608248Y-100710000D01*
X128691752Y-100710000D01*
X128816630Y-100722299D01*
X128816630Y-100722299D01*
G37*
G36*
X126276630Y-96612299D02*
X126436855Y-96660903D01*
X126584520Y-96739831D01*
X126713949Y-96846051D01*
X126820169Y-96975480D01*
X126899097Y-97123145D01*
X126947701Y-97283370D01*
X126964112Y-97450000D01*
X126947701Y-97616630D01*
X126899097Y-97776855D01*
X126820169Y-97924520D01*
X126713949Y-98053949D01*
X126584520Y-98160169D01*
X126436855Y-98239097D01*
X126276630Y-98287701D01*
X126151752Y-98300000D01*
X126068248Y-98300000D01*
X125943370Y-98287701D01*
X125783145Y-98239097D01*
X125635480Y-98160169D01*
X125506051Y-98053949D01*
X125399831Y-97924520D01*
X125320903Y-97776855D01*
X125272299Y-97616630D01*
X125255888Y-97450000D01*
X125272299Y-97283370D01*
X125320903Y-97123145D01*
X125399831Y-96975480D01*
X125506051Y-96846051D01*
X125635480Y-96739831D01*
X125783145Y-96660903D01*
X125943370Y-96612299D01*
X126068248Y-96600000D01*
X126151752Y-96600000D01*
X126276630Y-96612299D01*
X126276630Y-96612299D01*
G37*
G36*
X129500000Y-98300000D02*
X127800000Y-98300000D01*
X127800000Y-96600000D01*
X129500000Y-96600000D01*
X129500000Y-98300000D01*
X129500000Y-98300000D01*
G37*
G36*
X204700000Y-97500000D02*
X201500000Y-97500000D01*
X201500000Y-96500000D01*
X204700000Y-96500000D01*
X204700000Y-97500000D01*
X204700000Y-97500000D01*
G37*
G36*
X193199999Y-97500000D02*
X183799999Y-97500000D01*
X183799999Y-86700000D01*
X193199999Y-86700000D01*
X193199999Y-97500000D01*
X193199999Y-97500000D01*
G37*
G36*
X128816630Y-94072299D02*
X128976855Y-94120903D01*
X129124520Y-94199831D01*
X129253949Y-94306051D01*
X129360169Y-94435480D01*
X129439097Y-94583145D01*
X129487701Y-94743370D01*
X129504112Y-94910000D01*
X129487701Y-95076630D01*
X129439097Y-95236855D01*
X129360169Y-95384520D01*
X129253949Y-95513949D01*
X129124520Y-95620169D01*
X128976855Y-95699097D01*
X128816630Y-95747701D01*
X128691752Y-95760000D01*
X128608248Y-95760000D01*
X128483370Y-95747701D01*
X128323145Y-95699097D01*
X128175480Y-95620169D01*
X128046051Y-95513949D01*
X127939831Y-95384520D01*
X127860903Y-95236855D01*
X127812299Y-95076630D01*
X127795888Y-94910000D01*
X127812299Y-94743370D01*
X127860903Y-94583145D01*
X127939831Y-94435480D01*
X128046051Y-94306051D01*
X128175480Y-94199831D01*
X128323145Y-94120903D01*
X128483370Y-94072299D01*
X128608248Y-94060000D01*
X128691752Y-94060000D01*
X128816630Y-94072299D01*
X128816630Y-94072299D01*
G37*
G36*
X126276630Y-94072299D02*
X126436855Y-94120903D01*
X126584520Y-94199831D01*
X126713949Y-94306051D01*
X126820169Y-94435480D01*
X126899097Y-94583145D01*
X126947701Y-94743370D01*
X126964112Y-94910000D01*
X126947701Y-95076630D01*
X126899097Y-95236855D01*
X126820169Y-95384520D01*
X126713949Y-95513949D01*
X126584520Y-95620169D01*
X126436855Y-95699097D01*
X126276630Y-95747701D01*
X126151752Y-95760000D01*
X126068248Y-95760000D01*
X125943370Y-95747701D01*
X125783145Y-95699097D01*
X125635480Y-95620169D01*
X125506051Y-95513949D01*
X125399831Y-95384520D01*
X125320903Y-95236855D01*
X125272299Y-95076630D01*
X125255888Y-94910000D01*
X125272299Y-94743370D01*
X125320903Y-94583145D01*
X125399831Y-94435480D01*
X125506051Y-94306051D01*
X125635480Y-94199831D01*
X125783145Y-94120903D01*
X125943370Y-94072299D01*
X126068248Y-94060000D01*
X126151752Y-94060000D01*
X126276630Y-94072299D01*
X126276630Y-94072299D01*
G37*
G36*
X199949999Y-95190000D02*
X195349999Y-95190000D01*
X195349999Y-94090000D01*
X199949999Y-94090000D01*
X199949999Y-95190000D01*
X199949999Y-95190000D01*
G37*
G36*
X128816630Y-91532299D02*
X128976855Y-91580903D01*
X129124520Y-91659831D01*
X129253949Y-91766051D01*
X129360169Y-91895480D01*
X129439097Y-92043145D01*
X129487701Y-92203370D01*
X129504112Y-92370000D01*
X129487701Y-92536630D01*
X129439097Y-92696855D01*
X129360169Y-92844520D01*
X129253949Y-92973949D01*
X129124520Y-93080169D01*
X128976855Y-93159097D01*
X128816630Y-93207701D01*
X128691752Y-93220000D01*
X128608248Y-93220000D01*
X128483370Y-93207701D01*
X128323145Y-93159097D01*
X128175480Y-93080169D01*
X128046051Y-92973949D01*
X127939831Y-92844520D01*
X127860903Y-92696855D01*
X127812299Y-92536630D01*
X127795888Y-92370000D01*
X127812299Y-92203370D01*
X127860903Y-92043145D01*
X127939831Y-91895480D01*
X128046051Y-91766051D01*
X128175480Y-91659831D01*
X128323145Y-91580903D01*
X128483370Y-91532299D01*
X128608248Y-91520000D01*
X128691752Y-91520000D01*
X128816630Y-91532299D01*
X128816630Y-91532299D01*
G37*
G36*
X126276630Y-91532299D02*
X126436855Y-91580903D01*
X126584520Y-91659831D01*
X126713949Y-91766051D01*
X126820169Y-91895480D01*
X126899097Y-92043145D01*
X126947701Y-92203370D01*
X126964112Y-92370000D01*
X126947701Y-92536630D01*
X126899097Y-92696855D01*
X126820169Y-92844520D01*
X126713949Y-92973949D01*
X126584520Y-93080169D01*
X126436855Y-93159097D01*
X126276630Y-93207701D01*
X126151752Y-93220000D01*
X126068248Y-93220000D01*
X125943370Y-93207701D01*
X125783145Y-93159097D01*
X125635480Y-93080169D01*
X125506051Y-92973949D01*
X125399831Y-92844520D01*
X125320903Y-92696855D01*
X125272299Y-92536630D01*
X125255888Y-92370000D01*
X125272299Y-92203370D01*
X125320903Y-92043145D01*
X125399831Y-91895480D01*
X125506051Y-91766051D01*
X125635480Y-91659831D01*
X125783145Y-91580903D01*
X125943370Y-91532299D01*
X126068248Y-91520000D01*
X126151752Y-91520000D01*
X126276630Y-91532299D01*
X126276630Y-91532299D01*
G37*
G36*
X204700000Y-91300000D02*
X201500000Y-91300000D01*
X201500000Y-90300000D01*
X204700000Y-90300000D01*
X204700000Y-91300000D01*
X204700000Y-91300000D01*
G37*
G36*
X199949999Y-90110000D02*
X195349999Y-90110000D01*
X195349999Y-89010000D01*
X199949999Y-89010000D01*
X199949999Y-90110000D01*
X199949999Y-90110000D01*
G37*
G36*
X129500000Y-89150000D02*
X127800000Y-89150000D01*
X127800000Y-87450000D01*
X129500000Y-87450000D01*
X129500000Y-89150000D01*
X129500000Y-89150000D01*
G37*
G36*
X126276630Y-87462299D02*
X126436855Y-87510903D01*
X126584520Y-87589831D01*
X126713949Y-87696051D01*
X126820169Y-87825480D01*
X126899097Y-87973145D01*
X126947701Y-88133370D01*
X126964112Y-88300000D01*
X126947701Y-88466630D01*
X126899097Y-88626855D01*
X126820169Y-88774520D01*
X126713949Y-88903949D01*
X126584520Y-89010169D01*
X126436855Y-89089097D01*
X126276630Y-89137701D01*
X126151752Y-89150000D01*
X126068248Y-89150000D01*
X125943370Y-89137701D01*
X125783145Y-89089097D01*
X125635480Y-89010169D01*
X125506051Y-88903949D01*
X125399831Y-88774520D01*
X125320903Y-88626855D01*
X125272299Y-88466630D01*
X125255888Y-88300000D01*
X125272299Y-88133370D01*
X125320903Y-87973145D01*
X125399831Y-87825480D01*
X125506051Y-87696051D01*
X125635480Y-87589831D01*
X125783145Y-87510903D01*
X125943370Y-87462299D01*
X126068248Y-87450000D01*
X126151752Y-87450000D01*
X126276630Y-87462299D01*
X126276630Y-87462299D01*
G37*
G36*
X128816630Y-84922299D02*
X128976855Y-84970903D01*
X129124520Y-85049831D01*
X129253949Y-85156051D01*
X129360169Y-85285480D01*
X129439097Y-85433145D01*
X129487701Y-85593370D01*
X129504112Y-85760000D01*
X129487701Y-85926630D01*
X129439097Y-86086855D01*
X129360169Y-86234520D01*
X129253949Y-86363949D01*
X129124520Y-86470169D01*
X128976855Y-86549097D01*
X128816630Y-86597701D01*
X128691752Y-86610000D01*
X128608248Y-86610000D01*
X128483370Y-86597701D01*
X128323145Y-86549097D01*
X128175480Y-86470169D01*
X128046051Y-86363949D01*
X127939831Y-86234520D01*
X127860903Y-86086855D01*
X127812299Y-85926630D01*
X127795888Y-85760000D01*
X127812299Y-85593370D01*
X127860903Y-85433145D01*
X127939831Y-85285480D01*
X128046051Y-85156051D01*
X128175480Y-85049831D01*
X128323145Y-84970903D01*
X128483370Y-84922299D01*
X128608248Y-84910000D01*
X128691752Y-84910000D01*
X128816630Y-84922299D01*
X128816630Y-84922299D01*
G37*
G36*
X126276630Y-84922299D02*
X126436855Y-84970903D01*
X126584520Y-85049831D01*
X126713949Y-85156051D01*
X126820169Y-85285480D01*
X126899097Y-85433145D01*
X126947701Y-85593370D01*
X126964112Y-85760000D01*
X126947701Y-85926630D01*
X126899097Y-86086855D01*
X126820169Y-86234520D01*
X126713949Y-86363949D01*
X126584520Y-86470169D01*
X126436855Y-86549097D01*
X126276630Y-86597701D01*
X126151752Y-86610000D01*
X126068248Y-86610000D01*
X125943370Y-86597701D01*
X125783145Y-86549097D01*
X125635480Y-86470169D01*
X125506051Y-86363949D01*
X125399831Y-86234520D01*
X125320903Y-86086855D01*
X125272299Y-85926630D01*
X125255888Y-85760000D01*
X125272299Y-85593370D01*
X125320903Y-85433145D01*
X125399831Y-85285480D01*
X125506051Y-85156051D01*
X125635480Y-85049831D01*
X125783145Y-84970903D01*
X125943370Y-84922299D01*
X126068248Y-84910000D01*
X126151752Y-84910000D01*
X126276630Y-84922299D01*
X126276630Y-84922299D01*
G37*
G36*
X126276630Y-82382299D02*
X126436855Y-82430903D01*
X126584520Y-82509831D01*
X126713949Y-82616051D01*
X126820169Y-82745480D01*
X126899097Y-82893145D01*
X126947701Y-83053370D01*
X126964112Y-83220000D01*
X126947701Y-83386630D01*
X126899097Y-83546855D01*
X126820169Y-83694520D01*
X126713949Y-83823949D01*
X126584520Y-83930169D01*
X126436855Y-84009097D01*
X126276630Y-84057701D01*
X126151752Y-84070000D01*
X126068248Y-84070000D01*
X125943370Y-84057701D01*
X125783145Y-84009097D01*
X125635480Y-83930169D01*
X125506051Y-83823949D01*
X125399831Y-83694520D01*
X125320903Y-83546855D01*
X125272299Y-83386630D01*
X125255888Y-83220000D01*
X125272299Y-83053370D01*
X125320903Y-82893145D01*
X125399831Y-82745480D01*
X125506051Y-82616051D01*
X125635480Y-82509831D01*
X125783145Y-82430903D01*
X125943370Y-82382299D01*
X126068248Y-82370000D01*
X126151752Y-82370000D01*
X126276630Y-82382299D01*
X126276630Y-82382299D01*
G37*
G36*
X128816630Y-82382299D02*
X128976855Y-82430903D01*
X129124520Y-82509831D01*
X129253949Y-82616051D01*
X129360169Y-82745480D01*
X129439097Y-82893145D01*
X129487701Y-83053370D01*
X129504112Y-83220000D01*
X129487701Y-83386630D01*
X129439097Y-83546855D01*
X129360169Y-83694520D01*
X129253949Y-83823949D01*
X129124520Y-83930169D01*
X128976855Y-84009097D01*
X128816630Y-84057701D01*
X128691752Y-84070000D01*
X128608248Y-84070000D01*
X128483370Y-84057701D01*
X128323145Y-84009097D01*
X128175480Y-83930169D01*
X128046051Y-83823949D01*
X127939831Y-83694520D01*
X127860903Y-83546855D01*
X127812299Y-83386630D01*
X127795888Y-83220000D01*
X127812299Y-83053370D01*
X127860903Y-82893145D01*
X127939831Y-82745480D01*
X128046051Y-82616051D01*
X128175480Y-82509831D01*
X128323145Y-82430903D01*
X128483370Y-82382299D01*
X128608248Y-82370000D01*
X128691752Y-82370000D01*
X128816630Y-82382299D01*
X128816630Y-82382299D01*
G37*
G36*
X208450026Y-74496115D02*
X208668412Y-74586573D01*
X208864958Y-74717901D01*
X209032099Y-74885042D01*
X209163427Y-75081588D01*
X209253885Y-75299974D01*
X209300000Y-75531809D01*
X209300000Y-75768191D01*
X209253885Y-76000026D01*
X209163427Y-76218412D01*
X209032099Y-76414958D01*
X208864958Y-76582099D01*
X208668412Y-76713427D01*
X208450026Y-76803885D01*
X208218191Y-76850000D01*
X207981809Y-76850000D01*
X207749974Y-76803885D01*
X207531588Y-76713427D01*
X207335042Y-76582099D01*
X207167901Y-76414958D01*
X207036573Y-76218412D01*
X206946115Y-76000026D01*
X206900000Y-75768191D01*
X206900000Y-75531809D01*
X206946115Y-75299974D01*
X207036573Y-75081588D01*
X207167901Y-74885042D01*
X207335042Y-74717901D01*
X207531588Y-74586573D01*
X207749974Y-74496115D01*
X207981809Y-74450000D01*
X208218191Y-74450000D01*
X208450026Y-74496115D01*
X208450026Y-74496115D01*
G37*
G36*
X201800000Y-76850000D02*
X199400000Y-76850000D01*
X199400000Y-74450000D01*
X201800000Y-74450000D01*
X201800000Y-76850000D01*
X201800000Y-76850000D01*
G37*
G36*
X140164612Y-73098037D02*
X140392096Y-73192264D01*
X140596831Y-73329064D01*
X140770936Y-73503169D01*
X140907736Y-73707904D01*
X141001963Y-73935388D01*
X141050000Y-74176885D01*
X141050000Y-74423115D01*
X141001963Y-74664612D01*
X140907736Y-74892096D01*
X140770936Y-75096831D01*
X140596831Y-75270936D01*
X140392096Y-75407736D01*
X140164612Y-75501963D01*
X139923115Y-75550000D01*
X139676885Y-75550000D01*
X139435388Y-75501963D01*
X139207904Y-75407736D01*
X139003169Y-75270936D01*
X138829064Y-75096831D01*
X138692264Y-74892096D01*
X138598037Y-74664612D01*
X138550000Y-74423115D01*
X138550000Y-74176885D01*
X138598037Y-73935388D01*
X138692264Y-73707904D01*
X138829064Y-73503169D01*
X139003169Y-73329064D01*
X139207904Y-73192264D01*
X139435388Y-73098037D01*
X139676885Y-73050000D01*
X139923115Y-73050000D01*
X140164612Y-73098037D01*
X140164612Y-73098037D01*
G37*
G36*
X143664612Y-73098037D02*
X143892096Y-73192264D01*
X144096831Y-73329064D01*
X144270936Y-73503169D01*
X144407736Y-73707904D01*
X144501963Y-73935388D01*
X144550000Y-74176885D01*
X144550000Y-74423115D01*
X144501963Y-74664612D01*
X144407736Y-74892096D01*
X144270936Y-75096831D01*
X144096831Y-75270936D01*
X143892096Y-75407736D01*
X143664612Y-75501963D01*
X143423115Y-75550000D01*
X143176885Y-75550000D01*
X142935388Y-75501963D01*
X142707904Y-75407736D01*
X142503169Y-75270936D01*
X142329064Y-75096831D01*
X142192264Y-74892096D01*
X142098037Y-74664612D01*
X142050000Y-74423115D01*
X142050000Y-74176885D01*
X142098037Y-73935388D01*
X142192264Y-73707904D01*
X142329064Y-73503169D01*
X142503169Y-73329064D01*
X142707904Y-73192264D01*
X142935388Y-73098037D01*
X143176885Y-73050000D01*
X143423115Y-73050000D01*
X143664612Y-73098037D01*
X143664612Y-73098037D01*
G37*
G36*
X164664612Y-73098037D02*
X164892096Y-73192264D01*
X165096831Y-73329064D01*
X165270936Y-73503169D01*
X165407736Y-73707904D01*
X165501963Y-73935388D01*
X165550000Y-74176885D01*
X165550000Y-74423115D01*
X165501963Y-74664612D01*
X165407736Y-74892096D01*
X165270936Y-75096831D01*
X165096831Y-75270936D01*
X164892096Y-75407736D01*
X164664612Y-75501963D01*
X164423115Y-75550000D01*
X164176885Y-75550000D01*
X163935388Y-75501963D01*
X163707904Y-75407736D01*
X163503169Y-75270936D01*
X163329064Y-75096831D01*
X163192264Y-74892096D01*
X163098037Y-74664612D01*
X163050000Y-74423115D01*
X163050000Y-74176885D01*
X163098037Y-73935388D01*
X163192264Y-73707904D01*
X163329064Y-73503169D01*
X163503169Y-73329064D01*
X163707904Y-73192264D01*
X163935388Y-73098037D01*
X164176885Y-73050000D01*
X164423115Y-73050000D01*
X164664612Y-73098037D01*
X164664612Y-73098037D01*
G37*
G36*
X161164612Y-73098037D02*
X161392096Y-73192264D01*
X161596831Y-73329064D01*
X161770936Y-73503169D01*
X161907736Y-73707904D01*
X162001963Y-73935388D01*
X162050000Y-74176885D01*
X162050000Y-74423115D01*
X162001963Y-74664612D01*
X161907736Y-74892096D01*
X161770936Y-75096831D01*
X161596831Y-75270936D01*
X161392096Y-75407736D01*
X161164612Y-75501963D01*
X160923115Y-75550000D01*
X160676885Y-75550000D01*
X160435388Y-75501963D01*
X160207904Y-75407736D01*
X160003169Y-75270936D01*
X159829064Y-75096831D01*
X159692264Y-74892096D01*
X159598037Y-74664612D01*
X159550000Y-74423115D01*
X159550000Y-74176885D01*
X159598037Y-73935388D01*
X159692264Y-73707904D01*
X159829064Y-73503169D01*
X160003169Y-73329064D01*
X160207904Y-73192264D01*
X160435388Y-73098037D01*
X160676885Y-73050000D01*
X160923115Y-73050000D01*
X161164612Y-73098037D01*
X161164612Y-73098037D01*
G37*
G36*
X157664612Y-73098037D02*
X157892096Y-73192264D01*
X158096831Y-73329064D01*
X158270936Y-73503169D01*
X158407736Y-73707904D01*
X158501963Y-73935388D01*
X158550000Y-74176885D01*
X158550000Y-74423115D01*
X158501963Y-74664612D01*
X158407736Y-74892096D01*
X158270936Y-75096831D01*
X158096831Y-75270936D01*
X157892096Y-75407736D01*
X157664612Y-75501963D01*
X157423115Y-75550000D01*
X157176885Y-75550000D01*
X156935388Y-75501963D01*
X156707904Y-75407736D01*
X156503169Y-75270936D01*
X156329064Y-75096831D01*
X156192264Y-74892096D01*
X156098037Y-74664612D01*
X156050000Y-74423115D01*
X156050000Y-74176885D01*
X156098037Y-73935388D01*
X156192264Y-73707904D01*
X156329064Y-73503169D01*
X156503169Y-73329064D01*
X156707904Y-73192264D01*
X156935388Y-73098037D01*
X157176885Y-73050000D01*
X157423115Y-73050000D01*
X157664612Y-73098037D01*
X157664612Y-73098037D01*
G37*
G36*
X154164612Y-73098037D02*
X154392096Y-73192264D01*
X154596831Y-73329064D01*
X154770936Y-73503169D01*
X154907736Y-73707904D01*
X155001963Y-73935388D01*
X155050000Y-74176885D01*
X155050000Y-74423115D01*
X155001963Y-74664612D01*
X154907736Y-74892096D01*
X154770936Y-75096831D01*
X154596831Y-75270936D01*
X154392096Y-75407736D01*
X154164612Y-75501963D01*
X153923115Y-75550000D01*
X153676885Y-75550000D01*
X153435388Y-75501963D01*
X153207904Y-75407736D01*
X153003169Y-75270936D01*
X152829064Y-75096831D01*
X152692264Y-74892096D01*
X152598037Y-74664612D01*
X152550000Y-74423115D01*
X152550000Y-74176885D01*
X152598037Y-73935388D01*
X152692264Y-73707904D01*
X152829064Y-73503169D01*
X153003169Y-73329064D01*
X153207904Y-73192264D01*
X153435388Y-73098037D01*
X153676885Y-73050000D01*
X153923115Y-73050000D01*
X154164612Y-73098037D01*
X154164612Y-73098037D01*
G37*
G36*
X150664612Y-73098037D02*
X150892096Y-73192264D01*
X151096831Y-73329064D01*
X151270936Y-73503169D01*
X151407736Y-73707904D01*
X151501963Y-73935388D01*
X151550000Y-74176885D01*
X151550000Y-74423115D01*
X151501963Y-74664612D01*
X151407736Y-74892096D01*
X151270936Y-75096831D01*
X151096831Y-75270936D01*
X150892096Y-75407736D01*
X150664612Y-75501963D01*
X150423115Y-75550000D01*
X150176885Y-75550000D01*
X149935388Y-75501963D01*
X149707904Y-75407736D01*
X149503169Y-75270936D01*
X149329064Y-75096831D01*
X149192264Y-74892096D01*
X149098037Y-74664612D01*
X149050000Y-74423115D01*
X149050000Y-74176885D01*
X149098037Y-73935388D01*
X149192264Y-73707904D01*
X149329064Y-73503169D01*
X149503169Y-73329064D01*
X149707904Y-73192264D01*
X149935388Y-73098037D01*
X150176885Y-73050000D01*
X150423115Y-73050000D01*
X150664612Y-73098037D01*
X150664612Y-73098037D01*
G37*
G36*
X147164612Y-73098037D02*
X147392096Y-73192264D01*
X147596831Y-73329064D01*
X147770936Y-73503169D01*
X147907736Y-73707904D01*
X148001963Y-73935388D01*
X148050000Y-74176885D01*
X148050000Y-74423115D01*
X148001963Y-74664612D01*
X147907736Y-74892096D01*
X147770936Y-75096831D01*
X147596831Y-75270936D01*
X147392096Y-75407736D01*
X147164612Y-75501963D01*
X146923115Y-75550000D01*
X146676885Y-75550000D01*
X146435388Y-75501963D01*
X146207904Y-75407736D01*
X146003169Y-75270936D01*
X145829064Y-75096831D01*
X145692264Y-74892096D01*
X145598037Y-74664612D01*
X145550000Y-74423115D01*
X145550000Y-74176885D01*
X145598037Y-73935388D01*
X145692264Y-73707904D01*
X145829064Y-73503169D01*
X146003169Y-73329064D01*
X146207904Y-73192264D01*
X146435388Y-73098037D01*
X146676885Y-73050000D01*
X146923115Y-73050000D01*
X147164612Y-73098037D01*
X147164612Y-73098037D01*
G37*
G36*
X187352481Y-68669855D02*
X187552118Y-68709565D01*
X187740173Y-68787460D01*
X187834201Y-68826408D01*
X188088071Y-68996038D01*
X188303962Y-69211929D01*
X188473592Y-69465799D01*
X188473592Y-69465800D01*
X188590435Y-69747882D01*
X188650000Y-70047338D01*
X188650000Y-70352662D01*
X188590435Y-70652118D01*
X188512540Y-70840173D01*
X188473592Y-70934201D01*
X188303962Y-71188071D01*
X188088071Y-71403962D01*
X187834201Y-71573592D01*
X187740173Y-71612540D01*
X187552118Y-71690435D01*
X187352481Y-71730145D01*
X187252663Y-71750000D01*
X186947337Y-71750000D01*
X186847519Y-71730145D01*
X186647882Y-71690435D01*
X186459827Y-71612540D01*
X186365799Y-71573592D01*
X186111929Y-71403962D01*
X185896038Y-71188071D01*
X185726408Y-70934201D01*
X185687460Y-70840173D01*
X185609565Y-70652118D01*
X185550000Y-70352662D01*
X185550000Y-70047338D01*
X185609565Y-69747882D01*
X185726408Y-69465800D01*
X185726408Y-69465799D01*
X185896038Y-69211929D01*
X186111929Y-68996038D01*
X186365799Y-68826408D01*
X186459827Y-68787460D01*
X186647882Y-68709565D01*
X186847519Y-68669855D01*
X186947337Y-68650000D01*
X187252663Y-68650000D01*
X187352481Y-68669855D01*
X187352481Y-68669855D01*
G37*
G36*
X182352481Y-68669855D02*
X182552118Y-68709565D01*
X182740173Y-68787460D01*
X182834201Y-68826408D01*
X183088071Y-68996038D01*
X183303962Y-69211929D01*
X183473592Y-69465799D01*
X183473592Y-69465800D01*
X183590435Y-69747882D01*
X183650000Y-70047338D01*
X183650000Y-70352662D01*
X183590435Y-70652118D01*
X183512540Y-70840173D01*
X183473592Y-70934201D01*
X183303962Y-71188071D01*
X183088071Y-71403962D01*
X182834201Y-71573592D01*
X182740173Y-71612540D01*
X182552118Y-71690435D01*
X182352481Y-71730145D01*
X182252663Y-71750000D01*
X181947337Y-71750000D01*
X181847519Y-71730145D01*
X181647882Y-71690435D01*
X181459827Y-71612540D01*
X181365799Y-71573592D01*
X181111929Y-71403962D01*
X180896038Y-71188071D01*
X180726408Y-70934201D01*
X180687460Y-70840173D01*
X180609565Y-70652118D01*
X180550000Y-70352662D01*
X180550000Y-70047338D01*
X180609565Y-69747882D01*
X180726408Y-69465800D01*
X180726408Y-69465799D01*
X180896038Y-69211929D01*
X181111929Y-68996038D01*
X181365799Y-68826408D01*
X181459827Y-68787460D01*
X181647882Y-68709565D01*
X181847519Y-68669855D01*
X181947337Y-68650000D01*
X182252663Y-68650000D01*
X182352481Y-68669855D01*
X182352481Y-68669855D01*
G37*
M02*
