G04 #@! TF.GenerationSoftware,KiCad,Pcbnew,(5.0.1)-3*
G04 #@! TF.CreationDate,2018-10-29T22:15:53-04:00*
G04 #@! TF.ProjectId,GCEW,474345572E6B696361645F7063620000,rev?*
G04 #@! TF.SameCoordinates,Original*
G04 #@! TF.FileFunction,Paste,Top*
G04 #@! TF.FilePolarity,Positive*
%FSLAX46Y46*%
G04 Gerber Fmt 4.6, Leading zero omitted, Abs format (unit mm)*
G04 Created by KiCad (PCBNEW (5.0.1)-3) date 10/29/2018 10:15:53 PM*
%MOMM*%
%LPD*%
G01*
G04 APERTURE LIST*
%ADD10C,1.000000*%
%ADD11C,0.100000*%
%ADD12R,1.600000X1.000000*%
%ADD13R,1.250000X1.000000*%
%ADD14R,1.600000X3.200000*%
%ADD15R,2.700000X1.600000*%
%ADD16R,1.100000X1.100000*%
%ADD17R,3.300000X3.700000*%
%ADD18C,0.900000*%
%ADD19R,1.700000X0.900000*%
%ADD20R,0.900000X1.700000*%
%ADD21R,0.700000X1.300000*%
%ADD22R,1.100000X0.600000*%
%ADD23C,0.772500*%
%ADD24C,0.280000*%
%ADD25R,4.600000X1.100000*%
%ADD26R,4.550000X5.250000*%
G04 APERTURE END LIST*
D10*
G04 #@! TO.C,C2*
X152960660Y-106689340D03*
D11*
G36*
X152748528Y-105770101D02*
X153879899Y-106901472D01*
X153172792Y-107608579D01*
X152041421Y-106477208D01*
X152748528Y-105770101D01*
X152748528Y-105770101D01*
G37*
D10*
X150839340Y-108810660D03*
D11*
G36*
X150627208Y-107891421D02*
X151758579Y-109022792D01*
X151051472Y-109729899D01*
X149920101Y-108598528D01*
X150627208Y-107891421D01*
X150627208Y-107891421D01*
G37*
G04 #@! TD*
D10*
G04 #@! TO.C,C3*
X158260660Y-97439340D03*
D11*
G36*
X158048528Y-96520101D02*
X159179899Y-97651472D01*
X158472792Y-98358579D01*
X157341421Y-97227208D01*
X158048528Y-96520101D01*
X158048528Y-96520101D01*
G37*
D10*
X156139340Y-99560660D03*
D11*
G36*
X155927208Y-98641421D02*
X157058579Y-99772792D01*
X156351472Y-100479899D01*
X155220101Y-99348528D01*
X155927208Y-98641421D01*
X155927208Y-98641421D01*
G37*
G04 #@! TD*
D12*
G04 #@! TO.C,C4*
X139000000Y-117200000D03*
X139000000Y-120200000D03*
G04 #@! TD*
D13*
G04 #@! TO.C,C5*
X133250000Y-113300000D03*
X133250000Y-111300000D03*
G04 #@! TD*
G04 #@! TO.C,C6*
X133400000Y-120050000D03*
X133400000Y-118050000D03*
G04 #@! TD*
G04 #@! TO.C,C7*
X133400000Y-124800000D03*
X133400000Y-126800000D03*
G04 #@! TD*
D10*
G04 #@! TO.C,C8*
X160439340Y-118539340D03*
D11*
G36*
X159520101Y-118751472D02*
X160651472Y-117620101D01*
X161358579Y-118327208D01*
X160227208Y-119458579D01*
X159520101Y-118751472D01*
X159520101Y-118751472D01*
G37*
D10*
X162560660Y-120660660D03*
D11*
G36*
X161641421Y-120872792D02*
X162772792Y-119741421D01*
X163479899Y-120448528D01*
X162348528Y-121579899D01*
X161641421Y-120872792D01*
X161641421Y-120872792D01*
G37*
G04 #@! TD*
D10*
G04 #@! TO.C,C10*
X158575000Y-114625000D03*
D11*
G36*
X158362868Y-113705761D02*
X159494239Y-114837132D01*
X158787132Y-115544239D01*
X157655761Y-114412868D01*
X158362868Y-113705761D01*
X158362868Y-113705761D01*
G37*
D10*
X156453680Y-116746320D03*
D11*
G36*
X156241548Y-115827081D02*
X157372919Y-116958452D01*
X156665812Y-117665559D01*
X155534441Y-116534188D01*
X156241548Y-115827081D01*
X156241548Y-115827081D01*
G37*
G04 #@! TD*
D10*
G04 #@! TO.C,C11*
X162450000Y-116400000D03*
D11*
G36*
X161530761Y-116612132D02*
X162662132Y-115480761D01*
X163369239Y-116187868D01*
X162237868Y-117319239D01*
X161530761Y-116612132D01*
X161530761Y-116612132D01*
G37*
D10*
X164571320Y-118521320D03*
D11*
G36*
X163652081Y-118733452D02*
X164783452Y-117602081D01*
X165490559Y-118309188D01*
X164359188Y-119440559D01*
X163652081Y-118733452D01*
X163652081Y-118733452D01*
G37*
G04 #@! TD*
D14*
G04 #@! TO.C,C12*
X148800000Y-115850000D03*
X148800000Y-120850000D03*
G04 #@! TD*
D12*
G04 #@! TO.C,C13*
X165525000Y-98650000D03*
X165525000Y-95650000D03*
G04 #@! TD*
D10*
G04 #@! TO.C,C14*
X153889340Y-115260660D03*
D11*
G36*
X154101472Y-116179899D02*
X152970101Y-115048528D01*
X153677208Y-114341421D01*
X154808579Y-115472792D01*
X154101472Y-116179899D01*
X154101472Y-116179899D01*
G37*
D10*
X156010660Y-113139340D03*
D11*
G36*
X156222792Y-114058579D02*
X155091421Y-112927208D01*
X155798528Y-112220101D01*
X156929899Y-113351472D01*
X156222792Y-114058579D01*
X156222792Y-114058579D01*
G37*
G04 #@! TD*
D15*
G04 #@! TO.C,C15*
X134200000Y-136825000D03*
X134200000Y-133825000D03*
G04 #@! TD*
D16*
G04 #@! TO.C,D1*
X153150001Y-129850000D03*
X155949999Y-129850000D03*
G04 #@! TD*
D17*
G04 #@! TO.C,L1*
X146950000Y-136700000D03*
X154850000Y-136700000D03*
G04 #@! TD*
D18*
G04 #@! TO.C,R1*
X154349390Y-97750610D03*
D11*
G36*
X154632233Y-98669849D02*
X153430151Y-97467767D01*
X154066547Y-96831371D01*
X155268629Y-98033453D01*
X154632233Y-98669849D01*
X154632233Y-98669849D01*
G37*
D18*
X156400000Y-95700000D03*
D11*
G36*
X156682843Y-96619239D02*
X155480761Y-95417157D01*
X156117157Y-94780761D01*
X157319239Y-95982843D01*
X156682843Y-96619239D01*
X156682843Y-96619239D01*
G37*
G04 #@! TD*
D19*
G04 #@! TO.C,R2*
X135750000Y-110450000D03*
X135750000Y-113350000D03*
G04 #@! TD*
D20*
G04 #@! TO.C,R3*
X131500000Y-88400000D03*
X134400000Y-88400000D03*
G04 #@! TD*
G04 #@! TO.C,R4*
X131500000Y-85800000D03*
X134400000Y-85800000D03*
G04 #@! TD*
G04 #@! TO.C,R5*
X131500000Y-83100000D03*
X134400000Y-83100000D03*
G04 #@! TD*
G04 #@! TO.C,R6*
X131500000Y-97650000D03*
X134400000Y-97650000D03*
G04 #@! TD*
G04 #@! TO.C,R7*
X131500000Y-95050000D03*
X134400000Y-95050000D03*
G04 #@! TD*
D19*
G04 #@! TO.C,R8*
X135950000Y-117200000D03*
X135950000Y-120100000D03*
G04 #@! TD*
D20*
G04 #@! TO.C,R9*
X131500000Y-104000000D03*
X134400000Y-104000000D03*
G04 #@! TD*
G04 #@! TO.C,R10*
X131500000Y-101600000D03*
X134400000Y-101600000D03*
G04 #@! TD*
D19*
G04 #@! TO.C,R11*
X151020000Y-91580000D03*
X151020000Y-94480000D03*
G04 #@! TD*
G04 #@! TO.C,R12*
X135950000Y-127650000D03*
X135950000Y-124750000D03*
G04 #@! TD*
G04 #@! TO.C,R13*
X148460000Y-94480000D03*
X148460000Y-91580000D03*
G04 #@! TD*
D18*
G04 #@! TO.C,R14*
X158524695Y-120474695D03*
D11*
G36*
X157605456Y-120757538D02*
X158807538Y-119555456D01*
X159443934Y-120191852D01*
X158241852Y-121393934D01*
X157605456Y-120757538D01*
X157605456Y-120757538D01*
G37*
D18*
X160575305Y-122525305D03*
D11*
G36*
X159656066Y-122808148D02*
X160858148Y-121606066D01*
X161494544Y-122242462D01*
X160292462Y-123444544D01*
X159656066Y-122808148D01*
X159656066Y-122808148D01*
G37*
G04 #@! TD*
D21*
G04 #@! TO.C,R15*
X154450000Y-125550000D03*
X156350000Y-125550000D03*
G04 #@! TD*
G04 #@! TO.C,R16*
X158050000Y-125550000D03*
X159950000Y-125550000D03*
G04 #@! TD*
D22*
G04 #@! TO.C,U1*
X194900000Y-102250000D03*
X194900000Y-104150000D03*
X197500000Y-102250000D03*
X197500000Y-104150000D03*
X197500000Y-103200000D03*
G04 #@! TD*
D23*
G04 #@! TO.C,U2*
X160789600Y-110102000D03*
D11*
G36*
X161335840Y-110102000D02*
X160789600Y-110648240D01*
X160243360Y-110102000D01*
X160789600Y-109555760D01*
X161335840Y-110102000D01*
X161335840Y-110102000D01*
G37*
D23*
X161700000Y-109191600D03*
D11*
G36*
X162246240Y-109191600D02*
X161700000Y-109737840D01*
X161153760Y-109191600D01*
X161700000Y-108645360D01*
X162246240Y-109191600D01*
X162246240Y-109191600D01*
G37*
D23*
X162610400Y-108281200D03*
D11*
G36*
X163156640Y-108281200D02*
X162610400Y-108827440D01*
X162064160Y-108281200D01*
X162610400Y-107734960D01*
X163156640Y-108281200D01*
X163156640Y-108281200D01*
G37*
D23*
X163520800Y-107370800D03*
D11*
G36*
X164067040Y-107370800D02*
X163520800Y-107917040D01*
X162974560Y-107370800D01*
X163520800Y-106824560D01*
X164067040Y-107370800D01*
X164067040Y-107370800D01*
G37*
D23*
X159879200Y-109191600D03*
D11*
G36*
X160425440Y-109191600D02*
X159879200Y-109737840D01*
X159332960Y-109191600D01*
X159879200Y-108645360D01*
X160425440Y-109191600D01*
X160425440Y-109191600D01*
G37*
D23*
X160789600Y-108281200D03*
D11*
G36*
X161335840Y-108281200D02*
X160789600Y-108827440D01*
X160243360Y-108281200D01*
X160789600Y-107734960D01*
X161335840Y-108281200D01*
X161335840Y-108281200D01*
G37*
D23*
X161700000Y-107370800D03*
D11*
G36*
X162246240Y-107370800D02*
X161700000Y-107917040D01*
X161153760Y-107370800D01*
X161700000Y-106824560D01*
X162246240Y-107370800D01*
X162246240Y-107370800D01*
G37*
D23*
X162610400Y-106460400D03*
D11*
G36*
X163156640Y-106460400D02*
X162610400Y-107006640D01*
X162064160Y-106460400D01*
X162610400Y-105914160D01*
X163156640Y-106460400D01*
X163156640Y-106460400D01*
G37*
D23*
X158968800Y-108281200D03*
D11*
G36*
X159515040Y-108281200D02*
X158968800Y-108827440D01*
X158422560Y-108281200D01*
X158968800Y-107734960D01*
X159515040Y-108281200D01*
X159515040Y-108281200D01*
G37*
D23*
X159879200Y-107370800D03*
D11*
G36*
X160425440Y-107370800D02*
X159879200Y-107917040D01*
X159332960Y-107370800D01*
X159879200Y-106824560D01*
X160425440Y-107370800D01*
X160425440Y-107370800D01*
G37*
D23*
X160789600Y-106460400D03*
D11*
G36*
X161335840Y-106460400D02*
X160789600Y-107006640D01*
X160243360Y-106460400D01*
X160789600Y-105914160D01*
X161335840Y-106460400D01*
X161335840Y-106460400D01*
G37*
D23*
X161700000Y-105550000D03*
D11*
G36*
X162246240Y-105550000D02*
X161700000Y-106096240D01*
X161153760Y-105550000D01*
X161700000Y-105003760D01*
X162246240Y-105550000D01*
X162246240Y-105550000D01*
G37*
D23*
X158058400Y-107370800D03*
D11*
G36*
X158604640Y-107370800D02*
X158058400Y-107917040D01*
X157512160Y-107370800D01*
X158058400Y-106824560D01*
X158604640Y-107370800D01*
X158604640Y-107370800D01*
G37*
D23*
X158968800Y-106460400D03*
D11*
G36*
X159515040Y-106460400D02*
X158968800Y-107006640D01*
X158422560Y-106460400D01*
X158968800Y-105914160D01*
X159515040Y-106460400D01*
X159515040Y-106460400D01*
G37*
D23*
X159879200Y-105550000D03*
D11*
G36*
X160425440Y-105550000D02*
X159879200Y-106096240D01*
X159332960Y-105550000D01*
X159879200Y-105003760D01*
X160425440Y-105550000D01*
X160425440Y-105550000D01*
G37*
D23*
X160789600Y-104639600D03*
D11*
G36*
X161335840Y-104639600D02*
X160789600Y-105185840D01*
X160243360Y-104639600D01*
X160789600Y-104093360D01*
X161335840Y-104639600D01*
X161335840Y-104639600D01*
G37*
D24*
X160276948Y-111772540D03*
D11*
G36*
X160478473Y-111373025D02*
X160676463Y-111571015D01*
X160075423Y-112172055D01*
X159877433Y-111974065D01*
X160478473Y-111373025D01*
X160478473Y-111373025D01*
G37*
D24*
X159923394Y-111418986D03*
D11*
G36*
X160124919Y-111019471D02*
X160322909Y-111217461D01*
X159721869Y-111818501D01*
X159523879Y-111620511D01*
X160124919Y-111019471D01*
X160124919Y-111019471D01*
G37*
D24*
X159569841Y-111065433D03*
D11*
G36*
X159771366Y-110665918D02*
X159969356Y-110863908D01*
X159368316Y-111464948D01*
X159170326Y-111266958D01*
X159771366Y-110665918D01*
X159771366Y-110665918D01*
G37*
D24*
X159216287Y-110711880D03*
D11*
G36*
X159417812Y-110312365D02*
X159615802Y-110510355D01*
X159014762Y-111111395D01*
X158816772Y-110913405D01*
X159417812Y-110312365D01*
X159417812Y-110312365D01*
G37*
D24*
X158862734Y-110358326D03*
D11*
G36*
X159064259Y-109958811D02*
X159262249Y-110156801D01*
X158661209Y-110757841D01*
X158463219Y-110559851D01*
X159064259Y-109958811D01*
X159064259Y-109958811D01*
G37*
D24*
X158509181Y-110004773D03*
D11*
G36*
X158710706Y-109605258D02*
X158908696Y-109803248D01*
X158307656Y-110404288D01*
X158109666Y-110206298D01*
X158710706Y-109605258D01*
X158710706Y-109605258D01*
G37*
D24*
X158155627Y-109651219D03*
D11*
G36*
X158357152Y-109251704D02*
X158555142Y-109449694D01*
X157954102Y-110050734D01*
X157756112Y-109852744D01*
X158357152Y-109251704D01*
X158357152Y-109251704D01*
G37*
D24*
X157802074Y-109297666D03*
D11*
G36*
X158003599Y-108898151D02*
X158201589Y-109096141D01*
X157600549Y-109697181D01*
X157402559Y-109499191D01*
X158003599Y-108898151D01*
X158003599Y-108898151D01*
G37*
D24*
X157448520Y-108944113D03*
D11*
G36*
X157650045Y-108544598D02*
X157848035Y-108742588D01*
X157246995Y-109343628D01*
X157049005Y-109145638D01*
X157650045Y-108544598D01*
X157650045Y-108544598D01*
G37*
D24*
X157094967Y-108590559D03*
D11*
G36*
X157296492Y-108191044D02*
X157494482Y-108389034D01*
X156893442Y-108990074D01*
X156695452Y-108792084D01*
X157296492Y-108191044D01*
X157296492Y-108191044D01*
G37*
D24*
X156741414Y-108237006D03*
D11*
G36*
X156942939Y-107837491D02*
X157140929Y-108035481D01*
X156539889Y-108636521D01*
X156341899Y-108438531D01*
X156942939Y-107837491D01*
X156942939Y-107837491D01*
G37*
D24*
X156387860Y-107883452D03*
D11*
G36*
X156589385Y-107483937D02*
X156787375Y-107681927D01*
X156186335Y-108282967D01*
X155988345Y-108084977D01*
X156589385Y-107483937D01*
X156589385Y-107483937D01*
G37*
D24*
X156387860Y-106858148D03*
D11*
G36*
X156787375Y-107059673D02*
X156589385Y-107257663D01*
X155988345Y-106656623D01*
X156186335Y-106458633D01*
X156787375Y-107059673D01*
X156787375Y-107059673D01*
G37*
D24*
X156741414Y-106504594D03*
D11*
G36*
X157140929Y-106706119D02*
X156942939Y-106904109D01*
X156341899Y-106303069D01*
X156539889Y-106105079D01*
X157140929Y-106706119D01*
X157140929Y-106706119D01*
G37*
D24*
X157094967Y-106151041D03*
D11*
G36*
X157494482Y-106352566D02*
X157296492Y-106550556D01*
X156695452Y-105949516D01*
X156893442Y-105751526D01*
X157494482Y-106352566D01*
X157494482Y-106352566D01*
G37*
D24*
X157448520Y-105797487D03*
D11*
G36*
X157848035Y-105999012D02*
X157650045Y-106197002D01*
X157049005Y-105595962D01*
X157246995Y-105397972D01*
X157848035Y-105999012D01*
X157848035Y-105999012D01*
G37*
D24*
X157802074Y-105443934D03*
D11*
G36*
X158201589Y-105645459D02*
X158003599Y-105843449D01*
X157402559Y-105242409D01*
X157600549Y-105044419D01*
X158201589Y-105645459D01*
X158201589Y-105645459D01*
G37*
D24*
X158155627Y-105090381D03*
D11*
G36*
X158555142Y-105291906D02*
X158357152Y-105489896D01*
X157756112Y-104888856D01*
X157954102Y-104690866D01*
X158555142Y-105291906D01*
X158555142Y-105291906D01*
G37*
D24*
X158509181Y-104736827D03*
D11*
G36*
X158908696Y-104938352D02*
X158710706Y-105136342D01*
X158109666Y-104535302D01*
X158307656Y-104337312D01*
X158908696Y-104938352D01*
X158908696Y-104938352D01*
G37*
D24*
X158862734Y-104383274D03*
D11*
G36*
X159262249Y-104584799D02*
X159064259Y-104782789D01*
X158463219Y-104181749D01*
X158661209Y-103983759D01*
X159262249Y-104584799D01*
X159262249Y-104584799D01*
G37*
D24*
X159216287Y-104029720D03*
D11*
G36*
X159615802Y-104231245D02*
X159417812Y-104429235D01*
X158816772Y-103828195D01*
X159014762Y-103630205D01*
X159615802Y-104231245D01*
X159615802Y-104231245D01*
G37*
D24*
X159569841Y-103676167D03*
D11*
G36*
X159969356Y-103877692D02*
X159771366Y-104075682D01*
X159170326Y-103474642D01*
X159368316Y-103276652D01*
X159969356Y-103877692D01*
X159969356Y-103877692D01*
G37*
D24*
X159923394Y-103322614D03*
D11*
G36*
X160322909Y-103524139D02*
X160124919Y-103722129D01*
X159523879Y-103121089D01*
X159721869Y-102923099D01*
X160322909Y-103524139D01*
X160322909Y-103524139D01*
G37*
D24*
X160276948Y-102969060D03*
D11*
G36*
X160676463Y-103170585D02*
X160478473Y-103368575D01*
X159877433Y-102767535D01*
X160075423Y-102569545D01*
X160676463Y-103170585D01*
X160676463Y-103170585D01*
G37*
D24*
X161302252Y-102969060D03*
D11*
G36*
X161503777Y-102569545D02*
X161701767Y-102767535D01*
X161100727Y-103368575D01*
X160902737Y-103170585D01*
X161503777Y-102569545D01*
X161503777Y-102569545D01*
G37*
D24*
X161655806Y-103322614D03*
D11*
G36*
X161857331Y-102923099D02*
X162055321Y-103121089D01*
X161454281Y-103722129D01*
X161256291Y-103524139D01*
X161857331Y-102923099D01*
X161857331Y-102923099D01*
G37*
D24*
X162009359Y-103676167D03*
D11*
G36*
X162210884Y-103276652D02*
X162408874Y-103474642D01*
X161807834Y-104075682D01*
X161609844Y-103877692D01*
X162210884Y-103276652D01*
X162210884Y-103276652D01*
G37*
D24*
X162362913Y-104029720D03*
D11*
G36*
X162564438Y-103630205D02*
X162762428Y-103828195D01*
X162161388Y-104429235D01*
X161963398Y-104231245D01*
X162564438Y-103630205D01*
X162564438Y-103630205D01*
G37*
D24*
X162716466Y-104383274D03*
D11*
G36*
X162917991Y-103983759D02*
X163115981Y-104181749D01*
X162514941Y-104782789D01*
X162316951Y-104584799D01*
X162917991Y-103983759D01*
X162917991Y-103983759D01*
G37*
D24*
X163070019Y-104736827D03*
D11*
G36*
X163271544Y-104337312D02*
X163469534Y-104535302D01*
X162868494Y-105136342D01*
X162670504Y-104938352D01*
X163271544Y-104337312D01*
X163271544Y-104337312D01*
G37*
D24*
X163423573Y-105090381D03*
D11*
G36*
X163625098Y-104690866D02*
X163823088Y-104888856D01*
X163222048Y-105489896D01*
X163024058Y-105291906D01*
X163625098Y-104690866D01*
X163625098Y-104690866D01*
G37*
D24*
X163777126Y-105443934D03*
D11*
G36*
X163978651Y-105044419D02*
X164176641Y-105242409D01*
X163575601Y-105843449D01*
X163377611Y-105645459D01*
X163978651Y-105044419D01*
X163978651Y-105044419D01*
G37*
D24*
X164130680Y-105797487D03*
D11*
G36*
X164332205Y-105397972D02*
X164530195Y-105595962D01*
X163929155Y-106197002D01*
X163731165Y-105999012D01*
X164332205Y-105397972D01*
X164332205Y-105397972D01*
G37*
D24*
X164484233Y-106151041D03*
D11*
G36*
X164685758Y-105751526D02*
X164883748Y-105949516D01*
X164282708Y-106550556D01*
X164084718Y-106352566D01*
X164685758Y-105751526D01*
X164685758Y-105751526D01*
G37*
D24*
X164837786Y-106504594D03*
D11*
G36*
X165039311Y-106105079D02*
X165237301Y-106303069D01*
X164636261Y-106904109D01*
X164438271Y-106706119D01*
X165039311Y-106105079D01*
X165039311Y-106105079D01*
G37*
D24*
X165191340Y-106858148D03*
D11*
G36*
X165392865Y-106458633D02*
X165590855Y-106656623D01*
X164989815Y-107257663D01*
X164791825Y-107059673D01*
X165392865Y-106458633D01*
X165392865Y-106458633D01*
G37*
D24*
X165191340Y-107883452D03*
D11*
G36*
X165590855Y-108084977D02*
X165392865Y-108282967D01*
X164791825Y-107681927D01*
X164989815Y-107483937D01*
X165590855Y-108084977D01*
X165590855Y-108084977D01*
G37*
D24*
X164837786Y-108237006D03*
D11*
G36*
X165237301Y-108438531D02*
X165039311Y-108636521D01*
X164438271Y-108035481D01*
X164636261Y-107837491D01*
X165237301Y-108438531D01*
X165237301Y-108438531D01*
G37*
D24*
X164484233Y-108590559D03*
D11*
G36*
X164883748Y-108792084D02*
X164685758Y-108990074D01*
X164084718Y-108389034D01*
X164282708Y-108191044D01*
X164883748Y-108792084D01*
X164883748Y-108792084D01*
G37*
D24*
X164130680Y-108944113D03*
D11*
G36*
X164530195Y-109145638D02*
X164332205Y-109343628D01*
X163731165Y-108742588D01*
X163929155Y-108544598D01*
X164530195Y-109145638D01*
X164530195Y-109145638D01*
G37*
D24*
X163777126Y-109297666D03*
D11*
G36*
X164176641Y-109499191D02*
X163978651Y-109697181D01*
X163377611Y-109096141D01*
X163575601Y-108898151D01*
X164176641Y-109499191D01*
X164176641Y-109499191D01*
G37*
D24*
X163423573Y-109651219D03*
D11*
G36*
X163823088Y-109852744D02*
X163625098Y-110050734D01*
X163024058Y-109449694D01*
X163222048Y-109251704D01*
X163823088Y-109852744D01*
X163823088Y-109852744D01*
G37*
D24*
X163070019Y-110004773D03*
D11*
G36*
X163469534Y-110206298D02*
X163271544Y-110404288D01*
X162670504Y-109803248D01*
X162868494Y-109605258D01*
X163469534Y-110206298D01*
X163469534Y-110206298D01*
G37*
D24*
X162716466Y-110358326D03*
D11*
G36*
X163115981Y-110559851D02*
X162917991Y-110757841D01*
X162316951Y-110156801D01*
X162514941Y-109958811D01*
X163115981Y-110559851D01*
X163115981Y-110559851D01*
G37*
D24*
X162362913Y-110711880D03*
D11*
G36*
X162762428Y-110913405D02*
X162564438Y-111111395D01*
X161963398Y-110510355D01*
X162161388Y-110312365D01*
X162762428Y-110913405D01*
X162762428Y-110913405D01*
G37*
D24*
X162009359Y-111065433D03*
D11*
G36*
X162408874Y-111266958D02*
X162210884Y-111464948D01*
X161609844Y-110863908D01*
X161807834Y-110665918D01*
X162408874Y-111266958D01*
X162408874Y-111266958D01*
G37*
D24*
X161655806Y-111418986D03*
D11*
G36*
X162055321Y-111620511D02*
X161857331Y-111818501D01*
X161256291Y-111217461D01*
X161454281Y-111019471D01*
X162055321Y-111620511D01*
X162055321Y-111620511D01*
G37*
D24*
X161301545Y-111771833D03*
D11*
G36*
X161701060Y-111973358D02*
X161503070Y-112171348D01*
X160902030Y-111570308D01*
X161100020Y-111372318D01*
X161701060Y-111973358D01*
X161701060Y-111973358D01*
G37*
G04 #@! TD*
D25*
G04 #@! TO.C,U3*
X187225000Y-139740000D03*
X187225000Y-134660000D03*
D26*
X175650000Y-134425000D03*
X180500000Y-139975000D03*
X175650000Y-139975000D03*
X180500000Y-134425000D03*
G04 #@! TD*
D25*
G04 #@! TO.C,U5*
X187249999Y-119390000D03*
X187249999Y-114310000D03*
D26*
X175674999Y-114075000D03*
X180524999Y-119625000D03*
X175674999Y-119625000D03*
X180524999Y-114075000D03*
G04 #@! TD*
D25*
G04 #@! TO.C,U7*
X187275000Y-99040000D03*
X187275000Y-93960000D03*
D26*
X175700000Y-93725000D03*
X180550000Y-99275000D03*
X175700000Y-99275000D03*
X180550000Y-93725000D03*
G04 #@! TD*
M02*
