M48
;DRILL file {KiCad 4.0.7} date 10/18/18 17:01:29
;FORMAT={2:4/ absolute / inch / suppress leading zeros}
FMAT,2
INCH,TZ
T1C0.016
T2C0.039
T3C0.047
%
G90
G05
M72
T1
X58681Y-53661
X58799Y-55965
X59075Y-53661
X59429Y-53661
X59892Y-54085
X60295Y-44409
X60610Y-43297
X60626Y-53441
X60626Y-54043
X60640Y-54508
X60728Y-51220
X60728Y-52323
X60915Y-45000
X61028Y-53437
X61028Y-54043
X61339Y-51772
X61762Y-53819
X61801Y-42785
X61811Y-56929
X61850Y-48484
X62274Y-45010
X63504Y-48789
X63937Y-48169
X64370Y-43228
X64656Y-42116
X65089Y-41683
X65118Y-50778
X65472Y-44626
X65472Y-46339
X67323Y-50305
X67323Y-51132
X67421Y-48524
X67913Y-47776
X68150Y-43504
T2
X53016Y-55787
X54016Y-55787
X54520Y-53059
X55016Y-55787
X55520Y-53059
X59518Y-40472
X60518Y-40472
X61518Y-40472
X62518Y-40472
X63518Y-40472
X64518Y-40472
X68248Y-50591
X68248Y-51591
X68248Y-52591
X69248Y-50591
X69248Y-51591
X69248Y-52591
X69252Y-42352
X69252Y-43352
X69252Y-44352
X69252Y-45352
X69252Y-46352
X69252Y-47352
T3
X66329Y-40551
X69085Y-40551
T0
M30
