%TF.GenerationSoftware,KiCad,Pcbnew,4.0.7*%
%TF.CreationDate,2018-10-18T17:54:17-04:00*%
%TF.ProjectId,GCEW_Glove,474345575F476C6F76652E6B69636164,1*%
%TF.FileFunction,Copper,L2,Bot,Signal*%
%FSLAX46Y46*%
G04 Gerber Fmt 4.6, Leading zero omitted, Abs format (unit mm)*
G04 Created by KiCad (PCBNEW 4.0.7) date 10/18/18 17:54:17*
%MOMM*%
%LPD*%
G01*
G04 APERTURE LIST*
%ADD10C,0.100000*%
%ADD11R,2.000000X2.000000*%
%ADD12C,2.000000*%
%ADD13R,1.700000X1.700000*%
%ADD14O,1.700000X1.700000*%
%ADD15C,2.200000*%
%ADD16C,0.600000*%
%ADD17C,0.200000*%
%ADD18C,0.300000*%
%ADD19C,0.250000*%
%ADD20C,0.254000*%
G04 APERTURE END LIST*
D10*
D11*
X138480000Y-134770000D03*
D12*
X141020000Y-134770000D03*
D13*
X173350000Y-128500000D03*
D14*
X175890000Y-128500000D03*
X173350000Y-131040000D03*
X175890000Y-131040000D03*
X173350000Y-133580000D03*
X175890000Y-133580000D03*
D13*
X175900000Y-120275000D03*
D14*
X175900000Y-117735000D03*
X175900000Y-115195000D03*
X175900000Y-112655000D03*
X175900000Y-110115000D03*
X175900000Y-107575000D03*
D12*
X137200000Y-141700000D03*
X139740000Y-141700000D03*
X134660000Y-141700000D03*
D15*
X168475000Y-103000000D03*
X175475000Y-103000000D03*
D13*
X151175000Y-102800000D03*
D14*
X153715000Y-102800000D03*
X156255000Y-102800000D03*
X158795000Y-102800000D03*
X161335000Y-102800000D03*
X163875000Y-102800000D03*
D16*
X154025000Y-138450000D03*
X152125000Y-137375000D03*
X156875000Y-136700000D03*
X150050000Y-136300000D03*
X150950000Y-136300000D03*
X149050000Y-136300000D03*
X155010000Y-137270000D03*
X153990000Y-137270000D03*
X155010000Y-135730000D03*
X153990000Y-135740000D03*
X157100000Y-123150000D03*
X162400000Y-122350000D03*
X157000000Y-144600000D03*
X153150000Y-112800000D03*
X149350000Y-142150000D03*
X154250000Y-130100000D03*
X155800000Y-131500000D03*
X154250000Y-132900000D03*
X163500000Y-109800000D03*
X173100000Y-110500000D03*
X171250000Y-123250000D03*
X172500000Y-121350000D03*
X153950000Y-109975000D03*
X156975000Y-108675000D03*
X165325000Y-105875000D03*
X164225000Y-106975000D03*
X158175000Y-114325000D03*
X154725000Y-114300000D03*
X171000000Y-127775000D03*
X171000000Y-129875000D03*
X165400000Y-128975000D03*
X161300000Y-123925000D03*
X166300000Y-113350000D03*
X166300000Y-117700000D03*
D17*
X153200000Y-138450000D02*
X154025000Y-138450000D01*
X152125000Y-137375000D02*
X153200000Y-138450000D01*
D18*
X153950000Y-109975000D02*
X155250000Y-108675000D01*
X155250000Y-108675000D02*
X156975000Y-108675000D01*
D19*
X164225000Y-106975000D02*
X165325000Y-105875000D01*
X154750000Y-114325000D02*
X158175000Y-114325000D01*
X154725000Y-114300000D02*
X154750000Y-114325000D01*
X171000000Y-129875000D02*
X171000000Y-127775000D01*
X165400000Y-128025000D02*
X165400000Y-128975000D01*
X161300000Y-123925000D02*
X165400000Y-128025000D01*
X166300000Y-115825000D02*
X166300000Y-113350000D01*
X166300000Y-117700000D02*
X166300000Y-115825000D01*
D20*
G36*
X178473000Y-147473000D02*
X130527000Y-147473000D01*
X130527000Y-141962798D01*
X133332771Y-141962798D01*
X133534369Y-142450703D01*
X133907334Y-142824319D01*
X134394885Y-143026769D01*
X134922798Y-143027229D01*
X135410703Y-142825631D01*
X135784319Y-142452666D01*
X135930109Y-142101567D01*
X136074369Y-142450703D01*
X136447334Y-142824319D01*
X136934885Y-143026769D01*
X137462798Y-143027229D01*
X137950703Y-142825631D01*
X138324319Y-142452666D01*
X138470109Y-142101567D01*
X138614369Y-142450703D01*
X138987334Y-142824319D01*
X139474885Y-143026769D01*
X140002798Y-143027229D01*
X140490703Y-142825631D01*
X140864319Y-142452666D01*
X141066769Y-141965115D01*
X141067229Y-141437202D01*
X140865631Y-140949297D01*
X140492666Y-140575681D01*
X140005115Y-140373231D01*
X139477202Y-140372771D01*
X138989297Y-140574369D01*
X138615681Y-140947334D01*
X138469891Y-141298433D01*
X138325631Y-140949297D01*
X137952666Y-140575681D01*
X137465115Y-140373231D01*
X136937202Y-140372771D01*
X136449297Y-140574369D01*
X136075681Y-140947334D01*
X135929891Y-141298433D01*
X135785631Y-140949297D01*
X135412666Y-140575681D01*
X134925115Y-140373231D01*
X134397202Y-140372771D01*
X133909297Y-140574369D01*
X133535681Y-140947334D01*
X133333231Y-141434885D01*
X133332771Y-141962798D01*
X130527000Y-141962798D01*
X130527000Y-137499171D01*
X151497891Y-137499171D01*
X151593145Y-137729703D01*
X151769369Y-137906235D01*
X151999735Y-138001891D01*
X152148151Y-138002021D01*
X152898063Y-138751932D01*
X152898065Y-138751935D01*
X152977038Y-138804703D01*
X153036594Y-138844497D01*
X153200000Y-138877001D01*
X153200005Y-138877000D01*
X153565316Y-138877000D01*
X153669369Y-138981235D01*
X153899735Y-139076891D01*
X154149171Y-139077109D01*
X154379703Y-138981855D01*
X154556235Y-138805631D01*
X154651891Y-138575265D01*
X154652109Y-138325829D01*
X154556855Y-138095297D01*
X154380631Y-137918765D01*
X154150265Y-137823109D01*
X153900829Y-137822891D01*
X153670297Y-137918145D01*
X153565259Y-138023000D01*
X153376869Y-138023000D01*
X152751980Y-137398111D01*
X152752109Y-137250829D01*
X152656855Y-137020297D01*
X152480631Y-136843765D01*
X152250265Y-136748109D01*
X152000829Y-136747891D01*
X151770297Y-136843145D01*
X151593765Y-137019369D01*
X151498109Y-137249735D01*
X151497891Y-137499171D01*
X130527000Y-137499171D01*
X130527000Y-136129763D01*
X140367344Y-136129763D01*
X140489764Y-136350458D01*
X141134941Y-136433065D01*
X141550236Y-136350458D01*
X141672656Y-136129763D01*
X141020000Y-135477107D01*
X140367344Y-136129763D01*
X130527000Y-136129763D01*
X130527000Y-133770000D01*
X137146594Y-133770000D01*
X137146594Y-135770000D01*
X137169395Y-135891179D01*
X137241012Y-136002474D01*
X137350286Y-136077138D01*
X137480000Y-136103406D01*
X139480000Y-136103406D01*
X139601179Y-136080605D01*
X139712474Y-136008988D01*
X139787138Y-135899714D01*
X139813406Y-135770000D01*
X139813406Y-135269487D01*
X140312893Y-134770000D01*
X141727107Y-134770000D01*
X142379763Y-135422656D01*
X142600458Y-135300236D01*
X142683065Y-134655059D01*
X142600458Y-134239764D01*
X142379763Y-134117344D01*
X141727107Y-134770000D01*
X140312893Y-134770000D01*
X139813406Y-134270513D01*
X139813406Y-133770000D01*
X139790605Y-133648821D01*
X139718988Y-133537526D01*
X139609714Y-133462862D01*
X139480000Y-133436594D01*
X137480000Y-133436594D01*
X137358821Y-133459395D01*
X137247526Y-133531012D01*
X137172862Y-133640286D01*
X137146594Y-133770000D01*
X130527000Y-133770000D01*
X130527000Y-133410237D01*
X140367344Y-133410237D01*
X141020000Y-134062893D01*
X141502893Y-133580000D01*
X172149941Y-133580000D01*
X172239535Y-134030418D01*
X172494676Y-134412265D01*
X172876523Y-134667406D01*
X173326941Y-134757000D01*
X173373059Y-134757000D01*
X173823477Y-134667406D01*
X174205324Y-134412265D01*
X174421989Y-134088002D01*
X174602159Y-134088002D01*
X174551119Y-134222356D01*
X174784155Y-134571175D01*
X175247639Y-134918915D01*
X175465000Y-134844168D01*
X175465000Y-134005000D01*
X176315000Y-134005000D01*
X176315000Y-134844168D01*
X176532361Y-134918915D01*
X176995845Y-134571175D01*
X177228881Y-134222356D01*
X177146310Y-134005000D01*
X176315000Y-134005000D01*
X175465000Y-134005000D01*
X175362000Y-134005000D01*
X175362000Y-133155000D01*
X175465000Y-133155000D01*
X175465000Y-133052000D01*
X176315000Y-133052000D01*
X176315000Y-133155000D01*
X177146310Y-133155000D01*
X177228881Y-132937644D01*
X176995845Y-132588825D01*
X176532361Y-132241085D01*
X176398002Y-132287289D01*
X176398002Y-132104337D01*
X176745324Y-131872265D01*
X177000465Y-131490418D01*
X177090059Y-131040000D01*
X177000465Y-130589582D01*
X176745324Y-130207735D01*
X176363477Y-129952594D01*
X175913059Y-129863000D01*
X175866941Y-129863000D01*
X175416523Y-129952594D01*
X175034676Y-130207735D01*
X174779535Y-130589582D01*
X174689941Y-131040000D01*
X174779535Y-131490418D01*
X175034676Y-131872265D01*
X175381998Y-132104337D01*
X175381998Y-132287289D01*
X175247639Y-132241085D01*
X174784155Y-132588825D01*
X174551119Y-132937644D01*
X174602159Y-133071998D01*
X174421989Y-133071998D01*
X174205324Y-132747735D01*
X173823477Y-132492594D01*
X173373059Y-132403000D01*
X173326941Y-132403000D01*
X172876523Y-132492594D01*
X172494676Y-132747735D01*
X172239535Y-133129582D01*
X172149941Y-133580000D01*
X141502893Y-133580000D01*
X141672656Y-133410237D01*
X141550236Y-133189542D01*
X140905059Y-133106935D01*
X140489764Y-133189542D01*
X140367344Y-133410237D01*
X130527000Y-133410237D01*
X130527000Y-131040000D01*
X172149941Y-131040000D01*
X172239535Y-131490418D01*
X172494676Y-131872265D01*
X172876523Y-132127406D01*
X173326941Y-132217000D01*
X173373059Y-132217000D01*
X173823477Y-132127406D01*
X174205324Y-131872265D01*
X174460465Y-131490418D01*
X174550059Y-131040000D01*
X174460465Y-130589582D01*
X174205324Y-130207735D01*
X173823477Y-129952594D01*
X173373059Y-129863000D01*
X173326941Y-129863000D01*
X172876523Y-129952594D01*
X172494676Y-130207735D01*
X172239535Y-130589582D01*
X172149941Y-131040000D01*
X130527000Y-131040000D01*
X130527000Y-124049171D01*
X160672891Y-124049171D01*
X160768145Y-124279703D01*
X160944369Y-124456235D01*
X161174735Y-124551891D01*
X161287766Y-124551990D01*
X164948000Y-128212225D01*
X164948000Y-128540272D01*
X164868765Y-128619369D01*
X164773109Y-128849735D01*
X164772891Y-129099171D01*
X164868145Y-129329703D01*
X165044369Y-129506235D01*
X165274735Y-129601891D01*
X165524171Y-129602109D01*
X165754703Y-129506855D01*
X165931235Y-129330631D01*
X166026891Y-129100265D01*
X166027109Y-128850829D01*
X165931855Y-128620297D01*
X165852000Y-128540302D01*
X165852000Y-128025000D01*
X165826972Y-127899171D01*
X170372891Y-127899171D01*
X170468145Y-128129703D01*
X170548000Y-128209698D01*
X170548000Y-129440272D01*
X170468765Y-129519369D01*
X170373109Y-129749735D01*
X170372891Y-129999171D01*
X170468145Y-130229703D01*
X170644369Y-130406235D01*
X170874735Y-130501891D01*
X171124171Y-130502109D01*
X171354703Y-130406855D01*
X171531235Y-130230631D01*
X171626891Y-130000265D01*
X171627109Y-129750829D01*
X171531855Y-129520297D01*
X171452000Y-129440302D01*
X171452000Y-128209728D01*
X171531235Y-128130631D01*
X171626891Y-127900265D01*
X171627109Y-127650829D01*
X171626767Y-127650000D01*
X172166594Y-127650000D01*
X172166594Y-129350000D01*
X172189395Y-129471179D01*
X172261012Y-129582474D01*
X172370286Y-129657138D01*
X172500000Y-129683406D01*
X174200000Y-129683406D01*
X174321179Y-129660605D01*
X174432474Y-129588988D01*
X174507138Y-129479714D01*
X174533406Y-129350000D01*
X174533406Y-128500000D01*
X174689941Y-128500000D01*
X174779535Y-128950418D01*
X175034676Y-129332265D01*
X175416523Y-129587406D01*
X175866941Y-129677000D01*
X175913059Y-129677000D01*
X176363477Y-129587406D01*
X176745324Y-129332265D01*
X177000465Y-128950418D01*
X177090059Y-128500000D01*
X177000465Y-128049582D01*
X176745324Y-127667735D01*
X176363477Y-127412594D01*
X175913059Y-127323000D01*
X175866941Y-127323000D01*
X175416523Y-127412594D01*
X175034676Y-127667735D01*
X174779535Y-128049582D01*
X174689941Y-128500000D01*
X174533406Y-128500000D01*
X174533406Y-127650000D01*
X174510605Y-127528821D01*
X174438988Y-127417526D01*
X174329714Y-127342862D01*
X174200000Y-127316594D01*
X172500000Y-127316594D01*
X172378821Y-127339395D01*
X172267526Y-127411012D01*
X172192862Y-127520286D01*
X172166594Y-127650000D01*
X171626767Y-127650000D01*
X171531855Y-127420297D01*
X171355631Y-127243765D01*
X171125265Y-127148109D01*
X170875829Y-127147891D01*
X170645297Y-127243145D01*
X170468765Y-127419369D01*
X170373109Y-127649735D01*
X170372891Y-127899171D01*
X165826972Y-127899171D01*
X165817594Y-127852027D01*
X165766126Y-127775000D01*
X165719613Y-127705388D01*
X161927011Y-123912787D01*
X161927109Y-123800829D01*
X161831855Y-123570297D01*
X161655631Y-123393765D01*
X161425265Y-123298109D01*
X161175829Y-123297891D01*
X160945297Y-123393145D01*
X160768765Y-123569369D01*
X160673109Y-123799735D01*
X160672891Y-124049171D01*
X130527000Y-124049171D01*
X130527000Y-119425000D01*
X174716594Y-119425000D01*
X174716594Y-121125000D01*
X174739395Y-121246179D01*
X174811012Y-121357474D01*
X174920286Y-121432138D01*
X175050000Y-121458406D01*
X176750000Y-121458406D01*
X176871179Y-121435605D01*
X176982474Y-121363988D01*
X177057138Y-121254714D01*
X177083406Y-121125000D01*
X177083406Y-119425000D01*
X177060605Y-119303821D01*
X176988988Y-119192526D01*
X176879714Y-119117862D01*
X176750000Y-119091594D01*
X175050000Y-119091594D01*
X174928821Y-119114395D01*
X174817526Y-119186012D01*
X174742862Y-119295286D01*
X174716594Y-119425000D01*
X130527000Y-119425000D01*
X130527000Y-114424171D01*
X154097891Y-114424171D01*
X154193145Y-114654703D01*
X154369369Y-114831235D01*
X154599735Y-114926891D01*
X154849171Y-114927109D01*
X155079703Y-114831855D01*
X155134654Y-114777000D01*
X157740272Y-114777000D01*
X157819369Y-114856235D01*
X158049735Y-114951891D01*
X158299171Y-114952109D01*
X158529703Y-114856855D01*
X158706235Y-114680631D01*
X158801891Y-114450265D01*
X158802109Y-114200829D01*
X158706855Y-113970297D01*
X158530631Y-113793765D01*
X158300265Y-113698109D01*
X158050829Y-113697891D01*
X157820297Y-113793145D01*
X157740302Y-113873000D01*
X155184684Y-113873000D01*
X155080631Y-113768765D01*
X154850265Y-113673109D01*
X154600829Y-113672891D01*
X154370297Y-113768145D01*
X154193765Y-113944369D01*
X154098109Y-114174735D01*
X154097891Y-114424171D01*
X130527000Y-114424171D01*
X130527000Y-113474171D01*
X165672891Y-113474171D01*
X165768145Y-113704703D01*
X165848000Y-113784698D01*
X165848000Y-117265272D01*
X165768765Y-117344369D01*
X165673109Y-117574735D01*
X165672891Y-117824171D01*
X165768145Y-118054703D01*
X165944369Y-118231235D01*
X166174735Y-118326891D01*
X166424171Y-118327109D01*
X166654703Y-118231855D01*
X166831235Y-118055631D01*
X166926891Y-117825265D01*
X166926969Y-117735000D01*
X174699941Y-117735000D01*
X174789535Y-118185418D01*
X175044676Y-118567265D01*
X175426523Y-118822406D01*
X175876941Y-118912000D01*
X175923059Y-118912000D01*
X176373477Y-118822406D01*
X176755324Y-118567265D01*
X177010465Y-118185418D01*
X177100059Y-117735000D01*
X177010465Y-117284582D01*
X176755324Y-116902735D01*
X176373477Y-116647594D01*
X175923059Y-116558000D01*
X175876941Y-116558000D01*
X175426523Y-116647594D01*
X175044676Y-116902735D01*
X174789535Y-117284582D01*
X174699941Y-117735000D01*
X166926969Y-117735000D01*
X166927109Y-117575829D01*
X166831855Y-117345297D01*
X166752000Y-117265302D01*
X166752000Y-115195000D01*
X174699941Y-115195000D01*
X174789535Y-115645418D01*
X175044676Y-116027265D01*
X175426523Y-116282406D01*
X175876941Y-116372000D01*
X175923059Y-116372000D01*
X176373477Y-116282406D01*
X176755324Y-116027265D01*
X177010465Y-115645418D01*
X177100059Y-115195000D01*
X177010465Y-114744582D01*
X176755324Y-114362735D01*
X176373477Y-114107594D01*
X175923059Y-114018000D01*
X175876941Y-114018000D01*
X175426523Y-114107594D01*
X175044676Y-114362735D01*
X174789535Y-114744582D01*
X174699941Y-115195000D01*
X166752000Y-115195000D01*
X166752000Y-113784728D01*
X166831235Y-113705631D01*
X166926891Y-113475265D01*
X166927109Y-113225829D01*
X166831855Y-112995297D01*
X166655631Y-112818765D01*
X166425265Y-112723109D01*
X166175829Y-112722891D01*
X165945297Y-112818145D01*
X165768765Y-112994369D01*
X165673109Y-113224735D01*
X165672891Y-113474171D01*
X130527000Y-113474171D01*
X130527000Y-112655000D01*
X174699941Y-112655000D01*
X174789535Y-113105418D01*
X175044676Y-113487265D01*
X175426523Y-113742406D01*
X175876941Y-113832000D01*
X175923059Y-113832000D01*
X176373477Y-113742406D01*
X176755324Y-113487265D01*
X177010465Y-113105418D01*
X177100059Y-112655000D01*
X177010465Y-112204582D01*
X176755324Y-111822735D01*
X176373477Y-111567594D01*
X175923059Y-111478000D01*
X175876941Y-111478000D01*
X175426523Y-111567594D01*
X175044676Y-111822735D01*
X174789535Y-112204582D01*
X174699941Y-112655000D01*
X130527000Y-112655000D01*
X130527000Y-110099171D01*
X153322891Y-110099171D01*
X153418145Y-110329703D01*
X153594369Y-110506235D01*
X153824735Y-110601891D01*
X154074171Y-110602109D01*
X154304703Y-110506855D01*
X154481235Y-110330631D01*
X154570772Y-110115000D01*
X174699941Y-110115000D01*
X174789535Y-110565418D01*
X175044676Y-110947265D01*
X175426523Y-111202406D01*
X175876941Y-111292000D01*
X175923059Y-111292000D01*
X176373477Y-111202406D01*
X176755324Y-110947265D01*
X177010465Y-110565418D01*
X177100059Y-110115000D01*
X177010465Y-109664582D01*
X176755324Y-109282735D01*
X176373477Y-109027594D01*
X175923059Y-108938000D01*
X175876941Y-108938000D01*
X175426523Y-109027594D01*
X175044676Y-109282735D01*
X174789535Y-109664582D01*
X174699941Y-110115000D01*
X154570772Y-110115000D01*
X154576891Y-110100265D01*
X154576959Y-110022621D01*
X155447580Y-109152000D01*
X156565229Y-109152000D01*
X156619369Y-109206235D01*
X156849735Y-109301891D01*
X157099171Y-109302109D01*
X157329703Y-109206855D01*
X157506235Y-109030631D01*
X157601891Y-108800265D01*
X157602109Y-108550829D01*
X157506855Y-108320297D01*
X157330631Y-108143765D01*
X157100265Y-108048109D01*
X156850829Y-108047891D01*
X156620297Y-108143145D01*
X156565346Y-108198000D01*
X155250000Y-108198000D01*
X155067460Y-108234309D01*
X154912710Y-108337710D01*
X153902462Y-109347958D01*
X153825829Y-109347891D01*
X153595297Y-109443145D01*
X153418765Y-109619369D01*
X153323109Y-109849735D01*
X153322891Y-110099171D01*
X130527000Y-110099171D01*
X130527000Y-107099171D01*
X163597891Y-107099171D01*
X163693145Y-107329703D01*
X163869369Y-107506235D01*
X164099735Y-107601891D01*
X164349171Y-107602109D01*
X164414779Y-107575000D01*
X174699941Y-107575000D01*
X174789535Y-108025418D01*
X175044676Y-108407265D01*
X175426523Y-108662406D01*
X175876941Y-108752000D01*
X175923059Y-108752000D01*
X176373477Y-108662406D01*
X176755324Y-108407265D01*
X177010465Y-108025418D01*
X177100059Y-107575000D01*
X177010465Y-107124582D01*
X176755324Y-106742735D01*
X176373477Y-106487594D01*
X175923059Y-106398000D01*
X175876941Y-106398000D01*
X175426523Y-106487594D01*
X175044676Y-106742735D01*
X174789535Y-107124582D01*
X174699941Y-107575000D01*
X164414779Y-107575000D01*
X164579703Y-107506855D01*
X164756235Y-107330631D01*
X164851891Y-107100265D01*
X164851990Y-106987234D01*
X165337213Y-106502011D01*
X165449171Y-106502109D01*
X165679703Y-106406855D01*
X165856235Y-106230631D01*
X165951891Y-106000265D01*
X165952109Y-105750829D01*
X165856855Y-105520297D01*
X165680631Y-105343765D01*
X165450265Y-105248109D01*
X165200829Y-105247891D01*
X164970297Y-105343145D01*
X164793765Y-105519369D01*
X164698109Y-105749735D01*
X164698010Y-105862766D01*
X164212787Y-106347989D01*
X164100829Y-106347891D01*
X163870297Y-106443145D01*
X163693765Y-106619369D01*
X163598109Y-106849735D01*
X163597891Y-107099171D01*
X130527000Y-107099171D01*
X130527000Y-104439676D01*
X174753745Y-104439676D01*
X174889990Y-104669459D01*
X175573395Y-104766252D01*
X176060010Y-104669459D01*
X176196255Y-104439676D01*
X175475000Y-103718420D01*
X174753745Y-104439676D01*
X130527000Y-104439676D01*
X130527000Y-101950000D01*
X149991594Y-101950000D01*
X149991594Y-103650000D01*
X150014395Y-103771179D01*
X150086012Y-103882474D01*
X150195286Y-103957138D01*
X150325000Y-103983406D01*
X152025000Y-103983406D01*
X152146179Y-103960605D01*
X152257474Y-103888988D01*
X152332138Y-103779714D01*
X152358406Y-103650000D01*
X152358406Y-102776941D01*
X152538000Y-102776941D01*
X152538000Y-102823059D01*
X152627594Y-103273477D01*
X152882735Y-103655324D01*
X153264582Y-103910465D01*
X153715000Y-104000059D01*
X154165418Y-103910465D01*
X154547265Y-103655324D01*
X154802406Y-103273477D01*
X154892000Y-102823059D01*
X154892000Y-102776941D01*
X155078000Y-102776941D01*
X155078000Y-102823059D01*
X155167594Y-103273477D01*
X155422735Y-103655324D01*
X155804582Y-103910465D01*
X156255000Y-104000059D01*
X156705418Y-103910465D01*
X157087265Y-103655324D01*
X157319337Y-103308002D01*
X157502289Y-103308002D01*
X157456085Y-103442361D01*
X157803825Y-103905845D01*
X158152644Y-104138881D01*
X158370000Y-104056310D01*
X158370000Y-103225000D01*
X158267000Y-103225000D01*
X158267000Y-102375000D01*
X158370000Y-102375000D01*
X158370000Y-101543690D01*
X159220000Y-101543690D01*
X159220000Y-102375000D01*
X159323000Y-102375000D01*
X159323000Y-103225000D01*
X159220000Y-103225000D01*
X159220000Y-104056310D01*
X159437356Y-104138881D01*
X159786175Y-103905845D01*
X160133915Y-103442361D01*
X160087711Y-103308002D01*
X160270663Y-103308002D01*
X160502735Y-103655324D01*
X160884582Y-103910465D01*
X161335000Y-104000059D01*
X161785418Y-103910465D01*
X162167265Y-103655324D01*
X162422406Y-103273477D01*
X162512000Y-102823059D01*
X162512000Y-102776941D01*
X162698000Y-102776941D01*
X162698000Y-102823059D01*
X162787594Y-103273477D01*
X163042735Y-103655324D01*
X163424582Y-103910465D01*
X163875000Y-104000059D01*
X164325418Y-103910465D01*
X164707265Y-103655324D01*
X164956308Y-103282603D01*
X167047752Y-103282603D01*
X167264543Y-103807275D01*
X167665614Y-104209047D01*
X168189907Y-104426752D01*
X168757603Y-104427248D01*
X169282275Y-104210457D01*
X169684047Y-103809386D01*
X169901752Y-103285093D01*
X169901915Y-103098395D01*
X173708748Y-103098395D01*
X173805541Y-103585010D01*
X174035324Y-103721255D01*
X174756580Y-103000000D01*
X176193420Y-103000000D01*
X176914676Y-103721255D01*
X177144459Y-103585010D01*
X177241252Y-102901605D01*
X177144459Y-102414990D01*
X176914676Y-102278745D01*
X176193420Y-103000000D01*
X174756580Y-103000000D01*
X174035324Y-102278745D01*
X173805541Y-102414990D01*
X173708748Y-103098395D01*
X169901915Y-103098395D01*
X169902248Y-102717397D01*
X169685457Y-102192725D01*
X169284386Y-101790953D01*
X168760093Y-101573248D01*
X168192397Y-101572752D01*
X167667725Y-101789543D01*
X167265953Y-102190614D01*
X167048248Y-102714907D01*
X167047752Y-103282603D01*
X164956308Y-103282603D01*
X164962406Y-103273477D01*
X165052000Y-102823059D01*
X165052000Y-102776941D01*
X164962406Y-102326523D01*
X164707265Y-101944676D01*
X164325418Y-101689535D01*
X163875000Y-101599941D01*
X163424582Y-101689535D01*
X163042735Y-101944676D01*
X162787594Y-102326523D01*
X162698000Y-102776941D01*
X162512000Y-102776941D01*
X162422406Y-102326523D01*
X162167265Y-101944676D01*
X161785418Y-101689535D01*
X161335000Y-101599941D01*
X160884582Y-101689535D01*
X160502735Y-101944676D01*
X160270663Y-102291998D01*
X160087711Y-102291998D01*
X160133915Y-102157639D01*
X159786175Y-101694155D01*
X159585851Y-101560324D01*
X174753745Y-101560324D01*
X175475000Y-102281580D01*
X176196255Y-101560324D01*
X176060010Y-101330541D01*
X175376605Y-101233748D01*
X174889990Y-101330541D01*
X174753745Y-101560324D01*
X159585851Y-101560324D01*
X159437356Y-101461119D01*
X159220000Y-101543690D01*
X158370000Y-101543690D01*
X158152644Y-101461119D01*
X157803825Y-101694155D01*
X157456085Y-102157639D01*
X157502289Y-102291998D01*
X157319337Y-102291998D01*
X157087265Y-101944676D01*
X156705418Y-101689535D01*
X156255000Y-101599941D01*
X155804582Y-101689535D01*
X155422735Y-101944676D01*
X155167594Y-102326523D01*
X155078000Y-102776941D01*
X154892000Y-102776941D01*
X154802406Y-102326523D01*
X154547265Y-101944676D01*
X154165418Y-101689535D01*
X153715000Y-101599941D01*
X153264582Y-101689535D01*
X152882735Y-101944676D01*
X152627594Y-102326523D01*
X152538000Y-102776941D01*
X152358406Y-102776941D01*
X152358406Y-101950000D01*
X152335605Y-101828821D01*
X152263988Y-101717526D01*
X152154714Y-101642862D01*
X152025000Y-101616594D01*
X150325000Y-101616594D01*
X150203821Y-101639395D01*
X150092526Y-101711012D01*
X150017862Y-101820286D01*
X149991594Y-101950000D01*
X130527000Y-101950000D01*
X130527000Y-100527000D01*
X178473000Y-100527000D01*
X178473000Y-147473000D01*
X178473000Y-147473000D01*
G37*
X178473000Y-147473000D02*
X130527000Y-147473000D01*
X130527000Y-141962798D01*
X133332771Y-141962798D01*
X133534369Y-142450703D01*
X133907334Y-142824319D01*
X134394885Y-143026769D01*
X134922798Y-143027229D01*
X135410703Y-142825631D01*
X135784319Y-142452666D01*
X135930109Y-142101567D01*
X136074369Y-142450703D01*
X136447334Y-142824319D01*
X136934885Y-143026769D01*
X137462798Y-143027229D01*
X137950703Y-142825631D01*
X138324319Y-142452666D01*
X138470109Y-142101567D01*
X138614369Y-142450703D01*
X138987334Y-142824319D01*
X139474885Y-143026769D01*
X140002798Y-143027229D01*
X140490703Y-142825631D01*
X140864319Y-142452666D01*
X141066769Y-141965115D01*
X141067229Y-141437202D01*
X140865631Y-140949297D01*
X140492666Y-140575681D01*
X140005115Y-140373231D01*
X139477202Y-140372771D01*
X138989297Y-140574369D01*
X138615681Y-140947334D01*
X138469891Y-141298433D01*
X138325631Y-140949297D01*
X137952666Y-140575681D01*
X137465115Y-140373231D01*
X136937202Y-140372771D01*
X136449297Y-140574369D01*
X136075681Y-140947334D01*
X135929891Y-141298433D01*
X135785631Y-140949297D01*
X135412666Y-140575681D01*
X134925115Y-140373231D01*
X134397202Y-140372771D01*
X133909297Y-140574369D01*
X133535681Y-140947334D01*
X133333231Y-141434885D01*
X133332771Y-141962798D01*
X130527000Y-141962798D01*
X130527000Y-137499171D01*
X151497891Y-137499171D01*
X151593145Y-137729703D01*
X151769369Y-137906235D01*
X151999735Y-138001891D01*
X152148151Y-138002021D01*
X152898063Y-138751932D01*
X152898065Y-138751935D01*
X152977038Y-138804703D01*
X153036594Y-138844497D01*
X153200000Y-138877001D01*
X153200005Y-138877000D01*
X153565316Y-138877000D01*
X153669369Y-138981235D01*
X153899735Y-139076891D01*
X154149171Y-139077109D01*
X154379703Y-138981855D01*
X154556235Y-138805631D01*
X154651891Y-138575265D01*
X154652109Y-138325829D01*
X154556855Y-138095297D01*
X154380631Y-137918765D01*
X154150265Y-137823109D01*
X153900829Y-137822891D01*
X153670297Y-137918145D01*
X153565259Y-138023000D01*
X153376869Y-138023000D01*
X152751980Y-137398111D01*
X152752109Y-137250829D01*
X152656855Y-137020297D01*
X152480631Y-136843765D01*
X152250265Y-136748109D01*
X152000829Y-136747891D01*
X151770297Y-136843145D01*
X151593765Y-137019369D01*
X151498109Y-137249735D01*
X151497891Y-137499171D01*
X130527000Y-137499171D01*
X130527000Y-136129763D01*
X140367344Y-136129763D01*
X140489764Y-136350458D01*
X141134941Y-136433065D01*
X141550236Y-136350458D01*
X141672656Y-136129763D01*
X141020000Y-135477107D01*
X140367344Y-136129763D01*
X130527000Y-136129763D01*
X130527000Y-133770000D01*
X137146594Y-133770000D01*
X137146594Y-135770000D01*
X137169395Y-135891179D01*
X137241012Y-136002474D01*
X137350286Y-136077138D01*
X137480000Y-136103406D01*
X139480000Y-136103406D01*
X139601179Y-136080605D01*
X139712474Y-136008988D01*
X139787138Y-135899714D01*
X139813406Y-135770000D01*
X139813406Y-135269487D01*
X140312893Y-134770000D01*
X141727107Y-134770000D01*
X142379763Y-135422656D01*
X142600458Y-135300236D01*
X142683065Y-134655059D01*
X142600458Y-134239764D01*
X142379763Y-134117344D01*
X141727107Y-134770000D01*
X140312893Y-134770000D01*
X139813406Y-134270513D01*
X139813406Y-133770000D01*
X139790605Y-133648821D01*
X139718988Y-133537526D01*
X139609714Y-133462862D01*
X139480000Y-133436594D01*
X137480000Y-133436594D01*
X137358821Y-133459395D01*
X137247526Y-133531012D01*
X137172862Y-133640286D01*
X137146594Y-133770000D01*
X130527000Y-133770000D01*
X130527000Y-133410237D01*
X140367344Y-133410237D01*
X141020000Y-134062893D01*
X141502893Y-133580000D01*
X172149941Y-133580000D01*
X172239535Y-134030418D01*
X172494676Y-134412265D01*
X172876523Y-134667406D01*
X173326941Y-134757000D01*
X173373059Y-134757000D01*
X173823477Y-134667406D01*
X174205324Y-134412265D01*
X174421989Y-134088002D01*
X174602159Y-134088002D01*
X174551119Y-134222356D01*
X174784155Y-134571175D01*
X175247639Y-134918915D01*
X175465000Y-134844168D01*
X175465000Y-134005000D01*
X176315000Y-134005000D01*
X176315000Y-134844168D01*
X176532361Y-134918915D01*
X176995845Y-134571175D01*
X177228881Y-134222356D01*
X177146310Y-134005000D01*
X176315000Y-134005000D01*
X175465000Y-134005000D01*
X175362000Y-134005000D01*
X175362000Y-133155000D01*
X175465000Y-133155000D01*
X175465000Y-133052000D01*
X176315000Y-133052000D01*
X176315000Y-133155000D01*
X177146310Y-133155000D01*
X177228881Y-132937644D01*
X176995845Y-132588825D01*
X176532361Y-132241085D01*
X176398002Y-132287289D01*
X176398002Y-132104337D01*
X176745324Y-131872265D01*
X177000465Y-131490418D01*
X177090059Y-131040000D01*
X177000465Y-130589582D01*
X176745324Y-130207735D01*
X176363477Y-129952594D01*
X175913059Y-129863000D01*
X175866941Y-129863000D01*
X175416523Y-129952594D01*
X175034676Y-130207735D01*
X174779535Y-130589582D01*
X174689941Y-131040000D01*
X174779535Y-131490418D01*
X175034676Y-131872265D01*
X175381998Y-132104337D01*
X175381998Y-132287289D01*
X175247639Y-132241085D01*
X174784155Y-132588825D01*
X174551119Y-132937644D01*
X174602159Y-133071998D01*
X174421989Y-133071998D01*
X174205324Y-132747735D01*
X173823477Y-132492594D01*
X173373059Y-132403000D01*
X173326941Y-132403000D01*
X172876523Y-132492594D01*
X172494676Y-132747735D01*
X172239535Y-133129582D01*
X172149941Y-133580000D01*
X141502893Y-133580000D01*
X141672656Y-133410237D01*
X141550236Y-133189542D01*
X140905059Y-133106935D01*
X140489764Y-133189542D01*
X140367344Y-133410237D01*
X130527000Y-133410237D01*
X130527000Y-131040000D01*
X172149941Y-131040000D01*
X172239535Y-131490418D01*
X172494676Y-131872265D01*
X172876523Y-132127406D01*
X173326941Y-132217000D01*
X173373059Y-132217000D01*
X173823477Y-132127406D01*
X174205324Y-131872265D01*
X174460465Y-131490418D01*
X174550059Y-131040000D01*
X174460465Y-130589582D01*
X174205324Y-130207735D01*
X173823477Y-129952594D01*
X173373059Y-129863000D01*
X173326941Y-129863000D01*
X172876523Y-129952594D01*
X172494676Y-130207735D01*
X172239535Y-130589582D01*
X172149941Y-131040000D01*
X130527000Y-131040000D01*
X130527000Y-124049171D01*
X160672891Y-124049171D01*
X160768145Y-124279703D01*
X160944369Y-124456235D01*
X161174735Y-124551891D01*
X161287766Y-124551990D01*
X164948000Y-128212225D01*
X164948000Y-128540272D01*
X164868765Y-128619369D01*
X164773109Y-128849735D01*
X164772891Y-129099171D01*
X164868145Y-129329703D01*
X165044369Y-129506235D01*
X165274735Y-129601891D01*
X165524171Y-129602109D01*
X165754703Y-129506855D01*
X165931235Y-129330631D01*
X166026891Y-129100265D01*
X166027109Y-128850829D01*
X165931855Y-128620297D01*
X165852000Y-128540302D01*
X165852000Y-128025000D01*
X165826972Y-127899171D01*
X170372891Y-127899171D01*
X170468145Y-128129703D01*
X170548000Y-128209698D01*
X170548000Y-129440272D01*
X170468765Y-129519369D01*
X170373109Y-129749735D01*
X170372891Y-129999171D01*
X170468145Y-130229703D01*
X170644369Y-130406235D01*
X170874735Y-130501891D01*
X171124171Y-130502109D01*
X171354703Y-130406855D01*
X171531235Y-130230631D01*
X171626891Y-130000265D01*
X171627109Y-129750829D01*
X171531855Y-129520297D01*
X171452000Y-129440302D01*
X171452000Y-128209728D01*
X171531235Y-128130631D01*
X171626891Y-127900265D01*
X171627109Y-127650829D01*
X171626767Y-127650000D01*
X172166594Y-127650000D01*
X172166594Y-129350000D01*
X172189395Y-129471179D01*
X172261012Y-129582474D01*
X172370286Y-129657138D01*
X172500000Y-129683406D01*
X174200000Y-129683406D01*
X174321179Y-129660605D01*
X174432474Y-129588988D01*
X174507138Y-129479714D01*
X174533406Y-129350000D01*
X174533406Y-128500000D01*
X174689941Y-128500000D01*
X174779535Y-128950418D01*
X175034676Y-129332265D01*
X175416523Y-129587406D01*
X175866941Y-129677000D01*
X175913059Y-129677000D01*
X176363477Y-129587406D01*
X176745324Y-129332265D01*
X177000465Y-128950418D01*
X177090059Y-128500000D01*
X177000465Y-128049582D01*
X176745324Y-127667735D01*
X176363477Y-127412594D01*
X175913059Y-127323000D01*
X175866941Y-127323000D01*
X175416523Y-127412594D01*
X175034676Y-127667735D01*
X174779535Y-128049582D01*
X174689941Y-128500000D01*
X174533406Y-128500000D01*
X174533406Y-127650000D01*
X174510605Y-127528821D01*
X174438988Y-127417526D01*
X174329714Y-127342862D01*
X174200000Y-127316594D01*
X172500000Y-127316594D01*
X172378821Y-127339395D01*
X172267526Y-127411012D01*
X172192862Y-127520286D01*
X172166594Y-127650000D01*
X171626767Y-127650000D01*
X171531855Y-127420297D01*
X171355631Y-127243765D01*
X171125265Y-127148109D01*
X170875829Y-127147891D01*
X170645297Y-127243145D01*
X170468765Y-127419369D01*
X170373109Y-127649735D01*
X170372891Y-127899171D01*
X165826972Y-127899171D01*
X165817594Y-127852027D01*
X165766126Y-127775000D01*
X165719613Y-127705388D01*
X161927011Y-123912787D01*
X161927109Y-123800829D01*
X161831855Y-123570297D01*
X161655631Y-123393765D01*
X161425265Y-123298109D01*
X161175829Y-123297891D01*
X160945297Y-123393145D01*
X160768765Y-123569369D01*
X160673109Y-123799735D01*
X160672891Y-124049171D01*
X130527000Y-124049171D01*
X130527000Y-119425000D01*
X174716594Y-119425000D01*
X174716594Y-121125000D01*
X174739395Y-121246179D01*
X174811012Y-121357474D01*
X174920286Y-121432138D01*
X175050000Y-121458406D01*
X176750000Y-121458406D01*
X176871179Y-121435605D01*
X176982474Y-121363988D01*
X177057138Y-121254714D01*
X177083406Y-121125000D01*
X177083406Y-119425000D01*
X177060605Y-119303821D01*
X176988988Y-119192526D01*
X176879714Y-119117862D01*
X176750000Y-119091594D01*
X175050000Y-119091594D01*
X174928821Y-119114395D01*
X174817526Y-119186012D01*
X174742862Y-119295286D01*
X174716594Y-119425000D01*
X130527000Y-119425000D01*
X130527000Y-114424171D01*
X154097891Y-114424171D01*
X154193145Y-114654703D01*
X154369369Y-114831235D01*
X154599735Y-114926891D01*
X154849171Y-114927109D01*
X155079703Y-114831855D01*
X155134654Y-114777000D01*
X157740272Y-114777000D01*
X157819369Y-114856235D01*
X158049735Y-114951891D01*
X158299171Y-114952109D01*
X158529703Y-114856855D01*
X158706235Y-114680631D01*
X158801891Y-114450265D01*
X158802109Y-114200829D01*
X158706855Y-113970297D01*
X158530631Y-113793765D01*
X158300265Y-113698109D01*
X158050829Y-113697891D01*
X157820297Y-113793145D01*
X157740302Y-113873000D01*
X155184684Y-113873000D01*
X155080631Y-113768765D01*
X154850265Y-113673109D01*
X154600829Y-113672891D01*
X154370297Y-113768145D01*
X154193765Y-113944369D01*
X154098109Y-114174735D01*
X154097891Y-114424171D01*
X130527000Y-114424171D01*
X130527000Y-113474171D01*
X165672891Y-113474171D01*
X165768145Y-113704703D01*
X165848000Y-113784698D01*
X165848000Y-117265272D01*
X165768765Y-117344369D01*
X165673109Y-117574735D01*
X165672891Y-117824171D01*
X165768145Y-118054703D01*
X165944369Y-118231235D01*
X166174735Y-118326891D01*
X166424171Y-118327109D01*
X166654703Y-118231855D01*
X166831235Y-118055631D01*
X166926891Y-117825265D01*
X166926969Y-117735000D01*
X174699941Y-117735000D01*
X174789535Y-118185418D01*
X175044676Y-118567265D01*
X175426523Y-118822406D01*
X175876941Y-118912000D01*
X175923059Y-118912000D01*
X176373477Y-118822406D01*
X176755324Y-118567265D01*
X177010465Y-118185418D01*
X177100059Y-117735000D01*
X177010465Y-117284582D01*
X176755324Y-116902735D01*
X176373477Y-116647594D01*
X175923059Y-116558000D01*
X175876941Y-116558000D01*
X175426523Y-116647594D01*
X175044676Y-116902735D01*
X174789535Y-117284582D01*
X174699941Y-117735000D01*
X166926969Y-117735000D01*
X166927109Y-117575829D01*
X166831855Y-117345297D01*
X166752000Y-117265302D01*
X166752000Y-115195000D01*
X174699941Y-115195000D01*
X174789535Y-115645418D01*
X175044676Y-116027265D01*
X175426523Y-116282406D01*
X175876941Y-116372000D01*
X175923059Y-116372000D01*
X176373477Y-116282406D01*
X176755324Y-116027265D01*
X177010465Y-115645418D01*
X177100059Y-115195000D01*
X177010465Y-114744582D01*
X176755324Y-114362735D01*
X176373477Y-114107594D01*
X175923059Y-114018000D01*
X175876941Y-114018000D01*
X175426523Y-114107594D01*
X175044676Y-114362735D01*
X174789535Y-114744582D01*
X174699941Y-115195000D01*
X166752000Y-115195000D01*
X166752000Y-113784728D01*
X166831235Y-113705631D01*
X166926891Y-113475265D01*
X166927109Y-113225829D01*
X166831855Y-112995297D01*
X166655631Y-112818765D01*
X166425265Y-112723109D01*
X166175829Y-112722891D01*
X165945297Y-112818145D01*
X165768765Y-112994369D01*
X165673109Y-113224735D01*
X165672891Y-113474171D01*
X130527000Y-113474171D01*
X130527000Y-112655000D01*
X174699941Y-112655000D01*
X174789535Y-113105418D01*
X175044676Y-113487265D01*
X175426523Y-113742406D01*
X175876941Y-113832000D01*
X175923059Y-113832000D01*
X176373477Y-113742406D01*
X176755324Y-113487265D01*
X177010465Y-113105418D01*
X177100059Y-112655000D01*
X177010465Y-112204582D01*
X176755324Y-111822735D01*
X176373477Y-111567594D01*
X175923059Y-111478000D01*
X175876941Y-111478000D01*
X175426523Y-111567594D01*
X175044676Y-111822735D01*
X174789535Y-112204582D01*
X174699941Y-112655000D01*
X130527000Y-112655000D01*
X130527000Y-110099171D01*
X153322891Y-110099171D01*
X153418145Y-110329703D01*
X153594369Y-110506235D01*
X153824735Y-110601891D01*
X154074171Y-110602109D01*
X154304703Y-110506855D01*
X154481235Y-110330631D01*
X154570772Y-110115000D01*
X174699941Y-110115000D01*
X174789535Y-110565418D01*
X175044676Y-110947265D01*
X175426523Y-111202406D01*
X175876941Y-111292000D01*
X175923059Y-111292000D01*
X176373477Y-111202406D01*
X176755324Y-110947265D01*
X177010465Y-110565418D01*
X177100059Y-110115000D01*
X177010465Y-109664582D01*
X176755324Y-109282735D01*
X176373477Y-109027594D01*
X175923059Y-108938000D01*
X175876941Y-108938000D01*
X175426523Y-109027594D01*
X175044676Y-109282735D01*
X174789535Y-109664582D01*
X174699941Y-110115000D01*
X154570772Y-110115000D01*
X154576891Y-110100265D01*
X154576959Y-110022621D01*
X155447580Y-109152000D01*
X156565229Y-109152000D01*
X156619369Y-109206235D01*
X156849735Y-109301891D01*
X157099171Y-109302109D01*
X157329703Y-109206855D01*
X157506235Y-109030631D01*
X157601891Y-108800265D01*
X157602109Y-108550829D01*
X157506855Y-108320297D01*
X157330631Y-108143765D01*
X157100265Y-108048109D01*
X156850829Y-108047891D01*
X156620297Y-108143145D01*
X156565346Y-108198000D01*
X155250000Y-108198000D01*
X155067460Y-108234309D01*
X154912710Y-108337710D01*
X153902462Y-109347958D01*
X153825829Y-109347891D01*
X153595297Y-109443145D01*
X153418765Y-109619369D01*
X153323109Y-109849735D01*
X153322891Y-110099171D01*
X130527000Y-110099171D01*
X130527000Y-107099171D01*
X163597891Y-107099171D01*
X163693145Y-107329703D01*
X163869369Y-107506235D01*
X164099735Y-107601891D01*
X164349171Y-107602109D01*
X164414779Y-107575000D01*
X174699941Y-107575000D01*
X174789535Y-108025418D01*
X175044676Y-108407265D01*
X175426523Y-108662406D01*
X175876941Y-108752000D01*
X175923059Y-108752000D01*
X176373477Y-108662406D01*
X176755324Y-108407265D01*
X177010465Y-108025418D01*
X177100059Y-107575000D01*
X177010465Y-107124582D01*
X176755324Y-106742735D01*
X176373477Y-106487594D01*
X175923059Y-106398000D01*
X175876941Y-106398000D01*
X175426523Y-106487594D01*
X175044676Y-106742735D01*
X174789535Y-107124582D01*
X174699941Y-107575000D01*
X164414779Y-107575000D01*
X164579703Y-107506855D01*
X164756235Y-107330631D01*
X164851891Y-107100265D01*
X164851990Y-106987234D01*
X165337213Y-106502011D01*
X165449171Y-106502109D01*
X165679703Y-106406855D01*
X165856235Y-106230631D01*
X165951891Y-106000265D01*
X165952109Y-105750829D01*
X165856855Y-105520297D01*
X165680631Y-105343765D01*
X165450265Y-105248109D01*
X165200829Y-105247891D01*
X164970297Y-105343145D01*
X164793765Y-105519369D01*
X164698109Y-105749735D01*
X164698010Y-105862766D01*
X164212787Y-106347989D01*
X164100829Y-106347891D01*
X163870297Y-106443145D01*
X163693765Y-106619369D01*
X163598109Y-106849735D01*
X163597891Y-107099171D01*
X130527000Y-107099171D01*
X130527000Y-104439676D01*
X174753745Y-104439676D01*
X174889990Y-104669459D01*
X175573395Y-104766252D01*
X176060010Y-104669459D01*
X176196255Y-104439676D01*
X175475000Y-103718420D01*
X174753745Y-104439676D01*
X130527000Y-104439676D01*
X130527000Y-101950000D01*
X149991594Y-101950000D01*
X149991594Y-103650000D01*
X150014395Y-103771179D01*
X150086012Y-103882474D01*
X150195286Y-103957138D01*
X150325000Y-103983406D01*
X152025000Y-103983406D01*
X152146179Y-103960605D01*
X152257474Y-103888988D01*
X152332138Y-103779714D01*
X152358406Y-103650000D01*
X152358406Y-102776941D01*
X152538000Y-102776941D01*
X152538000Y-102823059D01*
X152627594Y-103273477D01*
X152882735Y-103655324D01*
X153264582Y-103910465D01*
X153715000Y-104000059D01*
X154165418Y-103910465D01*
X154547265Y-103655324D01*
X154802406Y-103273477D01*
X154892000Y-102823059D01*
X154892000Y-102776941D01*
X155078000Y-102776941D01*
X155078000Y-102823059D01*
X155167594Y-103273477D01*
X155422735Y-103655324D01*
X155804582Y-103910465D01*
X156255000Y-104000059D01*
X156705418Y-103910465D01*
X157087265Y-103655324D01*
X157319337Y-103308002D01*
X157502289Y-103308002D01*
X157456085Y-103442361D01*
X157803825Y-103905845D01*
X158152644Y-104138881D01*
X158370000Y-104056310D01*
X158370000Y-103225000D01*
X158267000Y-103225000D01*
X158267000Y-102375000D01*
X158370000Y-102375000D01*
X158370000Y-101543690D01*
X159220000Y-101543690D01*
X159220000Y-102375000D01*
X159323000Y-102375000D01*
X159323000Y-103225000D01*
X159220000Y-103225000D01*
X159220000Y-104056310D01*
X159437356Y-104138881D01*
X159786175Y-103905845D01*
X160133915Y-103442361D01*
X160087711Y-103308002D01*
X160270663Y-103308002D01*
X160502735Y-103655324D01*
X160884582Y-103910465D01*
X161335000Y-104000059D01*
X161785418Y-103910465D01*
X162167265Y-103655324D01*
X162422406Y-103273477D01*
X162512000Y-102823059D01*
X162512000Y-102776941D01*
X162698000Y-102776941D01*
X162698000Y-102823059D01*
X162787594Y-103273477D01*
X163042735Y-103655324D01*
X163424582Y-103910465D01*
X163875000Y-104000059D01*
X164325418Y-103910465D01*
X164707265Y-103655324D01*
X164956308Y-103282603D01*
X167047752Y-103282603D01*
X167264543Y-103807275D01*
X167665614Y-104209047D01*
X168189907Y-104426752D01*
X168757603Y-104427248D01*
X169282275Y-104210457D01*
X169684047Y-103809386D01*
X169901752Y-103285093D01*
X169901915Y-103098395D01*
X173708748Y-103098395D01*
X173805541Y-103585010D01*
X174035324Y-103721255D01*
X174756580Y-103000000D01*
X176193420Y-103000000D01*
X176914676Y-103721255D01*
X177144459Y-103585010D01*
X177241252Y-102901605D01*
X177144459Y-102414990D01*
X176914676Y-102278745D01*
X176193420Y-103000000D01*
X174756580Y-103000000D01*
X174035324Y-102278745D01*
X173805541Y-102414990D01*
X173708748Y-103098395D01*
X169901915Y-103098395D01*
X169902248Y-102717397D01*
X169685457Y-102192725D01*
X169284386Y-101790953D01*
X168760093Y-101573248D01*
X168192397Y-101572752D01*
X167667725Y-101789543D01*
X167265953Y-102190614D01*
X167048248Y-102714907D01*
X167047752Y-103282603D01*
X164956308Y-103282603D01*
X164962406Y-103273477D01*
X165052000Y-102823059D01*
X165052000Y-102776941D01*
X164962406Y-102326523D01*
X164707265Y-101944676D01*
X164325418Y-101689535D01*
X163875000Y-101599941D01*
X163424582Y-101689535D01*
X163042735Y-101944676D01*
X162787594Y-102326523D01*
X162698000Y-102776941D01*
X162512000Y-102776941D01*
X162422406Y-102326523D01*
X162167265Y-101944676D01*
X161785418Y-101689535D01*
X161335000Y-101599941D01*
X160884582Y-101689535D01*
X160502735Y-101944676D01*
X160270663Y-102291998D01*
X160087711Y-102291998D01*
X160133915Y-102157639D01*
X159786175Y-101694155D01*
X159585851Y-101560324D01*
X174753745Y-101560324D01*
X175475000Y-102281580D01*
X176196255Y-101560324D01*
X176060010Y-101330541D01*
X175376605Y-101233748D01*
X174889990Y-101330541D01*
X174753745Y-101560324D01*
X159585851Y-101560324D01*
X159437356Y-101461119D01*
X159220000Y-101543690D01*
X158370000Y-101543690D01*
X158152644Y-101461119D01*
X157803825Y-101694155D01*
X157456085Y-102157639D01*
X157502289Y-102291998D01*
X157319337Y-102291998D01*
X157087265Y-101944676D01*
X156705418Y-101689535D01*
X156255000Y-101599941D01*
X155804582Y-101689535D01*
X155422735Y-101944676D01*
X155167594Y-102326523D01*
X155078000Y-102776941D01*
X154892000Y-102776941D01*
X154802406Y-102326523D01*
X154547265Y-101944676D01*
X154165418Y-101689535D01*
X153715000Y-101599941D01*
X153264582Y-101689535D01*
X152882735Y-101944676D01*
X152627594Y-102326523D01*
X152538000Y-102776941D01*
X152358406Y-102776941D01*
X152358406Y-101950000D01*
X152335605Y-101828821D01*
X152263988Y-101717526D01*
X152154714Y-101642862D01*
X152025000Y-101616594D01*
X150325000Y-101616594D01*
X150203821Y-101639395D01*
X150092526Y-101711012D01*
X150017862Y-101820286D01*
X149991594Y-101950000D01*
X130527000Y-101950000D01*
X130527000Y-100527000D01*
X178473000Y-100527000D01*
X178473000Y-147473000D01*
M02*
