%TF.GenerationSoftware,KiCad,Pcbnew,4.0.7*%
%TF.CreationDate,2018-10-18T17:54:17-04:00*%
%TF.ProjectId,GCEW_Glove,474345575F476C6F76652E6B69636164,1*%
%TF.FileFunction,Legend,Bot*%
%FSLAX46Y46*%
G04 Gerber Fmt 4.6, Leading zero omitted, Abs format (unit mm)*
G04 Created by KiCad (PCBNEW 4.0.7) date 10/18/18 17:54:17*
%MOMM*%
%LPD*%
G01*
G04 APERTURE LIST*
%ADD10C,0.100000*%
%ADD11C,0.200000*%
%ADD12C,0.150000*%
G04 APERTURE END LIST*
D10*
D11*
X173900000Y-139650000D02*
X173900000Y-135250000D01*
X169350000Y-139650000D02*
X169450000Y-139650000D01*
X169350000Y-135250000D02*
X169350000Y-139650000D01*
X177800000Y-135250000D02*
X169350000Y-135250000D01*
X177800000Y-139650000D02*
X177800000Y-135250000D01*
X169450000Y-139650000D02*
X177800000Y-139650000D01*
D12*
X177476190Y-135552381D02*
X176857142Y-135552381D01*
X177190476Y-135933333D01*
X177047618Y-135933333D01*
X176952380Y-135980952D01*
X176904761Y-136028571D01*
X176857142Y-136123810D01*
X176857142Y-136361905D01*
X176904761Y-136457143D01*
X176952380Y-136504762D01*
X177047618Y-136552381D01*
X177333333Y-136552381D01*
X177428571Y-136504762D01*
X177476190Y-136457143D01*
X176428571Y-136457143D02*
X176380952Y-136504762D01*
X176428571Y-136552381D01*
X176476190Y-136504762D01*
X176428571Y-136457143D01*
X176428571Y-136552381D01*
X176047619Y-135552381D02*
X175428571Y-135552381D01*
X175761905Y-135933333D01*
X175619047Y-135933333D01*
X175523809Y-135980952D01*
X175476190Y-136028571D01*
X175428571Y-136123810D01*
X175428571Y-136361905D01*
X175476190Y-136457143D01*
X175523809Y-136504762D01*
X175619047Y-136552381D01*
X175904762Y-136552381D01*
X176000000Y-136504762D01*
X176047619Y-136457143D01*
X175142857Y-135552381D02*
X174809524Y-136552381D01*
X174476190Y-135552381D01*
X173421428Y-136602381D02*
X173421428Y-135602381D01*
X173088094Y-136316667D01*
X172754761Y-135602381D01*
X172754761Y-136602381D01*
X172278571Y-136602381D02*
X172278571Y-135602381D01*
X171850000Y-136554762D02*
X171707143Y-136602381D01*
X171469047Y-136602381D01*
X171373809Y-136554762D01*
X171326190Y-136507143D01*
X171278571Y-136411905D01*
X171278571Y-136316667D01*
X171326190Y-136221429D01*
X171373809Y-136173810D01*
X171469047Y-136126190D01*
X171659524Y-136078571D01*
X171754762Y-136030952D01*
X171802381Y-135983333D01*
X171850000Y-135888095D01*
X171850000Y-135792857D01*
X171802381Y-135697619D01*
X171754762Y-135650000D01*
X171659524Y-135602381D01*
X171421428Y-135602381D01*
X171278571Y-135650000D01*
X170659524Y-135602381D02*
X170469047Y-135602381D01*
X170373809Y-135650000D01*
X170278571Y-135745238D01*
X170230952Y-135935714D01*
X170230952Y-136269048D01*
X170278571Y-136459524D01*
X170373809Y-136554762D01*
X170469047Y-136602381D01*
X170659524Y-136602381D01*
X170754762Y-136554762D01*
X170850000Y-136459524D01*
X170897619Y-136269048D01*
X170897619Y-135935714D01*
X170850000Y-135745238D01*
X170754762Y-135650000D01*
X170659524Y-135602381D01*
X173435714Y-137954762D02*
X173292857Y-138002381D01*
X173054761Y-138002381D01*
X172959523Y-137954762D01*
X172911904Y-137907143D01*
X172864285Y-137811905D01*
X172864285Y-137716667D01*
X172911904Y-137621429D01*
X172959523Y-137573810D01*
X173054761Y-137526190D01*
X173245238Y-137478571D01*
X173340476Y-137430952D01*
X173388095Y-137383333D01*
X173435714Y-137288095D01*
X173435714Y-137192857D01*
X173388095Y-137097619D01*
X173340476Y-137050000D01*
X173245238Y-137002381D01*
X173007142Y-137002381D01*
X172864285Y-137050000D01*
X171864285Y-137907143D02*
X171911904Y-137954762D01*
X172054761Y-138002381D01*
X172149999Y-138002381D01*
X172292857Y-137954762D01*
X172388095Y-137859524D01*
X172435714Y-137764286D01*
X172483333Y-137573810D01*
X172483333Y-137430952D01*
X172435714Y-137240476D01*
X172388095Y-137145238D01*
X172292857Y-137050000D01*
X172149999Y-137002381D01*
X172054761Y-137002381D01*
X171911904Y-137050000D01*
X171864285Y-137097619D01*
X171435714Y-138002381D02*
X171435714Y-137002381D01*
X170864285Y-138002381D02*
X171292857Y-137430952D01*
X170864285Y-137002381D02*
X171435714Y-137573810D01*
X177471428Y-137952381D02*
X177471428Y-136952381D01*
X177138094Y-137666667D01*
X176804761Y-136952381D01*
X176804761Y-137952381D01*
X176138095Y-136952381D02*
X175947618Y-136952381D01*
X175852380Y-137000000D01*
X175757142Y-137095238D01*
X175709523Y-137285714D01*
X175709523Y-137619048D01*
X175757142Y-137809524D01*
X175852380Y-137904762D01*
X175947618Y-137952381D01*
X176138095Y-137952381D01*
X176233333Y-137904762D01*
X176328571Y-137809524D01*
X176376190Y-137619048D01*
X176376190Y-137285714D01*
X176328571Y-137095238D01*
X176233333Y-137000000D01*
X176138095Y-136952381D01*
X175328571Y-137904762D02*
X175185714Y-137952381D01*
X174947618Y-137952381D01*
X174852380Y-137904762D01*
X174804761Y-137857143D01*
X174757142Y-137761905D01*
X174757142Y-137666667D01*
X174804761Y-137571429D01*
X174852380Y-137523810D01*
X174947618Y-137476190D01*
X175138095Y-137428571D01*
X175233333Y-137380952D01*
X175280952Y-137333333D01*
X175328571Y-137238095D01*
X175328571Y-137142857D01*
X175280952Y-137047619D01*
X175233333Y-137000000D01*
X175138095Y-136952381D01*
X174899999Y-136952381D01*
X174757142Y-137000000D01*
X174328571Y-137952381D02*
X174328571Y-136952381D01*
X176911904Y-138450000D02*
X177007142Y-138402381D01*
X177149999Y-138402381D01*
X177292857Y-138450000D01*
X177388095Y-138545238D01*
X177435714Y-138640476D01*
X177483333Y-138830952D01*
X177483333Y-138973810D01*
X177435714Y-139164286D01*
X177388095Y-139259524D01*
X177292857Y-139354762D01*
X177149999Y-139402381D01*
X177054761Y-139402381D01*
X176911904Y-139354762D01*
X176864285Y-139307143D01*
X176864285Y-138973810D01*
X177054761Y-138973810D01*
X176435714Y-139402381D02*
X176435714Y-138402381D01*
X175864285Y-139402381D01*
X175864285Y-138402381D01*
X175388095Y-139402381D02*
X175388095Y-138402381D01*
X175150000Y-138402381D01*
X175007142Y-138450000D01*
X174911904Y-138545238D01*
X174864285Y-138640476D01*
X174816666Y-138830952D01*
X174816666Y-138973810D01*
X174864285Y-139164286D01*
X174911904Y-139259524D01*
X175007142Y-139354762D01*
X175150000Y-139402381D01*
X175388095Y-139402381D01*
X172888095Y-139402381D02*
X173221429Y-138926190D01*
X173459524Y-139402381D02*
X173459524Y-138402381D01*
X173078571Y-138402381D01*
X172983333Y-138450000D01*
X172935714Y-138497619D01*
X172888095Y-138592857D01*
X172888095Y-138735714D01*
X172935714Y-138830952D01*
X172983333Y-138878571D01*
X173078571Y-138926190D01*
X173459524Y-138926190D01*
X172078571Y-139354762D02*
X172173809Y-139402381D01*
X172364286Y-139402381D01*
X172459524Y-139354762D01*
X172507143Y-139259524D01*
X172507143Y-138878571D01*
X172459524Y-138783333D01*
X172364286Y-138735714D01*
X172173809Y-138735714D01*
X172078571Y-138783333D01*
X172030952Y-138878571D01*
X172030952Y-138973810D01*
X172507143Y-139069048D01*
X171650000Y-139354762D02*
X171554762Y-139402381D01*
X171364286Y-139402381D01*
X171269047Y-139354762D01*
X171221428Y-139259524D01*
X171221428Y-139211905D01*
X171269047Y-139116667D01*
X171364286Y-139069048D01*
X171507143Y-139069048D01*
X171602381Y-139021429D01*
X171650000Y-138926190D01*
X171650000Y-138878571D01*
X171602381Y-138783333D01*
X171507143Y-138735714D01*
X171364286Y-138735714D01*
X171269047Y-138783333D01*
X170411904Y-139354762D02*
X170507142Y-139402381D01*
X170697619Y-139402381D01*
X170792857Y-139354762D01*
X170840476Y-139259524D01*
X170840476Y-138878571D01*
X170792857Y-138783333D01*
X170697619Y-138735714D01*
X170507142Y-138735714D01*
X170411904Y-138783333D01*
X170364285Y-138878571D01*
X170364285Y-138973810D01*
X170840476Y-139069048D01*
X170078571Y-138735714D02*
X169697619Y-138735714D01*
X169935714Y-138402381D02*
X169935714Y-139259524D01*
X169888095Y-139354762D01*
X169792857Y-139402381D01*
X169697619Y-139402381D01*
X173697619Y-138230000D02*
X169602380Y-138230000D01*
M02*
