G04 #@! TF.GenerationSoftware,KiCad,Pcbnew,(5.0.1)-3*
G04 #@! TF.CreationDate,2018-10-30T14:33:32-04:00*
G04 #@! TF.ProjectId,GCEW Motor Controller MCU,47434557204D6F746F7220436F6E7472,rev?*
G04 #@! TF.SameCoordinates,Original*
G04 #@! TF.FileFunction,Soldermask,Bot*
G04 #@! TF.FilePolarity,Negative*
%FSLAX46Y46*%
G04 Gerber Fmt 4.6, Leading zero omitted, Abs format (unit mm)*
G04 Created by KiCad (PCBNEW (5.0.1)-3) date 10/30/2018 2:33:32 PM*
%MOMM*%
%LPD*%
G01*
G04 APERTURE LIST*
%ADD10C,0.100000*%
G04 APERTURE END LIST*
D10*
G36*
X154379485Y-108098996D02*
X154379487Y-108098997D01*
X154379488Y-108098997D01*
X154616255Y-108197069D01*
X154829342Y-108339449D01*
X155010551Y-108520658D01*
X155152931Y-108733745D01*
X155251004Y-108970515D01*
X155301000Y-109221861D01*
X155301000Y-109478139D01*
X155251004Y-109729485D01*
X155152931Y-109966255D01*
X155010551Y-110179342D01*
X154829342Y-110360551D01*
X154829339Y-110360553D01*
X154616255Y-110502931D01*
X154379488Y-110601003D01*
X154379487Y-110601003D01*
X154379485Y-110601004D01*
X154128139Y-110651000D01*
X153871861Y-110651000D01*
X153620515Y-110601004D01*
X153620513Y-110601003D01*
X153620512Y-110601003D01*
X153383745Y-110502931D01*
X153170661Y-110360553D01*
X153170658Y-110360551D01*
X152989449Y-110179342D01*
X152847069Y-109966255D01*
X152748996Y-109729485D01*
X152699000Y-109478139D01*
X152699000Y-109221861D01*
X152748996Y-108970515D01*
X152847069Y-108733745D01*
X152989449Y-108520658D01*
X153170658Y-108339449D01*
X153383745Y-108197069D01*
X153620512Y-108098997D01*
X153620513Y-108098997D01*
X153620515Y-108098996D01*
X153871861Y-108049000D01*
X154128139Y-108049000D01*
X154379485Y-108098996D01*
X154379485Y-108098996D01*
G37*
G36*
X157879485Y-108098996D02*
X157879487Y-108098997D01*
X157879488Y-108098997D01*
X158116255Y-108197069D01*
X158329342Y-108339449D01*
X158510551Y-108520658D01*
X158652931Y-108733745D01*
X158751004Y-108970515D01*
X158801000Y-109221861D01*
X158801000Y-109478139D01*
X158751004Y-109729485D01*
X158652931Y-109966255D01*
X158510551Y-110179342D01*
X158329342Y-110360551D01*
X158329339Y-110360553D01*
X158116255Y-110502931D01*
X157879488Y-110601003D01*
X157879487Y-110601003D01*
X157879485Y-110601004D01*
X157628139Y-110651000D01*
X157371861Y-110651000D01*
X157120515Y-110601004D01*
X157120513Y-110601003D01*
X157120512Y-110601003D01*
X156883745Y-110502931D01*
X156670661Y-110360553D01*
X156670658Y-110360551D01*
X156489449Y-110179342D01*
X156347069Y-109966255D01*
X156248996Y-109729485D01*
X156199000Y-109478139D01*
X156199000Y-109221861D01*
X156248996Y-108970515D01*
X156347069Y-108733745D01*
X156489449Y-108520658D01*
X156670658Y-108339449D01*
X156883745Y-108197069D01*
X157120512Y-108098997D01*
X157120513Y-108098997D01*
X157120515Y-108098996D01*
X157371861Y-108049000D01*
X157628139Y-108049000D01*
X157879485Y-108098996D01*
X157879485Y-108098996D01*
G37*
G36*
X161379485Y-108098996D02*
X161379487Y-108098997D01*
X161379488Y-108098997D01*
X161616255Y-108197069D01*
X161829342Y-108339449D01*
X162010551Y-108520658D01*
X162152931Y-108733745D01*
X162251004Y-108970515D01*
X162301000Y-109221861D01*
X162301000Y-109478139D01*
X162251004Y-109729485D01*
X162152931Y-109966255D01*
X162010551Y-110179342D01*
X161829342Y-110360551D01*
X161829339Y-110360553D01*
X161616255Y-110502931D01*
X161379488Y-110601003D01*
X161379487Y-110601003D01*
X161379485Y-110601004D01*
X161128139Y-110651000D01*
X160871861Y-110651000D01*
X160620515Y-110601004D01*
X160620513Y-110601003D01*
X160620512Y-110601003D01*
X160383745Y-110502931D01*
X160170661Y-110360553D01*
X160170658Y-110360551D01*
X159989449Y-110179342D01*
X159847069Y-109966255D01*
X159748996Y-109729485D01*
X159699000Y-109478139D01*
X159699000Y-109221861D01*
X159748996Y-108970515D01*
X159847069Y-108733745D01*
X159989449Y-108520658D01*
X160170658Y-108339449D01*
X160383745Y-108197069D01*
X160620512Y-108098997D01*
X160620513Y-108098997D01*
X160620515Y-108098996D01*
X160871861Y-108049000D01*
X161128139Y-108049000D01*
X161379485Y-108098996D01*
X161379485Y-108098996D01*
G37*
G36*
X164879485Y-108098996D02*
X164879487Y-108098997D01*
X164879488Y-108098997D01*
X165116255Y-108197069D01*
X165329342Y-108339449D01*
X165510551Y-108520658D01*
X165652931Y-108733745D01*
X165751004Y-108970515D01*
X165801000Y-109221861D01*
X165801000Y-109478139D01*
X165751004Y-109729485D01*
X165652931Y-109966255D01*
X165510551Y-110179342D01*
X165329342Y-110360551D01*
X165329339Y-110360553D01*
X165116255Y-110502931D01*
X164879488Y-110601003D01*
X164879487Y-110601003D01*
X164879485Y-110601004D01*
X164628139Y-110651000D01*
X164371861Y-110651000D01*
X164120515Y-110601004D01*
X164120513Y-110601003D01*
X164120512Y-110601003D01*
X163883745Y-110502931D01*
X163670661Y-110360553D01*
X163670658Y-110360551D01*
X163489449Y-110179342D01*
X163347069Y-109966255D01*
X163248996Y-109729485D01*
X163199000Y-109478139D01*
X163199000Y-109221861D01*
X163248996Y-108970515D01*
X163347069Y-108733745D01*
X163489449Y-108520658D01*
X163670658Y-108339449D01*
X163883745Y-108197069D01*
X164120512Y-108098997D01*
X164120513Y-108098997D01*
X164120515Y-108098996D01*
X164371861Y-108049000D01*
X164628139Y-108049000D01*
X164879485Y-108098996D01*
X164879485Y-108098996D01*
G37*
G36*
X168379485Y-108098996D02*
X168379487Y-108098997D01*
X168379488Y-108098997D01*
X168616255Y-108197069D01*
X168829342Y-108339449D01*
X169010551Y-108520658D01*
X169152931Y-108733745D01*
X169251004Y-108970515D01*
X169301000Y-109221861D01*
X169301000Y-109478139D01*
X169251004Y-109729485D01*
X169152931Y-109966255D01*
X169010551Y-110179342D01*
X168829342Y-110360551D01*
X168829339Y-110360553D01*
X168616255Y-110502931D01*
X168379488Y-110601003D01*
X168379487Y-110601003D01*
X168379485Y-110601004D01*
X168128139Y-110651000D01*
X167871861Y-110651000D01*
X167620515Y-110601004D01*
X167620513Y-110601003D01*
X167620512Y-110601003D01*
X167383745Y-110502931D01*
X167170661Y-110360553D01*
X167170658Y-110360551D01*
X166989449Y-110179342D01*
X166847069Y-109966255D01*
X166748996Y-109729485D01*
X166699000Y-109478139D01*
X166699000Y-109221861D01*
X166748996Y-108970515D01*
X166847069Y-108733745D01*
X166989449Y-108520658D01*
X167170658Y-108339449D01*
X167383745Y-108197069D01*
X167620512Y-108098997D01*
X167620513Y-108098997D01*
X167620515Y-108098996D01*
X167871861Y-108049000D01*
X168128139Y-108049000D01*
X168379485Y-108098996D01*
X168379485Y-108098996D01*
G37*
G36*
X171879485Y-108098996D02*
X171879487Y-108098997D01*
X171879488Y-108098997D01*
X172116255Y-108197069D01*
X172329342Y-108339449D01*
X172510551Y-108520658D01*
X172652931Y-108733745D01*
X172751004Y-108970515D01*
X172801000Y-109221861D01*
X172801000Y-109478139D01*
X172751004Y-109729485D01*
X172652931Y-109966255D01*
X172510551Y-110179342D01*
X172329342Y-110360551D01*
X172329339Y-110360553D01*
X172116255Y-110502931D01*
X171879488Y-110601003D01*
X171879487Y-110601003D01*
X171879485Y-110601004D01*
X171628139Y-110651000D01*
X171371861Y-110651000D01*
X171120515Y-110601004D01*
X171120513Y-110601003D01*
X171120512Y-110601003D01*
X170883745Y-110502931D01*
X170670661Y-110360553D01*
X170670658Y-110360551D01*
X170489449Y-110179342D01*
X170347069Y-109966255D01*
X170248996Y-109729485D01*
X170199000Y-109478139D01*
X170199000Y-109221861D01*
X170248996Y-108970515D01*
X170347069Y-108733745D01*
X170489449Y-108520658D01*
X170670658Y-108339449D01*
X170883745Y-108197069D01*
X171120512Y-108098997D01*
X171120513Y-108098997D01*
X171120515Y-108098996D01*
X171371861Y-108049000D01*
X171628139Y-108049000D01*
X171879485Y-108098996D01*
X171879485Y-108098996D01*
G37*
G36*
X178879485Y-108098996D02*
X178879487Y-108098997D01*
X178879488Y-108098997D01*
X179116255Y-108197069D01*
X179329342Y-108339449D01*
X179510551Y-108520658D01*
X179652931Y-108733745D01*
X179751004Y-108970515D01*
X179801000Y-109221861D01*
X179801000Y-109478139D01*
X179751004Y-109729485D01*
X179652931Y-109966255D01*
X179510551Y-110179342D01*
X179329342Y-110360551D01*
X179329339Y-110360553D01*
X179116255Y-110502931D01*
X178879488Y-110601003D01*
X178879487Y-110601003D01*
X178879485Y-110601004D01*
X178628139Y-110651000D01*
X178371861Y-110651000D01*
X178120515Y-110601004D01*
X178120513Y-110601003D01*
X178120512Y-110601003D01*
X177883745Y-110502931D01*
X177670661Y-110360553D01*
X177670658Y-110360551D01*
X177489449Y-110179342D01*
X177347069Y-109966255D01*
X177248996Y-109729485D01*
X177199000Y-109478139D01*
X177199000Y-109221861D01*
X177248996Y-108970515D01*
X177347069Y-108733745D01*
X177489449Y-108520658D01*
X177670658Y-108339449D01*
X177883745Y-108197069D01*
X178120512Y-108098997D01*
X178120513Y-108098997D01*
X178120515Y-108098996D01*
X178371861Y-108049000D01*
X178628139Y-108049000D01*
X178879485Y-108098996D01*
X178879485Y-108098996D01*
G37*
G36*
X175379485Y-108098996D02*
X175379487Y-108098997D01*
X175379488Y-108098997D01*
X175616255Y-108197069D01*
X175829342Y-108339449D01*
X176010551Y-108520658D01*
X176152931Y-108733745D01*
X176251004Y-108970515D01*
X176301000Y-109221861D01*
X176301000Y-109478139D01*
X176251004Y-109729485D01*
X176152931Y-109966255D01*
X176010551Y-110179342D01*
X175829342Y-110360551D01*
X175829339Y-110360553D01*
X175616255Y-110502931D01*
X175379488Y-110601003D01*
X175379487Y-110601003D01*
X175379485Y-110601004D01*
X175128139Y-110651000D01*
X174871861Y-110651000D01*
X174620515Y-110601004D01*
X174620513Y-110601003D01*
X174620512Y-110601003D01*
X174383745Y-110502931D01*
X174170661Y-110360553D01*
X174170658Y-110360551D01*
X173989449Y-110179342D01*
X173847069Y-109966255D01*
X173748996Y-109729485D01*
X173699000Y-109478139D01*
X173699000Y-109221861D01*
X173748996Y-108970515D01*
X173847069Y-108733745D01*
X173989449Y-108520658D01*
X174170658Y-108339449D01*
X174383745Y-108197069D01*
X174620512Y-108098997D01*
X174620513Y-108098997D01*
X174620515Y-108098996D01*
X174871861Y-108049000D01*
X175128139Y-108049000D01*
X175379485Y-108098996D01*
X175379485Y-108098996D01*
G37*
G36*
X143535443Y-105420519D02*
X143601627Y-105427037D01*
X143714853Y-105461384D01*
X143771467Y-105478557D01*
X143910087Y-105552652D01*
X143927991Y-105562222D01*
X143963729Y-105591552D01*
X144065186Y-105674814D01*
X144148448Y-105776271D01*
X144177778Y-105812009D01*
X144177779Y-105812011D01*
X144261443Y-105968533D01*
X144261443Y-105968534D01*
X144312963Y-106138373D01*
X144330359Y-106315000D01*
X144312963Y-106491627D01*
X144278616Y-106604853D01*
X144261443Y-106661467D01*
X144187348Y-106800087D01*
X144177778Y-106817991D01*
X144148448Y-106853729D01*
X144065186Y-106955186D01*
X143963729Y-107038448D01*
X143927991Y-107067778D01*
X143927989Y-107067779D01*
X143771467Y-107151443D01*
X143714853Y-107168616D01*
X143601627Y-107202963D01*
X143535442Y-107209482D01*
X143469260Y-107216000D01*
X143380740Y-107216000D01*
X143314558Y-107209482D01*
X143248373Y-107202963D01*
X143135147Y-107168616D01*
X143078533Y-107151443D01*
X142922011Y-107067779D01*
X142922009Y-107067778D01*
X142886271Y-107038448D01*
X142784814Y-106955186D01*
X142701552Y-106853729D01*
X142672222Y-106817991D01*
X142662652Y-106800087D01*
X142588557Y-106661467D01*
X142571384Y-106604853D01*
X142537037Y-106491627D01*
X142519641Y-106315000D01*
X142537037Y-106138373D01*
X142588557Y-105968534D01*
X142588557Y-105968533D01*
X142672221Y-105812011D01*
X142672222Y-105812009D01*
X142701552Y-105776271D01*
X142784814Y-105674814D01*
X142886271Y-105591552D01*
X142922009Y-105562222D01*
X142939913Y-105552652D01*
X143078533Y-105478557D01*
X143135147Y-105461384D01*
X143248373Y-105427037D01*
X143314557Y-105420519D01*
X143380740Y-105414000D01*
X143469260Y-105414000D01*
X143535443Y-105420519D01*
X143535443Y-105420519D01*
G37*
G36*
X146075443Y-105420519D02*
X146141627Y-105427037D01*
X146254853Y-105461384D01*
X146311467Y-105478557D01*
X146450087Y-105552652D01*
X146467991Y-105562222D01*
X146503729Y-105591552D01*
X146605186Y-105674814D01*
X146688448Y-105776271D01*
X146717778Y-105812009D01*
X146717779Y-105812011D01*
X146801443Y-105968533D01*
X146801443Y-105968534D01*
X146852963Y-106138373D01*
X146870359Y-106315000D01*
X146852963Y-106491627D01*
X146818616Y-106604853D01*
X146801443Y-106661467D01*
X146727348Y-106800087D01*
X146717778Y-106817991D01*
X146688448Y-106853729D01*
X146605186Y-106955186D01*
X146503729Y-107038448D01*
X146467991Y-107067778D01*
X146467989Y-107067779D01*
X146311467Y-107151443D01*
X146254853Y-107168616D01*
X146141627Y-107202963D01*
X146075442Y-107209482D01*
X146009260Y-107216000D01*
X145920740Y-107216000D01*
X145854558Y-107209482D01*
X145788373Y-107202963D01*
X145675147Y-107168616D01*
X145618533Y-107151443D01*
X145462011Y-107067779D01*
X145462009Y-107067778D01*
X145426271Y-107038448D01*
X145324814Y-106955186D01*
X145241552Y-106853729D01*
X145212222Y-106817991D01*
X145202652Y-106800087D01*
X145128557Y-106661467D01*
X145111384Y-106604853D01*
X145077037Y-106491627D01*
X145059641Y-106315000D01*
X145077037Y-106138373D01*
X145128557Y-105968534D01*
X145128557Y-105968533D01*
X145212221Y-105812011D01*
X145212222Y-105812009D01*
X145241552Y-105776271D01*
X145324814Y-105674814D01*
X145426271Y-105591552D01*
X145462009Y-105562222D01*
X145479913Y-105552652D01*
X145618533Y-105478557D01*
X145675147Y-105461384D01*
X145788373Y-105427037D01*
X145854557Y-105420519D01*
X145920740Y-105414000D01*
X146009260Y-105414000D01*
X146075443Y-105420519D01*
X146075443Y-105420519D01*
G37*
G36*
X146075443Y-102880519D02*
X146141627Y-102887037D01*
X146254853Y-102921384D01*
X146311467Y-102938557D01*
X146450087Y-103012652D01*
X146467991Y-103022222D01*
X146503729Y-103051552D01*
X146605186Y-103134814D01*
X146688448Y-103236271D01*
X146717778Y-103272009D01*
X146717779Y-103272011D01*
X146801443Y-103428533D01*
X146801443Y-103428534D01*
X146852963Y-103598373D01*
X146870359Y-103775000D01*
X146852963Y-103951627D01*
X146818616Y-104064853D01*
X146801443Y-104121467D01*
X146727348Y-104260087D01*
X146717778Y-104277991D01*
X146688448Y-104313729D01*
X146605186Y-104415186D01*
X146503729Y-104498448D01*
X146467991Y-104527778D01*
X146467989Y-104527779D01*
X146311467Y-104611443D01*
X146254853Y-104628616D01*
X146141627Y-104662963D01*
X146075443Y-104669481D01*
X146009260Y-104676000D01*
X145920740Y-104676000D01*
X145854558Y-104669482D01*
X145788373Y-104662963D01*
X145675147Y-104628616D01*
X145618533Y-104611443D01*
X145462011Y-104527779D01*
X145462009Y-104527778D01*
X145426271Y-104498448D01*
X145324814Y-104415186D01*
X145241552Y-104313729D01*
X145212222Y-104277991D01*
X145202652Y-104260087D01*
X145128557Y-104121467D01*
X145111384Y-104064853D01*
X145077037Y-103951627D01*
X145059641Y-103775000D01*
X145077037Y-103598373D01*
X145128557Y-103428534D01*
X145128557Y-103428533D01*
X145212221Y-103272011D01*
X145212222Y-103272009D01*
X145241552Y-103236271D01*
X145324814Y-103134814D01*
X145426271Y-103051552D01*
X145462009Y-103022222D01*
X145479913Y-103012652D01*
X145618533Y-102938557D01*
X145675147Y-102921384D01*
X145788373Y-102887037D01*
X145854558Y-102880518D01*
X145920740Y-102874000D01*
X146009260Y-102874000D01*
X146075443Y-102880519D01*
X146075443Y-102880519D01*
G37*
G36*
X143535443Y-102880519D02*
X143601627Y-102887037D01*
X143714853Y-102921384D01*
X143771467Y-102938557D01*
X143910087Y-103012652D01*
X143927991Y-103022222D01*
X143963729Y-103051552D01*
X144065186Y-103134814D01*
X144148448Y-103236271D01*
X144177778Y-103272009D01*
X144177779Y-103272011D01*
X144261443Y-103428533D01*
X144261443Y-103428534D01*
X144312963Y-103598373D01*
X144330359Y-103775000D01*
X144312963Y-103951627D01*
X144278616Y-104064853D01*
X144261443Y-104121467D01*
X144187348Y-104260087D01*
X144177778Y-104277991D01*
X144148448Y-104313729D01*
X144065186Y-104415186D01*
X143963729Y-104498448D01*
X143927991Y-104527778D01*
X143927989Y-104527779D01*
X143771467Y-104611443D01*
X143714853Y-104628616D01*
X143601627Y-104662963D01*
X143535443Y-104669481D01*
X143469260Y-104676000D01*
X143380740Y-104676000D01*
X143314558Y-104669482D01*
X143248373Y-104662963D01*
X143135147Y-104628616D01*
X143078533Y-104611443D01*
X142922011Y-104527779D01*
X142922009Y-104527778D01*
X142886271Y-104498448D01*
X142784814Y-104415186D01*
X142701552Y-104313729D01*
X142672222Y-104277991D01*
X142662652Y-104260087D01*
X142588557Y-104121467D01*
X142571384Y-104064853D01*
X142537037Y-103951627D01*
X142519641Y-103775000D01*
X142537037Y-103598373D01*
X142588557Y-103428534D01*
X142588557Y-103428533D01*
X142672221Y-103272011D01*
X142672222Y-103272009D01*
X142701552Y-103236271D01*
X142784814Y-103134814D01*
X142886271Y-103051552D01*
X142922009Y-103022222D01*
X142939913Y-103012652D01*
X143078533Y-102938557D01*
X143135147Y-102921384D01*
X143248373Y-102887037D01*
X143314558Y-102880518D01*
X143380740Y-102874000D01*
X143469260Y-102874000D01*
X143535443Y-102880519D01*
X143535443Y-102880519D01*
G37*
G36*
X146075442Y-100340518D02*
X146141627Y-100347037D01*
X146254853Y-100381384D01*
X146311467Y-100398557D01*
X146450087Y-100472652D01*
X146467991Y-100482222D01*
X146503729Y-100511552D01*
X146605186Y-100594814D01*
X146688448Y-100696271D01*
X146717778Y-100732009D01*
X146717779Y-100732011D01*
X146801443Y-100888533D01*
X146801443Y-100888534D01*
X146852963Y-101058373D01*
X146870359Y-101235000D01*
X146852963Y-101411627D01*
X146818616Y-101524853D01*
X146801443Y-101581467D01*
X146727348Y-101720087D01*
X146717778Y-101737991D01*
X146688448Y-101773729D01*
X146605186Y-101875186D01*
X146503729Y-101958448D01*
X146467991Y-101987778D01*
X146467989Y-101987779D01*
X146311467Y-102071443D01*
X146254853Y-102088616D01*
X146141627Y-102122963D01*
X146075442Y-102129482D01*
X146009260Y-102136000D01*
X145920740Y-102136000D01*
X145854558Y-102129482D01*
X145788373Y-102122963D01*
X145675147Y-102088616D01*
X145618533Y-102071443D01*
X145462011Y-101987779D01*
X145462009Y-101987778D01*
X145426271Y-101958448D01*
X145324814Y-101875186D01*
X145241552Y-101773729D01*
X145212222Y-101737991D01*
X145202652Y-101720087D01*
X145128557Y-101581467D01*
X145111384Y-101524853D01*
X145077037Y-101411627D01*
X145059641Y-101235000D01*
X145077037Y-101058373D01*
X145128557Y-100888534D01*
X145128557Y-100888533D01*
X145212221Y-100732011D01*
X145212222Y-100732009D01*
X145241552Y-100696271D01*
X145324814Y-100594814D01*
X145426271Y-100511552D01*
X145462009Y-100482222D01*
X145479913Y-100472652D01*
X145618533Y-100398557D01*
X145675147Y-100381384D01*
X145788373Y-100347037D01*
X145854558Y-100340518D01*
X145920740Y-100334000D01*
X146009260Y-100334000D01*
X146075442Y-100340518D01*
X146075442Y-100340518D01*
G37*
G36*
X144326000Y-102136000D02*
X142524000Y-102136000D01*
X142524000Y-100334000D01*
X144326000Y-100334000D01*
X144326000Y-102136000D01*
X144326000Y-102136000D01*
G37*
G36*
X190776000Y-98551000D02*
X188974000Y-98551000D01*
X188974000Y-96749000D01*
X190776000Y-96749000D01*
X190776000Y-98551000D01*
X190776000Y-98551000D01*
G37*
G36*
X189985442Y-94215518D02*
X190051627Y-94222037D01*
X190164853Y-94256384D01*
X190221467Y-94273557D01*
X190360087Y-94347652D01*
X190377991Y-94357222D01*
X190412510Y-94385551D01*
X190515186Y-94469814D01*
X190598448Y-94571271D01*
X190627778Y-94607009D01*
X190627779Y-94607011D01*
X190711443Y-94763533D01*
X190711443Y-94763534D01*
X190762963Y-94933373D01*
X190780359Y-95110000D01*
X190762963Y-95286627D01*
X190728616Y-95399853D01*
X190711443Y-95456467D01*
X190637348Y-95595087D01*
X190627778Y-95612991D01*
X190598448Y-95648729D01*
X190515186Y-95750186D01*
X190413729Y-95833448D01*
X190377991Y-95862778D01*
X190377989Y-95862779D01*
X190221467Y-95946443D01*
X190164853Y-95963616D01*
X190051627Y-95997963D01*
X189985443Y-96004481D01*
X189919260Y-96011000D01*
X189830740Y-96011000D01*
X189764558Y-96004482D01*
X189698373Y-95997963D01*
X189585147Y-95963616D01*
X189528533Y-95946443D01*
X189372011Y-95862779D01*
X189372009Y-95862778D01*
X189336271Y-95833448D01*
X189234814Y-95750186D01*
X189151552Y-95648729D01*
X189122222Y-95612991D01*
X189112652Y-95595087D01*
X189038557Y-95456467D01*
X189021384Y-95399853D01*
X188987037Y-95286627D01*
X188969641Y-95110000D01*
X188987037Y-94933373D01*
X189038557Y-94763534D01*
X189038557Y-94763533D01*
X189122221Y-94607011D01*
X189122222Y-94607009D01*
X189151552Y-94571271D01*
X189234814Y-94469814D01*
X189337490Y-94385551D01*
X189372009Y-94357222D01*
X189389913Y-94347652D01*
X189528533Y-94273557D01*
X189585147Y-94256384D01*
X189698373Y-94222037D01*
X189764557Y-94215519D01*
X189830740Y-94209000D01*
X189919260Y-94209000D01*
X189985442Y-94215518D01*
X189985442Y-94215518D01*
G37*
G36*
X144679485Y-92123996D02*
X144679487Y-92123997D01*
X144679488Y-92123997D01*
X144916255Y-92222069D01*
X145129342Y-92364449D01*
X145310551Y-92545658D01*
X145310553Y-92545661D01*
X145452931Y-92758745D01*
X145518262Y-92916467D01*
X145551004Y-92995515D01*
X145601000Y-93246861D01*
X145601000Y-93503139D01*
X145551004Y-93754485D01*
X145452931Y-93991255D01*
X145310551Y-94204342D01*
X145129342Y-94385551D01*
X145129339Y-94385553D01*
X144916255Y-94527931D01*
X144679488Y-94626003D01*
X144679487Y-94626003D01*
X144679485Y-94626004D01*
X144428139Y-94676000D01*
X144171861Y-94676000D01*
X143920515Y-94626004D01*
X143920513Y-94626003D01*
X143920512Y-94626003D01*
X143683745Y-94527931D01*
X143470661Y-94385553D01*
X143470658Y-94385551D01*
X143289449Y-94204342D01*
X143147069Y-93991255D01*
X143048996Y-93754485D01*
X142999000Y-93503139D01*
X142999000Y-93246861D01*
X143048996Y-92995515D01*
X143081739Y-92916467D01*
X143147069Y-92758745D01*
X143289447Y-92545661D01*
X143289449Y-92545658D01*
X143470658Y-92364449D01*
X143683745Y-92222069D01*
X143920512Y-92123997D01*
X143920513Y-92123997D01*
X143920515Y-92123996D01*
X144171861Y-92074000D01*
X144428139Y-92074000D01*
X144679485Y-92123996D01*
X144679485Y-92123996D01*
G37*
G36*
X189985442Y-91675518D02*
X190051627Y-91682037D01*
X190164853Y-91716384D01*
X190221467Y-91733557D01*
X190360087Y-91807652D01*
X190377991Y-91817222D01*
X190413729Y-91846552D01*
X190515186Y-91929814D01*
X190598448Y-92031271D01*
X190627778Y-92067009D01*
X190627779Y-92067011D01*
X190711443Y-92223533D01*
X190711443Y-92223534D01*
X190762963Y-92393373D01*
X190780359Y-92570000D01*
X190762963Y-92746627D01*
X190759287Y-92758745D01*
X190711443Y-92916467D01*
X190669192Y-92995512D01*
X190627778Y-93072991D01*
X190598448Y-93108729D01*
X190515186Y-93210186D01*
X190413729Y-93293448D01*
X190377991Y-93322778D01*
X190377989Y-93322779D01*
X190221467Y-93406443D01*
X190164853Y-93423616D01*
X190051627Y-93457963D01*
X189985442Y-93464482D01*
X189919260Y-93471000D01*
X189830740Y-93471000D01*
X189764558Y-93464482D01*
X189698373Y-93457963D01*
X189585147Y-93423616D01*
X189528533Y-93406443D01*
X189372011Y-93322779D01*
X189372009Y-93322778D01*
X189336271Y-93293448D01*
X189234814Y-93210186D01*
X189151552Y-93108729D01*
X189122222Y-93072991D01*
X189080808Y-92995512D01*
X189038557Y-92916467D01*
X188990713Y-92758745D01*
X188987037Y-92746627D01*
X188969641Y-92570000D01*
X188987037Y-92393373D01*
X189038557Y-92223534D01*
X189038557Y-92223533D01*
X189122221Y-92067011D01*
X189122222Y-92067009D01*
X189151552Y-92031271D01*
X189234814Y-91929814D01*
X189336271Y-91846552D01*
X189372009Y-91817222D01*
X189389913Y-91807652D01*
X189528533Y-91733557D01*
X189585147Y-91716384D01*
X189698373Y-91682037D01*
X189764558Y-91675518D01*
X189830740Y-91669000D01*
X189919260Y-91669000D01*
X189985442Y-91675518D01*
X189985442Y-91675518D01*
G37*
G36*
X144679485Y-88623996D02*
X144679487Y-88623997D01*
X144679488Y-88623997D01*
X144916255Y-88722069D01*
X145129342Y-88864449D01*
X145310551Y-89045658D01*
X145310553Y-89045661D01*
X145452931Y-89258745D01*
X145507222Y-89389814D01*
X145551004Y-89495515D01*
X145601000Y-89746861D01*
X145601000Y-90003139D01*
X145551004Y-90254485D01*
X145452931Y-90491255D01*
X145310551Y-90704342D01*
X145129342Y-90885551D01*
X145129339Y-90885553D01*
X144916255Y-91027931D01*
X144679488Y-91126003D01*
X144679487Y-91126003D01*
X144679485Y-91126004D01*
X144428139Y-91176000D01*
X144171861Y-91176000D01*
X143920515Y-91126004D01*
X143920513Y-91126003D01*
X143920512Y-91126003D01*
X143683745Y-91027931D01*
X143470661Y-90885553D01*
X143470658Y-90885551D01*
X143289449Y-90704342D01*
X143147069Y-90491255D01*
X143048996Y-90254485D01*
X142999000Y-90003139D01*
X142999000Y-89746861D01*
X143048996Y-89495515D01*
X143092779Y-89389814D01*
X143147069Y-89258745D01*
X143289447Y-89045661D01*
X143289449Y-89045658D01*
X143470658Y-88864449D01*
X143683745Y-88722069D01*
X143920512Y-88623997D01*
X143920513Y-88623997D01*
X143920515Y-88623996D01*
X144171861Y-88574000D01*
X144428139Y-88574000D01*
X144679485Y-88623996D01*
X144679485Y-88623996D01*
G37*
G36*
X189985442Y-89135518D02*
X190051627Y-89142037D01*
X190164853Y-89176384D01*
X190221467Y-89193557D01*
X190343423Y-89258745D01*
X190377991Y-89277222D01*
X190413729Y-89306552D01*
X190515186Y-89389814D01*
X190598448Y-89491271D01*
X190627778Y-89527009D01*
X190627779Y-89527011D01*
X190711443Y-89683533D01*
X190711443Y-89683534D01*
X190762963Y-89853373D01*
X190780359Y-90030000D01*
X190762963Y-90206627D01*
X190728616Y-90319853D01*
X190711443Y-90376467D01*
X190650087Y-90491255D01*
X190627778Y-90532991D01*
X190598448Y-90568729D01*
X190515186Y-90670186D01*
X190413729Y-90753448D01*
X190377991Y-90782778D01*
X190377989Y-90782779D01*
X190221467Y-90866443D01*
X190164853Y-90883616D01*
X190051627Y-90917963D01*
X189985442Y-90924482D01*
X189919260Y-90931000D01*
X189830740Y-90931000D01*
X189764557Y-90924481D01*
X189698373Y-90917963D01*
X189585147Y-90883616D01*
X189528533Y-90866443D01*
X189372011Y-90782779D01*
X189372009Y-90782778D01*
X189336271Y-90753448D01*
X189234814Y-90670186D01*
X189151552Y-90568729D01*
X189122222Y-90532991D01*
X189099913Y-90491255D01*
X189038557Y-90376467D01*
X189021384Y-90319853D01*
X188987037Y-90206627D01*
X188969641Y-90030000D01*
X188987037Y-89853373D01*
X189038557Y-89683534D01*
X189038557Y-89683533D01*
X189122221Y-89527011D01*
X189122222Y-89527009D01*
X189151552Y-89491271D01*
X189234814Y-89389814D01*
X189336271Y-89306552D01*
X189372009Y-89277222D01*
X189406577Y-89258745D01*
X189528533Y-89193557D01*
X189585147Y-89176384D01*
X189698373Y-89142037D01*
X189764557Y-89135519D01*
X189830740Y-89129000D01*
X189919260Y-89129000D01*
X189985442Y-89135518D01*
X189985442Y-89135518D01*
G37*
G36*
X189985443Y-86595519D02*
X190051627Y-86602037D01*
X190164853Y-86636384D01*
X190221467Y-86653557D01*
X190360087Y-86727652D01*
X190377991Y-86737222D01*
X190413729Y-86766552D01*
X190515186Y-86849814D01*
X190598448Y-86951271D01*
X190627778Y-86987009D01*
X190627779Y-86987011D01*
X190711443Y-87143533D01*
X190711443Y-87143534D01*
X190762963Y-87313373D01*
X190780359Y-87490000D01*
X190762963Y-87666627D01*
X190728616Y-87779853D01*
X190711443Y-87836467D01*
X190637348Y-87975087D01*
X190627778Y-87992991D01*
X190598448Y-88028729D01*
X190515186Y-88130186D01*
X190413729Y-88213448D01*
X190377991Y-88242778D01*
X190377989Y-88242779D01*
X190221467Y-88326443D01*
X190164853Y-88343616D01*
X190051627Y-88377963D01*
X189985442Y-88384482D01*
X189919260Y-88391000D01*
X189830740Y-88391000D01*
X189764558Y-88384482D01*
X189698373Y-88377963D01*
X189585147Y-88343616D01*
X189528533Y-88326443D01*
X189372011Y-88242779D01*
X189372009Y-88242778D01*
X189336271Y-88213448D01*
X189234814Y-88130186D01*
X189151552Y-88028729D01*
X189122222Y-87992991D01*
X189112652Y-87975087D01*
X189038557Y-87836467D01*
X189021384Y-87779853D01*
X188987037Y-87666627D01*
X188969641Y-87490000D01*
X188987037Y-87313373D01*
X189038557Y-87143534D01*
X189038557Y-87143533D01*
X189122221Y-86987011D01*
X189122222Y-86987009D01*
X189151552Y-86951271D01*
X189234814Y-86849814D01*
X189336271Y-86766552D01*
X189372009Y-86737222D01*
X189389913Y-86727652D01*
X189528533Y-86653557D01*
X189585147Y-86636384D01*
X189698373Y-86602037D01*
X189764557Y-86595519D01*
X189830740Y-86589000D01*
X189919260Y-86589000D01*
X189985443Y-86595519D01*
X189985443Y-86595519D01*
G37*
G36*
X189985442Y-84055518D02*
X190051627Y-84062037D01*
X190164853Y-84096384D01*
X190221467Y-84113557D01*
X190360087Y-84187652D01*
X190377991Y-84197222D01*
X190413729Y-84226552D01*
X190515186Y-84309814D01*
X190598448Y-84411271D01*
X190627778Y-84447009D01*
X190627779Y-84447011D01*
X190711443Y-84603533D01*
X190711443Y-84603534D01*
X190762963Y-84773373D01*
X190780359Y-84950000D01*
X190762963Y-85126627D01*
X190728616Y-85239853D01*
X190711443Y-85296467D01*
X190637348Y-85435087D01*
X190627778Y-85452991D01*
X190598448Y-85488729D01*
X190515186Y-85590186D01*
X190413729Y-85673448D01*
X190377991Y-85702778D01*
X190377989Y-85702779D01*
X190221467Y-85786443D01*
X190164853Y-85803616D01*
X190051627Y-85837963D01*
X189985442Y-85844482D01*
X189919260Y-85851000D01*
X189830740Y-85851000D01*
X189764558Y-85844482D01*
X189698373Y-85837963D01*
X189585147Y-85803616D01*
X189528533Y-85786443D01*
X189372011Y-85702779D01*
X189372009Y-85702778D01*
X189336271Y-85673448D01*
X189234814Y-85590186D01*
X189151552Y-85488729D01*
X189122222Y-85452991D01*
X189112652Y-85435087D01*
X189038557Y-85296467D01*
X189021384Y-85239853D01*
X188987037Y-85126627D01*
X188969641Y-84950000D01*
X188987037Y-84773373D01*
X189038557Y-84603534D01*
X189038557Y-84603533D01*
X189122221Y-84447011D01*
X189122222Y-84447009D01*
X189151552Y-84411271D01*
X189234814Y-84309814D01*
X189336271Y-84226552D01*
X189372009Y-84197222D01*
X189389913Y-84187652D01*
X189528533Y-84113557D01*
X189585147Y-84096384D01*
X189698373Y-84062037D01*
X189764558Y-84055518D01*
X189830740Y-84049000D01*
X189919260Y-84049000D01*
X189985442Y-84055518D01*
X189985442Y-84055518D01*
G37*
G36*
X152879485Y-71548996D02*
X152879487Y-71548997D01*
X152879488Y-71548997D01*
X153116255Y-71647069D01*
X153329342Y-71789449D01*
X153510551Y-71970658D01*
X153652931Y-72183745D01*
X153751004Y-72420515D01*
X153801000Y-72671861D01*
X153801000Y-72928139D01*
X153751004Y-73179485D01*
X153652931Y-73416255D01*
X153510551Y-73629342D01*
X153329342Y-73810551D01*
X153329339Y-73810553D01*
X153116255Y-73952931D01*
X152879488Y-74051003D01*
X152879487Y-74051003D01*
X152879485Y-74051004D01*
X152628139Y-74101000D01*
X152371861Y-74101000D01*
X152120515Y-74051004D01*
X152120513Y-74051003D01*
X152120512Y-74051003D01*
X151883745Y-73952931D01*
X151670661Y-73810553D01*
X151670658Y-73810551D01*
X151489449Y-73629342D01*
X151347069Y-73416255D01*
X151248996Y-73179485D01*
X151199000Y-72928139D01*
X151199000Y-72671861D01*
X151248996Y-72420515D01*
X151347069Y-72183745D01*
X151489449Y-71970658D01*
X151670658Y-71789449D01*
X151883745Y-71647069D01*
X152120512Y-71548997D01*
X152120513Y-71548997D01*
X152120515Y-71548996D01*
X152371861Y-71499000D01*
X152628139Y-71499000D01*
X152879485Y-71548996D01*
X152879485Y-71548996D01*
G37*
G36*
X170379485Y-71548996D02*
X170379487Y-71548997D01*
X170379488Y-71548997D01*
X170616255Y-71647069D01*
X170829342Y-71789449D01*
X171010551Y-71970658D01*
X171152931Y-72183745D01*
X171251004Y-72420515D01*
X171301000Y-72671861D01*
X171301000Y-72928139D01*
X171251004Y-73179485D01*
X171152931Y-73416255D01*
X171010551Y-73629342D01*
X170829342Y-73810551D01*
X170829339Y-73810553D01*
X170616255Y-73952931D01*
X170379488Y-74051003D01*
X170379487Y-74051003D01*
X170379485Y-74051004D01*
X170128139Y-74101000D01*
X169871861Y-74101000D01*
X169620515Y-74051004D01*
X169620513Y-74051003D01*
X169620512Y-74051003D01*
X169383745Y-73952931D01*
X169170661Y-73810553D01*
X169170658Y-73810551D01*
X168989449Y-73629342D01*
X168847069Y-73416255D01*
X168748996Y-73179485D01*
X168699000Y-72928139D01*
X168699000Y-72671861D01*
X168748996Y-72420515D01*
X168847069Y-72183745D01*
X168989449Y-71970658D01*
X169170658Y-71789449D01*
X169383745Y-71647069D01*
X169620512Y-71548997D01*
X169620513Y-71548997D01*
X169620515Y-71548996D01*
X169871861Y-71499000D01*
X170128139Y-71499000D01*
X170379485Y-71548996D01*
X170379485Y-71548996D01*
G37*
G36*
X166879485Y-71548996D02*
X166879487Y-71548997D01*
X166879488Y-71548997D01*
X167116255Y-71647069D01*
X167329342Y-71789449D01*
X167510551Y-71970658D01*
X167652931Y-72183745D01*
X167751004Y-72420515D01*
X167801000Y-72671861D01*
X167801000Y-72928139D01*
X167751004Y-73179485D01*
X167652931Y-73416255D01*
X167510551Y-73629342D01*
X167329342Y-73810551D01*
X167329339Y-73810553D01*
X167116255Y-73952931D01*
X166879488Y-74051003D01*
X166879487Y-74051003D01*
X166879485Y-74051004D01*
X166628139Y-74101000D01*
X166371861Y-74101000D01*
X166120515Y-74051004D01*
X166120513Y-74051003D01*
X166120512Y-74051003D01*
X165883745Y-73952931D01*
X165670661Y-73810553D01*
X165670658Y-73810551D01*
X165489449Y-73629342D01*
X165347069Y-73416255D01*
X165248996Y-73179485D01*
X165199000Y-72928139D01*
X165199000Y-72671861D01*
X165248996Y-72420515D01*
X165347069Y-72183745D01*
X165489449Y-71970658D01*
X165670658Y-71789449D01*
X165883745Y-71647069D01*
X166120512Y-71548997D01*
X166120513Y-71548997D01*
X166120515Y-71548996D01*
X166371861Y-71499000D01*
X166628139Y-71499000D01*
X166879485Y-71548996D01*
X166879485Y-71548996D01*
G37*
G36*
X163379485Y-71548996D02*
X163379487Y-71548997D01*
X163379488Y-71548997D01*
X163616255Y-71647069D01*
X163829342Y-71789449D01*
X164010551Y-71970658D01*
X164152931Y-72183745D01*
X164251004Y-72420515D01*
X164301000Y-72671861D01*
X164301000Y-72928139D01*
X164251004Y-73179485D01*
X164152931Y-73416255D01*
X164010551Y-73629342D01*
X163829342Y-73810551D01*
X163829339Y-73810553D01*
X163616255Y-73952931D01*
X163379488Y-74051003D01*
X163379487Y-74051003D01*
X163379485Y-74051004D01*
X163128139Y-74101000D01*
X162871861Y-74101000D01*
X162620515Y-74051004D01*
X162620513Y-74051003D01*
X162620512Y-74051003D01*
X162383745Y-73952931D01*
X162170661Y-73810553D01*
X162170658Y-73810551D01*
X161989449Y-73629342D01*
X161847069Y-73416255D01*
X161748996Y-73179485D01*
X161699000Y-72928139D01*
X161699000Y-72671861D01*
X161748996Y-72420515D01*
X161847069Y-72183745D01*
X161989449Y-71970658D01*
X162170658Y-71789449D01*
X162383745Y-71647069D01*
X162620512Y-71548997D01*
X162620513Y-71548997D01*
X162620515Y-71548996D01*
X162871861Y-71499000D01*
X163128139Y-71499000D01*
X163379485Y-71548996D01*
X163379485Y-71548996D01*
G37*
G36*
X159879485Y-71548996D02*
X159879487Y-71548997D01*
X159879488Y-71548997D01*
X160116255Y-71647069D01*
X160329342Y-71789449D01*
X160510551Y-71970658D01*
X160652931Y-72183745D01*
X160751004Y-72420515D01*
X160801000Y-72671861D01*
X160801000Y-72928139D01*
X160751004Y-73179485D01*
X160652931Y-73416255D01*
X160510551Y-73629342D01*
X160329342Y-73810551D01*
X160329339Y-73810553D01*
X160116255Y-73952931D01*
X159879488Y-74051003D01*
X159879487Y-74051003D01*
X159879485Y-74051004D01*
X159628139Y-74101000D01*
X159371861Y-74101000D01*
X159120515Y-74051004D01*
X159120513Y-74051003D01*
X159120512Y-74051003D01*
X158883745Y-73952931D01*
X158670661Y-73810553D01*
X158670658Y-73810551D01*
X158489449Y-73629342D01*
X158347069Y-73416255D01*
X158248996Y-73179485D01*
X158199000Y-72928139D01*
X158199000Y-72671861D01*
X158248996Y-72420515D01*
X158347069Y-72183745D01*
X158489449Y-71970658D01*
X158670658Y-71789449D01*
X158883745Y-71647069D01*
X159120512Y-71548997D01*
X159120513Y-71548997D01*
X159120515Y-71548996D01*
X159371861Y-71499000D01*
X159628139Y-71499000D01*
X159879485Y-71548996D01*
X159879485Y-71548996D01*
G37*
G36*
X156379485Y-71548996D02*
X156379487Y-71548997D01*
X156379488Y-71548997D01*
X156616255Y-71647069D01*
X156829342Y-71789449D01*
X157010551Y-71970658D01*
X157152931Y-72183745D01*
X157251004Y-72420515D01*
X157301000Y-72671861D01*
X157301000Y-72928139D01*
X157251004Y-73179485D01*
X157152931Y-73416255D01*
X157010551Y-73629342D01*
X156829342Y-73810551D01*
X156829339Y-73810553D01*
X156616255Y-73952931D01*
X156379488Y-74051003D01*
X156379487Y-74051003D01*
X156379485Y-74051004D01*
X156128139Y-74101000D01*
X155871861Y-74101000D01*
X155620515Y-74051004D01*
X155620513Y-74051003D01*
X155620512Y-74051003D01*
X155383745Y-73952931D01*
X155170661Y-73810553D01*
X155170658Y-73810551D01*
X154989449Y-73629342D01*
X154847069Y-73416255D01*
X154748996Y-73179485D01*
X154699000Y-72928139D01*
X154699000Y-72671861D01*
X154748996Y-72420515D01*
X154847069Y-72183745D01*
X154989449Y-71970658D01*
X155170658Y-71789449D01*
X155383745Y-71647069D01*
X155620512Y-71548997D01*
X155620513Y-71548997D01*
X155620515Y-71548996D01*
X155871861Y-71499000D01*
X156128139Y-71499000D01*
X156379485Y-71548996D01*
X156379485Y-71548996D01*
G37*
G36*
X177379485Y-71548996D02*
X177379487Y-71548997D01*
X177379488Y-71548997D01*
X177616255Y-71647069D01*
X177829342Y-71789449D01*
X178010551Y-71970658D01*
X178152931Y-72183745D01*
X178251004Y-72420515D01*
X178301000Y-72671861D01*
X178301000Y-72928139D01*
X178251004Y-73179485D01*
X178152931Y-73416255D01*
X178010551Y-73629342D01*
X177829342Y-73810551D01*
X177829339Y-73810553D01*
X177616255Y-73952931D01*
X177379488Y-74051003D01*
X177379487Y-74051003D01*
X177379485Y-74051004D01*
X177128139Y-74101000D01*
X176871861Y-74101000D01*
X176620515Y-74051004D01*
X176620513Y-74051003D01*
X176620512Y-74051003D01*
X176383745Y-73952931D01*
X176170661Y-73810553D01*
X176170658Y-73810551D01*
X175989449Y-73629342D01*
X175847069Y-73416255D01*
X175748996Y-73179485D01*
X175699000Y-72928139D01*
X175699000Y-72671861D01*
X175748996Y-72420515D01*
X175847069Y-72183745D01*
X175989449Y-71970658D01*
X176170658Y-71789449D01*
X176383745Y-71647069D01*
X176620512Y-71548997D01*
X176620513Y-71548997D01*
X176620515Y-71548996D01*
X176871861Y-71499000D01*
X177128139Y-71499000D01*
X177379485Y-71548996D01*
X177379485Y-71548996D01*
G37*
G36*
X173879485Y-71548996D02*
X173879487Y-71548997D01*
X173879488Y-71548997D01*
X174116255Y-71647069D01*
X174329342Y-71789449D01*
X174510551Y-71970658D01*
X174652931Y-72183745D01*
X174751004Y-72420515D01*
X174801000Y-72671861D01*
X174801000Y-72928139D01*
X174751004Y-73179485D01*
X174652931Y-73416255D01*
X174510551Y-73629342D01*
X174329342Y-73810551D01*
X174329339Y-73810553D01*
X174116255Y-73952931D01*
X173879488Y-74051003D01*
X173879487Y-74051003D01*
X173879485Y-74051004D01*
X173628139Y-74101000D01*
X173371861Y-74101000D01*
X173120515Y-74051004D01*
X173120513Y-74051003D01*
X173120512Y-74051003D01*
X172883745Y-73952931D01*
X172670661Y-73810553D01*
X172670658Y-73810551D01*
X172489449Y-73629342D01*
X172347069Y-73416255D01*
X172248996Y-73179485D01*
X172199000Y-72928139D01*
X172199000Y-72671861D01*
X172248996Y-72420515D01*
X172347069Y-72183745D01*
X172489449Y-71970658D01*
X172670658Y-71789449D01*
X172883745Y-71647069D01*
X173120512Y-71548997D01*
X173120513Y-71548997D01*
X173120515Y-71548996D01*
X173371861Y-71499000D01*
X173628139Y-71499000D01*
X173879485Y-71548996D01*
X173879485Y-71548996D01*
G37*
M02*
