M48
;DRILL file {KiCad (5.0.1)-3} date 10/30/2018 2:34:55 PM
;FORMAT={2:4/ absolute / inch / suppress leading zeros}
FMAT,2
INCH,TZ
T1C0.0157
T2C0.0394
T3C0.0492
%
G90
G05
M72
T1
X61319Y-33071
X61496Y-37067
X61722Y-35925
X61742Y-32028
X62402Y-36772
X62785Y-38839
X63091Y-33760
X63337Y-39232
X63337Y-39695
X63819Y-33150
X64370Y-34055
X64705Y-33760
X65315Y-33415
X65630Y-37283
X65955Y-38839
X66270Y-39232
X66378Y-32815
X66880Y-39400
X67520Y-38976
X67717Y-36417
X67815Y-33760
X68209Y-36122
X68307Y-34055
X68799Y-32618
X68799Y-35827
X68898Y-39469
X69587Y-35531
X70276Y-39469
X70571Y-36614
X70571Y-37598
X72333Y-33720
X72736Y-36220
X73622Y-33760
X73730Y-35453
T2
X74754Y-33445
X74754Y-34445
X74754Y-35445
X74754Y-36445
X74754Y-37445
X74754Y-38445
X56467Y-39856
X56467Y-40856
X56467Y-41856
X57467Y-39856
X57467Y-40856
X57467Y-41856
T3
X60630Y-43051
X62008Y-43051
X63386Y-43051
X64764Y-43051
X66142Y-43051
X67520Y-43051
X68898Y-43051
X70276Y-43051
X60039Y-28661
X61417Y-28661
X62795Y-28661
X64173Y-28661
X65551Y-28661
X66929Y-28661
X68307Y-28661
X69685Y-28661
X56811Y-35384
X56811Y-36762
T0
M30
