G04 #@! TF.FileFunction,Soldermask,Top*
%FSLAX46Y46*%
G04 Gerber Fmt 4.6, Leading zero omitted, Abs format (unit mm)*
G04 Created by KiCad (PCBNEW 4.0.7) date 10/19/18 11:12:39*
%MOMM*%
%LPD*%
G01*
G04 APERTURE LIST*
%ADD10C,0.100000*%
%ADD11R,1.820000X2.340000*%
%ADD12R,0.740000X0.340000*%
%ADD13R,2.400000X2.400000*%
%ADD14C,2.400000*%
%ADD15R,1.400000X2.000000*%
%ADD16R,2.000000X1.400000*%
%ADD17R,2.100000X2.100000*%
%ADD18O,2.100000X2.100000*%
%ADD19R,4.300000X1.600000*%
%ADD20R,1.300000X2.100000*%
%ADD21R,2.100000X1.300000*%
%ADD22C,2.600000*%
%ADD23R,2.000000X0.950000*%
%ADD24R,0.950000X2.000000*%
%ADD25R,0.850000X0.850000*%
%ADD26R,1.190000X0.740000*%
%ADD27R,1.400000X1.650000*%
G04 APERTURE END LIST*
D10*
D11*
X154500000Y-136500000D03*
D12*
X153100000Y-135500000D03*
X153100000Y-135900000D03*
X153100000Y-136300000D03*
X153100000Y-136700000D03*
X153100000Y-137100000D03*
X153100000Y-137500000D03*
X155900000Y-137500000D03*
X155900000Y-137100000D03*
X155900000Y-136700000D03*
X155900000Y-136300000D03*
X155900000Y-135900000D03*
X155900000Y-135500000D03*
D13*
X138480000Y-134770000D03*
D14*
X141020000Y-134770000D03*
D15*
X145200000Y-144500000D03*
X148200000Y-144500000D03*
X157000000Y-140500000D03*
X154000000Y-140500000D03*
X157000000Y-143000000D03*
X154000000Y-143000000D03*
X166750000Y-122000000D03*
X169750000Y-122000000D03*
X169750000Y-124500000D03*
X166750000Y-124500000D03*
D16*
X154725000Y-112800000D03*
X154725000Y-115800000D03*
D15*
X156350000Y-106200000D03*
X153350000Y-106200000D03*
D16*
X172500000Y-117000000D03*
X172500000Y-120000000D03*
X171500000Y-113500000D03*
X171500000Y-110500000D03*
X163500000Y-114000000D03*
X163500000Y-111000000D03*
D17*
X173350000Y-128500000D03*
D18*
X175890000Y-128500000D03*
X173350000Y-131040000D03*
X175890000Y-131040000D03*
X173350000Y-133580000D03*
X175890000Y-133580000D03*
D17*
X175900000Y-120275000D03*
D18*
X175900000Y-117735000D03*
X175900000Y-115195000D03*
X175900000Y-112655000D03*
X175900000Y-110115000D03*
X175900000Y-107575000D03*
D19*
X149400000Y-134900000D03*
X149400000Y-137700000D03*
D20*
X172275000Y-142225000D03*
X169375000Y-142225000D03*
X161200000Y-132500000D03*
X158300000Y-132500000D03*
X170875000Y-139450000D03*
X167975000Y-139450000D03*
X168500000Y-136675000D03*
X165600000Y-136675000D03*
X168500000Y-133925000D03*
X165600000Y-133925000D03*
D21*
X159500000Y-137950000D03*
X159500000Y-135050000D03*
X162250000Y-137950000D03*
X162250000Y-135050000D03*
D20*
X162025000Y-140150000D03*
X164925000Y-140150000D03*
D21*
X152025000Y-118700000D03*
X152025000Y-115800000D03*
X170000000Y-117050000D03*
X170000000Y-119950000D03*
X169000000Y-113350000D03*
X169000000Y-110450000D03*
X161000000Y-113850000D03*
X161000000Y-110950000D03*
D14*
X137200000Y-141250000D03*
X139740000Y-141250000D03*
X134660000Y-141250000D03*
D22*
X168475000Y-103000000D03*
X175475000Y-103000000D03*
D23*
X155500000Y-119950000D03*
X155500000Y-120750000D03*
X155500000Y-121550000D03*
X155500000Y-122350000D03*
X155500000Y-123150000D03*
X155500000Y-123950000D03*
X155500000Y-124750000D03*
X155500000Y-125550000D03*
D24*
X156950000Y-127000000D03*
X157750000Y-127000000D03*
X158550000Y-127000000D03*
X159350000Y-127000000D03*
X160150000Y-127000000D03*
X160950000Y-127000000D03*
X161750000Y-127000000D03*
X162550000Y-127000000D03*
D23*
X164000000Y-125550000D03*
X164000000Y-124750000D03*
X164000000Y-123950000D03*
X164000000Y-123150000D03*
X164000000Y-122350000D03*
X164000000Y-121550000D03*
X164000000Y-120750000D03*
X164000000Y-119950000D03*
D24*
X162550000Y-118500000D03*
X161750000Y-118500000D03*
X160950000Y-118500000D03*
X160150000Y-118500000D03*
X159350000Y-118500000D03*
X158550000Y-118500000D03*
X157750000Y-118500000D03*
X156950000Y-118500000D03*
D17*
X163750000Y-102800000D03*
D18*
X161210000Y-102800000D03*
X158670000Y-102800000D03*
X156130000Y-102800000D03*
X153590000Y-102800000D03*
X151050000Y-102800000D03*
D25*
X166800000Y-143575000D03*
X166800000Y-142725000D03*
X167650000Y-142725000D03*
X167650000Y-143575000D03*
X160000000Y-143575000D03*
X160000000Y-142725000D03*
X160850000Y-142725000D03*
X160850000Y-143575000D03*
D26*
X145350000Y-141200000D03*
X148050000Y-140250000D03*
X148050000Y-142150000D03*
D27*
X152000000Y-131500000D03*
X154000000Y-131500000D03*
M02*
