G04 #@! TF.FileFunction,Legend,Bot*
%FSLAX46Y46*%
G04 Gerber Fmt 4.6, Leading zero omitted, Abs format (unit mm)*
G04 Created by KiCad (PCBNEW 4.0.7) date 10/19/18 11:12:39*
%MOMM*%
%LPD*%
G01*
G04 APERTURE LIST*
%ADD10C,0.100000*%
%ADD11C,0.300000*%
%ADD12C,0.200000*%
%ADD13C,0.150000*%
G04 APERTURE END LIST*
D10*
D11*
X172999999Y-118892857D02*
X173499999Y-118892857D01*
X173499999Y-119678571D02*
X173499999Y-118178571D01*
X172785713Y-118178571D01*
X171428571Y-119678571D02*
X172285714Y-119678571D01*
X171857142Y-119678571D02*
X171857142Y-118178571D01*
X171999999Y-118392857D01*
X172142857Y-118535714D01*
X172285714Y-118607143D01*
X172899999Y-113742857D02*
X173399999Y-113742857D01*
X173399999Y-114528571D02*
X173399999Y-113028571D01*
X172685713Y-113028571D01*
X172185714Y-113171429D02*
X172114285Y-113100000D01*
X171971428Y-113028571D01*
X171614285Y-113028571D01*
X171471428Y-113100000D01*
X171399999Y-113171429D01*
X171328571Y-113314286D01*
X171328571Y-113457143D01*
X171399999Y-113671429D01*
X172257142Y-114528571D01*
X171328571Y-114528571D01*
X172899999Y-108742857D02*
X173399999Y-108742857D01*
X173399999Y-109528571D02*
X173399999Y-108028571D01*
X172685713Y-108028571D01*
X172257142Y-108028571D02*
X171328571Y-108028571D01*
X171828571Y-108600000D01*
X171614285Y-108600000D01*
X171471428Y-108671429D01*
X171399999Y-108742857D01*
X171328571Y-108885714D01*
X171328571Y-109242857D01*
X171399999Y-109385714D01*
X171471428Y-109457143D01*
X171614285Y-109528571D01*
X172042857Y-109528571D01*
X172185714Y-109457143D01*
X172257142Y-109385714D01*
D12*
X173750000Y-140700000D02*
X173750000Y-136300000D01*
X169200000Y-140700000D02*
X169300000Y-140700000D01*
X169200000Y-136300000D02*
X169200000Y-140700000D01*
X177650000Y-136300000D02*
X169200000Y-136300000D01*
X177650000Y-140700000D02*
X177650000Y-136300000D01*
X169300000Y-140700000D02*
X177650000Y-140700000D01*
D13*
X177326190Y-136602381D02*
X176707142Y-136602381D01*
X177040476Y-136983333D01*
X176897618Y-136983333D01*
X176802380Y-137030952D01*
X176754761Y-137078571D01*
X176707142Y-137173810D01*
X176707142Y-137411905D01*
X176754761Y-137507143D01*
X176802380Y-137554762D01*
X176897618Y-137602381D01*
X177183333Y-137602381D01*
X177278571Y-137554762D01*
X177326190Y-137507143D01*
X176278571Y-137507143D02*
X176230952Y-137554762D01*
X176278571Y-137602381D01*
X176326190Y-137554762D01*
X176278571Y-137507143D01*
X176278571Y-137602381D01*
X175897619Y-136602381D02*
X175278571Y-136602381D01*
X175611905Y-136983333D01*
X175469047Y-136983333D01*
X175373809Y-137030952D01*
X175326190Y-137078571D01*
X175278571Y-137173810D01*
X175278571Y-137411905D01*
X175326190Y-137507143D01*
X175373809Y-137554762D01*
X175469047Y-137602381D01*
X175754762Y-137602381D01*
X175850000Y-137554762D01*
X175897619Y-137507143D01*
X174992857Y-136602381D02*
X174659524Y-137602381D01*
X174326190Y-136602381D01*
X173271428Y-137652381D02*
X173271428Y-136652381D01*
X172938094Y-137366667D01*
X172604761Y-136652381D01*
X172604761Y-137652381D01*
X172128571Y-137652381D02*
X172128571Y-136652381D01*
X171700000Y-137604762D02*
X171557143Y-137652381D01*
X171319047Y-137652381D01*
X171223809Y-137604762D01*
X171176190Y-137557143D01*
X171128571Y-137461905D01*
X171128571Y-137366667D01*
X171176190Y-137271429D01*
X171223809Y-137223810D01*
X171319047Y-137176190D01*
X171509524Y-137128571D01*
X171604762Y-137080952D01*
X171652381Y-137033333D01*
X171700000Y-136938095D01*
X171700000Y-136842857D01*
X171652381Y-136747619D01*
X171604762Y-136700000D01*
X171509524Y-136652381D01*
X171271428Y-136652381D01*
X171128571Y-136700000D01*
X170509524Y-136652381D02*
X170319047Y-136652381D01*
X170223809Y-136700000D01*
X170128571Y-136795238D01*
X170080952Y-136985714D01*
X170080952Y-137319048D01*
X170128571Y-137509524D01*
X170223809Y-137604762D01*
X170319047Y-137652381D01*
X170509524Y-137652381D01*
X170604762Y-137604762D01*
X170700000Y-137509524D01*
X170747619Y-137319048D01*
X170747619Y-136985714D01*
X170700000Y-136795238D01*
X170604762Y-136700000D01*
X170509524Y-136652381D01*
X173285714Y-139004762D02*
X173142857Y-139052381D01*
X172904761Y-139052381D01*
X172809523Y-139004762D01*
X172761904Y-138957143D01*
X172714285Y-138861905D01*
X172714285Y-138766667D01*
X172761904Y-138671429D01*
X172809523Y-138623810D01*
X172904761Y-138576190D01*
X173095238Y-138528571D01*
X173190476Y-138480952D01*
X173238095Y-138433333D01*
X173285714Y-138338095D01*
X173285714Y-138242857D01*
X173238095Y-138147619D01*
X173190476Y-138100000D01*
X173095238Y-138052381D01*
X172857142Y-138052381D01*
X172714285Y-138100000D01*
X171714285Y-138957143D02*
X171761904Y-139004762D01*
X171904761Y-139052381D01*
X171999999Y-139052381D01*
X172142857Y-139004762D01*
X172238095Y-138909524D01*
X172285714Y-138814286D01*
X172333333Y-138623810D01*
X172333333Y-138480952D01*
X172285714Y-138290476D01*
X172238095Y-138195238D01*
X172142857Y-138100000D01*
X171999999Y-138052381D01*
X171904761Y-138052381D01*
X171761904Y-138100000D01*
X171714285Y-138147619D01*
X171285714Y-139052381D02*
X171285714Y-138052381D01*
X170714285Y-139052381D02*
X171142857Y-138480952D01*
X170714285Y-138052381D02*
X171285714Y-138623810D01*
X177321428Y-139002381D02*
X177321428Y-138002381D01*
X176988094Y-138716667D01*
X176654761Y-138002381D01*
X176654761Y-139002381D01*
X175988095Y-138002381D02*
X175797618Y-138002381D01*
X175702380Y-138050000D01*
X175607142Y-138145238D01*
X175559523Y-138335714D01*
X175559523Y-138669048D01*
X175607142Y-138859524D01*
X175702380Y-138954762D01*
X175797618Y-139002381D01*
X175988095Y-139002381D01*
X176083333Y-138954762D01*
X176178571Y-138859524D01*
X176226190Y-138669048D01*
X176226190Y-138335714D01*
X176178571Y-138145238D01*
X176083333Y-138050000D01*
X175988095Y-138002381D01*
X175178571Y-138954762D02*
X175035714Y-139002381D01*
X174797618Y-139002381D01*
X174702380Y-138954762D01*
X174654761Y-138907143D01*
X174607142Y-138811905D01*
X174607142Y-138716667D01*
X174654761Y-138621429D01*
X174702380Y-138573810D01*
X174797618Y-138526190D01*
X174988095Y-138478571D01*
X175083333Y-138430952D01*
X175130952Y-138383333D01*
X175178571Y-138288095D01*
X175178571Y-138192857D01*
X175130952Y-138097619D01*
X175083333Y-138050000D01*
X174988095Y-138002381D01*
X174749999Y-138002381D01*
X174607142Y-138050000D01*
X174178571Y-139002381D02*
X174178571Y-138002381D01*
X176761904Y-139500000D02*
X176857142Y-139452381D01*
X176999999Y-139452381D01*
X177142857Y-139500000D01*
X177238095Y-139595238D01*
X177285714Y-139690476D01*
X177333333Y-139880952D01*
X177333333Y-140023810D01*
X177285714Y-140214286D01*
X177238095Y-140309524D01*
X177142857Y-140404762D01*
X176999999Y-140452381D01*
X176904761Y-140452381D01*
X176761904Y-140404762D01*
X176714285Y-140357143D01*
X176714285Y-140023810D01*
X176904761Y-140023810D01*
X176285714Y-140452381D02*
X176285714Y-139452381D01*
X175714285Y-140452381D01*
X175714285Y-139452381D01*
X175238095Y-140452381D02*
X175238095Y-139452381D01*
X175000000Y-139452381D01*
X174857142Y-139500000D01*
X174761904Y-139595238D01*
X174714285Y-139690476D01*
X174666666Y-139880952D01*
X174666666Y-140023810D01*
X174714285Y-140214286D01*
X174761904Y-140309524D01*
X174857142Y-140404762D01*
X175000000Y-140452381D01*
X175238095Y-140452381D01*
X172738095Y-140452381D02*
X173071429Y-139976190D01*
X173309524Y-140452381D02*
X173309524Y-139452381D01*
X172928571Y-139452381D01*
X172833333Y-139500000D01*
X172785714Y-139547619D01*
X172738095Y-139642857D01*
X172738095Y-139785714D01*
X172785714Y-139880952D01*
X172833333Y-139928571D01*
X172928571Y-139976190D01*
X173309524Y-139976190D01*
X171928571Y-140404762D02*
X172023809Y-140452381D01*
X172214286Y-140452381D01*
X172309524Y-140404762D01*
X172357143Y-140309524D01*
X172357143Y-139928571D01*
X172309524Y-139833333D01*
X172214286Y-139785714D01*
X172023809Y-139785714D01*
X171928571Y-139833333D01*
X171880952Y-139928571D01*
X171880952Y-140023810D01*
X172357143Y-140119048D01*
X171500000Y-140404762D02*
X171404762Y-140452381D01*
X171214286Y-140452381D01*
X171119047Y-140404762D01*
X171071428Y-140309524D01*
X171071428Y-140261905D01*
X171119047Y-140166667D01*
X171214286Y-140119048D01*
X171357143Y-140119048D01*
X171452381Y-140071429D01*
X171500000Y-139976190D01*
X171500000Y-139928571D01*
X171452381Y-139833333D01*
X171357143Y-139785714D01*
X171214286Y-139785714D01*
X171119047Y-139833333D01*
X170261904Y-140404762D02*
X170357142Y-140452381D01*
X170547619Y-140452381D01*
X170642857Y-140404762D01*
X170690476Y-140309524D01*
X170690476Y-139928571D01*
X170642857Y-139833333D01*
X170547619Y-139785714D01*
X170357142Y-139785714D01*
X170261904Y-139833333D01*
X170214285Y-139928571D01*
X170214285Y-140023810D01*
X170690476Y-140119048D01*
X169928571Y-139785714D02*
X169547619Y-139785714D01*
X169785714Y-139452381D02*
X169785714Y-140309524D01*
X169738095Y-140404762D01*
X169642857Y-140452381D01*
X169547619Y-140452381D01*
X173547619Y-139280000D02*
X169452380Y-139280000D01*
M02*
