G04 #@! TF.FileFunction,Copper,L1,Top,Signal*
%FSLAX46Y46*%
G04 Gerber Fmt 4.6, Leading zero omitted, Abs format (unit mm)*
G04 Created by KiCad (PCBNEW 4.0.7) date 10/19/18 11:12:39*
%MOMM*%
%LPD*%
G01*
G04 APERTURE LIST*
%ADD10C,0.100000*%
%ADD11R,1.680000X2.200000*%
%ADD12R,0.600000X0.200000*%
%ADD13R,2.000000X2.000000*%
%ADD14C,2.000000*%
%ADD15R,1.000000X1.600000*%
%ADD16R,1.600000X1.000000*%
%ADD17R,1.700000X1.700000*%
%ADD18O,1.700000X1.700000*%
%ADD19R,3.900000X1.200000*%
%ADD20R,0.900000X1.700000*%
%ADD21R,1.700000X0.900000*%
%ADD22C,2.200000*%
%ADD23R,1.600000X0.550000*%
%ADD24R,0.550000X1.600000*%
%ADD25R,0.450000X0.450000*%
%ADD26R,1.050000X0.600000*%
%ADD27R,1.000000X1.250000*%
%ADD28C,0.600000*%
%ADD29C,0.300000*%
%ADD30C,0.200000*%
%ADD31C,0.220000*%
%ADD32C,0.250000*%
%ADD33C,0.500000*%
%ADD34C,0.254000*%
%ADD35C,0.025400*%
G04 APERTURE END LIST*
D10*
D11*
X154500000Y-136500000D03*
D12*
X153100000Y-135500000D03*
X153100000Y-135900000D03*
X153100000Y-136300000D03*
X153100000Y-136700000D03*
X153100000Y-137100000D03*
X153100000Y-137500000D03*
X155900000Y-137500000D03*
X155900000Y-137100000D03*
X155900000Y-136700000D03*
X155900000Y-136300000D03*
X155900000Y-135900000D03*
X155900000Y-135500000D03*
D13*
X138480000Y-134770000D03*
D14*
X141020000Y-134770000D03*
D15*
X145200000Y-144500000D03*
X148200000Y-144500000D03*
X157000000Y-140500000D03*
X154000000Y-140500000D03*
X157000000Y-143000000D03*
X154000000Y-143000000D03*
X166750000Y-122000000D03*
X169750000Y-122000000D03*
X169750000Y-124500000D03*
X166750000Y-124500000D03*
D16*
X154725000Y-112800000D03*
X154725000Y-115800000D03*
D15*
X156350000Y-106200000D03*
X153350000Y-106200000D03*
D16*
X172500000Y-117000000D03*
X172500000Y-120000000D03*
X171500000Y-113500000D03*
X171500000Y-110500000D03*
X163500000Y-114000000D03*
X163500000Y-111000000D03*
D17*
X173350000Y-128500000D03*
D18*
X175890000Y-128500000D03*
X173350000Y-131040000D03*
X175890000Y-131040000D03*
X173350000Y-133580000D03*
X175890000Y-133580000D03*
D17*
X175900000Y-120275000D03*
D18*
X175900000Y-117735000D03*
X175900000Y-115195000D03*
X175900000Y-112655000D03*
X175900000Y-110115000D03*
X175900000Y-107575000D03*
D19*
X149400000Y-134900000D03*
X149400000Y-137700000D03*
D20*
X172275000Y-142225000D03*
X169375000Y-142225000D03*
X161200000Y-132500000D03*
X158300000Y-132500000D03*
X170875000Y-139450000D03*
X167975000Y-139450000D03*
X168500000Y-136675000D03*
X165600000Y-136675000D03*
X168500000Y-133925000D03*
X165600000Y-133925000D03*
D21*
X159500000Y-137950000D03*
X159500000Y-135050000D03*
X162250000Y-137950000D03*
X162250000Y-135050000D03*
D20*
X162025000Y-140150000D03*
X164925000Y-140150000D03*
D21*
X152025000Y-118700000D03*
X152025000Y-115800000D03*
X170000000Y-117050000D03*
X170000000Y-119950000D03*
X169000000Y-113350000D03*
X169000000Y-110450000D03*
X161000000Y-113850000D03*
X161000000Y-110950000D03*
D14*
X137200000Y-141250000D03*
X139740000Y-141250000D03*
X134660000Y-141250000D03*
D22*
X168475000Y-103000000D03*
X175475000Y-103000000D03*
D23*
X155500000Y-119950000D03*
X155500000Y-120750000D03*
X155500000Y-121550000D03*
X155500000Y-122350000D03*
X155500000Y-123150000D03*
X155500000Y-123950000D03*
X155500000Y-124750000D03*
X155500000Y-125550000D03*
D24*
X156950000Y-127000000D03*
X157750000Y-127000000D03*
X158550000Y-127000000D03*
X159350000Y-127000000D03*
X160150000Y-127000000D03*
X160950000Y-127000000D03*
X161750000Y-127000000D03*
X162550000Y-127000000D03*
D23*
X164000000Y-125550000D03*
X164000000Y-124750000D03*
X164000000Y-123950000D03*
X164000000Y-123150000D03*
X164000000Y-122350000D03*
X164000000Y-121550000D03*
X164000000Y-120750000D03*
X164000000Y-119950000D03*
D24*
X162550000Y-118500000D03*
X161750000Y-118500000D03*
X160950000Y-118500000D03*
X160150000Y-118500000D03*
X159350000Y-118500000D03*
X158550000Y-118500000D03*
X157750000Y-118500000D03*
X156950000Y-118500000D03*
D17*
X163750000Y-102800000D03*
D18*
X161210000Y-102800000D03*
X158670000Y-102800000D03*
X156130000Y-102800000D03*
X153590000Y-102800000D03*
X151050000Y-102800000D03*
D25*
X166800000Y-143575000D03*
X166800000Y-142725000D03*
X167650000Y-142725000D03*
X167650000Y-143575000D03*
X160000000Y-143575000D03*
X160000000Y-142725000D03*
X160850000Y-142725000D03*
X160850000Y-143575000D03*
D26*
X145350000Y-141200000D03*
X148050000Y-140250000D03*
X148050000Y-142150000D03*
D27*
X152000000Y-131500000D03*
X154000000Y-131500000D03*
D28*
X152125000Y-137375000D03*
X154025000Y-138450000D03*
X157600000Y-106200000D03*
X156875000Y-136700000D03*
X150050000Y-136300000D03*
X150950000Y-136300000D03*
X149050000Y-136300000D03*
X155010000Y-137270000D03*
X153990000Y-137270000D03*
X155010000Y-135730000D03*
X153990000Y-135740000D03*
X157100000Y-123150000D03*
X162400000Y-122350000D03*
X157000000Y-144600000D03*
X153150000Y-112800000D03*
X149350000Y-142150000D03*
X154250000Y-130100000D03*
X155800000Y-131500000D03*
X154250000Y-132900000D03*
X163500000Y-109800000D03*
X173100000Y-110500000D03*
X171250000Y-123250000D03*
X172500000Y-121350000D03*
X156900000Y-115150000D03*
X159450000Y-115150000D03*
X171000000Y-127775000D03*
X171000000Y-129875000D03*
X165400000Y-128975000D03*
X161300000Y-123925000D03*
X165900000Y-119950000D03*
X152500000Y-108000000D03*
D29*
X137200000Y-141250000D02*
X137200000Y-138500000D01*
X145200000Y-139150000D02*
X145200000Y-141300000D01*
X144350000Y-138300000D02*
X145200000Y-139150000D01*
X137400000Y-138300000D02*
X144350000Y-138300000D01*
X137200000Y-138500000D02*
X137400000Y-138300000D01*
X145200000Y-141300000D02*
X145350000Y-141200000D01*
X145200000Y-141250000D02*
X145350000Y-141200000D01*
D30*
X153100000Y-137100000D02*
X152400000Y-137100000D01*
X152400000Y-137100000D02*
X152125000Y-137375000D01*
D29*
X154025000Y-138450000D02*
X154425000Y-138850000D01*
X154425000Y-138850000D02*
X154425000Y-138950000D01*
X154000000Y-140500000D02*
X154000000Y-139375000D01*
X154000000Y-139375000D02*
X154425000Y-138950000D01*
X154425000Y-138950000D02*
X154575000Y-138800000D01*
X154575000Y-138800000D02*
X155600000Y-138800000D01*
X155600000Y-138800000D02*
X155900000Y-138500000D01*
X155900000Y-138500000D02*
X155900000Y-137800000D01*
D31*
X155900000Y-135900000D02*
X157025000Y-135900000D01*
X156850000Y-137650000D02*
X156175000Y-137650000D01*
X157525000Y-136975000D02*
X156850000Y-137650000D01*
X157525000Y-136400000D02*
X157525000Y-136975000D01*
X157025000Y-135900000D02*
X157525000Y-136400000D01*
D29*
X145200000Y-141200000D02*
X145350000Y-141200000D01*
X137200000Y-141250000D02*
X137200000Y-143950000D01*
X137200000Y-143950000D02*
X138000000Y-144750000D01*
X138000000Y-144750000D02*
X144975000Y-144750000D01*
D32*
X144975000Y-144750000D02*
X145200000Y-144500000D01*
D29*
X145350000Y-141200000D02*
X151375000Y-141200000D01*
X151375000Y-141200000D02*
X152050000Y-140525000D01*
X152050000Y-140525000D02*
X153975000Y-140525000D01*
D32*
X153975000Y-140525000D02*
X154000000Y-140500000D01*
D29*
X145200000Y-144500000D02*
X145200000Y-141325000D01*
X145200000Y-141325000D02*
X145350000Y-141200000D01*
X154000000Y-143000000D02*
X154000000Y-140525000D01*
D32*
X154000000Y-140525000D02*
X154000000Y-140500000D01*
D29*
X156350000Y-106200000D02*
X157600000Y-106200000D01*
X156350000Y-106200000D02*
X156350000Y-103000000D01*
X156350000Y-103000000D02*
X156150000Y-102800000D01*
X156150000Y-102800000D02*
X156130000Y-102800000D01*
X155900000Y-136700000D02*
X156875000Y-136700000D01*
D30*
X149050000Y-136300000D02*
X150050000Y-136300000D01*
X150950000Y-136300000D02*
X153100000Y-136300000D01*
X150050000Y-136300000D02*
X150950000Y-136300000D01*
D32*
X154500000Y-136500000D02*
X154500000Y-136760000D01*
X154500000Y-136760000D02*
X155010000Y-137270000D01*
X154500000Y-136760000D02*
X153990000Y-137270000D01*
X154500000Y-136500000D02*
X154500000Y-136240000D01*
X154500000Y-136240000D02*
X155010000Y-135730000D01*
X154500000Y-136500000D02*
X154500000Y-136250000D01*
X154500000Y-136250000D02*
X153990000Y-135740000D01*
X155500000Y-123150000D02*
X157100000Y-123150000D01*
X164000000Y-122350000D02*
X162400000Y-122350000D01*
X157000000Y-143000000D02*
X157000000Y-144600000D01*
X154725000Y-112800000D02*
X153150000Y-112800000D01*
D29*
X148050000Y-142150000D02*
X149350000Y-142150000D01*
D32*
X154250000Y-131500000D02*
X154250000Y-130100000D01*
X154250000Y-131500000D02*
X155800000Y-131500000D01*
X154250000Y-131500000D02*
X154250000Y-132900000D01*
X163500000Y-111000000D02*
X163500000Y-109800000D01*
X163500000Y-111000000D02*
X161000000Y-111000000D01*
X161000000Y-111000000D02*
X161000000Y-110950000D01*
X171500000Y-110500000D02*
X173100000Y-110500000D01*
X171500000Y-110500000D02*
X169000000Y-110500000D01*
X169000000Y-110500000D02*
X169000000Y-110450000D01*
X169750000Y-123250000D02*
X171250000Y-123250000D01*
X172500000Y-120000000D02*
X172500000Y-121350000D01*
X172500000Y-120000000D02*
X170050000Y-120000000D01*
X170050000Y-120000000D02*
X170025000Y-119975000D01*
X170025000Y-119975000D02*
X170000000Y-119950000D01*
X169750000Y-124500000D02*
X169750000Y-123250000D01*
X169750000Y-123250000D02*
X169750000Y-122000000D01*
X169750000Y-122000000D02*
X170000000Y-121750000D01*
X170000000Y-121750000D02*
X170000000Y-119950000D01*
D29*
X148200000Y-144500000D02*
X148200000Y-142300000D01*
X148200000Y-142300000D02*
X148050000Y-142150000D01*
D32*
X157000000Y-140500000D02*
X157000000Y-142700000D01*
X157000000Y-142700000D02*
X157000000Y-143000000D01*
D29*
X152025000Y-118700000D02*
X150750000Y-118700000D01*
X153350000Y-111200000D02*
X153350000Y-106250000D01*
X150400000Y-114150000D02*
X153350000Y-111200000D01*
X150400000Y-118350000D02*
X150400000Y-114150000D01*
X150750000Y-118700000D02*
X150400000Y-118350000D01*
X153350000Y-106250000D02*
X153350000Y-106200000D01*
X153350000Y-106200000D02*
X153350000Y-103050000D01*
X153350000Y-103050000D02*
X153600000Y-102800000D01*
X153600000Y-102800000D02*
X153590000Y-102800000D01*
D32*
X155900000Y-135250000D02*
X157250000Y-135250000D01*
X159050000Y-143575000D02*
X160000000Y-143575000D01*
X158750000Y-143275000D02*
X159050000Y-143575000D01*
X158750000Y-139725000D02*
X158750000Y-143275000D01*
X158025000Y-139000000D02*
X158750000Y-139725000D01*
X158025000Y-136025000D02*
X158025000Y-139000000D01*
X157250000Y-135250000D02*
X158025000Y-136025000D01*
D29*
X153025000Y-134125000D02*
X155475000Y-134125000D01*
X155900000Y-134550000D02*
X155900000Y-135250000D01*
X155900000Y-135250000D02*
X155900000Y-135200000D01*
X155475000Y-134125000D02*
X155900000Y-134550000D01*
X151750000Y-131500000D02*
X151750000Y-132850000D01*
X153025000Y-134125000D02*
X153025000Y-134125000D01*
X153025000Y-134125000D02*
X153025000Y-135150000D01*
X151750000Y-132850000D02*
X153025000Y-134125000D01*
D32*
X175900000Y-115195000D02*
X175905000Y-115195000D01*
D29*
X175905000Y-115195000D02*
X177700000Y-113400000D01*
X177700000Y-113400000D02*
X177700000Y-111925000D01*
X177700000Y-111925000D02*
X175900000Y-110125000D01*
D32*
X175900000Y-110125000D02*
X175900000Y-110115000D01*
D29*
X175900000Y-120275000D02*
X176925000Y-120275000D01*
X176925000Y-120275000D02*
X177700000Y-119500000D01*
X177700000Y-119500000D02*
X177700000Y-117000000D01*
X177700000Y-117000000D02*
X175900000Y-115200000D01*
D32*
X175900000Y-115200000D02*
X175900000Y-115195000D01*
D29*
X166750000Y-124500000D02*
X166750000Y-125600000D01*
X175875000Y-126075000D02*
X175890000Y-126075000D01*
X167225000Y-126075000D02*
X175875000Y-126075000D01*
X166750000Y-125600000D02*
X167225000Y-126075000D01*
X175890000Y-128500000D02*
X175890000Y-126075000D01*
X175890000Y-126075000D02*
X175890000Y-120985000D01*
D32*
X175890000Y-120985000D02*
X175900000Y-120975000D01*
X175900000Y-120975000D02*
X175900000Y-120275000D01*
D29*
X160000000Y-143575000D02*
X160000000Y-144450000D01*
X166800000Y-144400000D02*
X166800000Y-143575000D01*
X166400000Y-144800000D02*
X166800000Y-144400000D01*
X160350000Y-144800000D02*
X166400000Y-144800000D01*
X160000000Y-144450000D02*
X160350000Y-144800000D01*
X155500000Y-122350000D02*
X158575000Y-122350000D01*
X160975000Y-124750000D02*
X164000000Y-124750000D01*
X158575000Y-122350000D02*
X160975000Y-124750000D01*
X152025000Y-118700000D02*
X152025000Y-120575000D01*
X153750000Y-122300000D02*
X153750000Y-122350000D01*
X152025000Y-120575000D02*
X153750000Y-122300000D01*
X164000000Y-124750000D02*
X166425000Y-124750000D01*
D32*
X166425000Y-124750000D02*
X166750000Y-124500000D01*
D29*
X151750000Y-131500000D02*
X151750000Y-124375000D01*
X151750000Y-124375000D02*
X153775000Y-122350000D01*
X153775000Y-122350000D02*
X153750000Y-122350000D01*
X153750000Y-122350000D02*
X154775000Y-122350000D01*
D32*
X154775000Y-122350000D02*
X155500000Y-122350000D01*
X164000000Y-123150000D02*
X165875000Y-123150000D01*
X165875000Y-123150000D02*
X166750000Y-122275000D01*
X166750000Y-122275000D02*
X166750000Y-122000000D01*
D29*
X168475000Y-103000000D02*
X168475000Y-107625000D01*
X156900000Y-115150000D02*
X156250000Y-115800000D01*
X159450000Y-109900000D02*
X159450000Y-115150000D01*
X160500000Y-108850000D02*
X159450000Y-109900000D01*
X167250000Y-108850000D02*
X160500000Y-108850000D01*
X168475000Y-107625000D02*
X167250000Y-108850000D01*
D32*
X154725000Y-115800000D02*
X156250000Y-115800000D01*
X156250000Y-115800000D02*
X156300000Y-115800000D01*
X156950000Y-116450000D02*
X156950000Y-118475000D01*
X156300000Y-115800000D02*
X156950000Y-116450000D01*
X156950000Y-118475000D02*
X156950000Y-118500000D01*
X152025000Y-115800000D02*
X154725000Y-115800000D01*
X175900000Y-117735000D02*
X174510000Y-117735000D01*
X173775000Y-117000000D02*
X172525000Y-117000000D01*
X174510000Y-117735000D02*
X173775000Y-117000000D01*
X172525000Y-117000000D02*
X172500000Y-117000000D01*
X162550000Y-118500000D02*
X162550000Y-117450000D01*
X162950000Y-117050000D02*
X170000000Y-117050000D01*
X162550000Y-117450000D02*
X162950000Y-117050000D01*
X172500000Y-116950000D02*
X172500000Y-117000000D01*
X172500000Y-117000000D02*
X170050000Y-117000000D01*
X170050000Y-117000000D02*
X170000000Y-117050000D01*
X175900000Y-112655000D02*
X174020000Y-112655000D01*
X173175000Y-113500000D02*
X171500000Y-113500000D01*
X174020000Y-112655000D02*
X173175000Y-113500000D01*
X161750000Y-118500000D02*
X161750000Y-117400000D01*
X169000000Y-115650000D02*
X169000000Y-113350000D01*
X168175000Y-116475000D02*
X169000000Y-115650000D01*
X162675000Y-116475000D02*
X168175000Y-116475000D01*
X161750000Y-117400000D02*
X162675000Y-116475000D01*
X169000000Y-113350000D02*
X171450000Y-113350000D01*
X171450000Y-113350000D02*
X171500000Y-113500000D01*
X166950000Y-114000000D02*
X163500000Y-114000000D01*
X167375000Y-113575000D02*
X166950000Y-114000000D01*
X167375000Y-109750000D02*
X167375000Y-113575000D01*
X167900000Y-109225000D02*
X167375000Y-109750000D01*
X172450000Y-109225000D02*
X167900000Y-109225000D01*
X174100000Y-107575000D02*
X172450000Y-109225000D01*
X175900000Y-107575000D02*
X174100000Y-107575000D01*
X161000000Y-113850000D02*
X163400000Y-113850000D01*
X163400000Y-113850000D02*
X163500000Y-114000000D01*
X160950000Y-118500000D02*
X161000000Y-113900000D01*
X161000000Y-113900000D02*
X161000000Y-113850000D01*
X166800000Y-142725000D02*
X166800000Y-139600000D01*
X165600000Y-138400000D02*
X165600000Y-136700000D01*
X166800000Y-139600000D02*
X165600000Y-138400000D01*
X165600000Y-136700000D02*
X165600000Y-136675000D01*
X167650000Y-142725000D02*
X167650000Y-141425000D01*
X167975000Y-141100000D02*
X167975000Y-139450000D01*
X167650000Y-141425000D02*
X167975000Y-141100000D01*
X167650000Y-143575000D02*
X168425000Y-143575000D01*
X168425000Y-143575000D02*
X169375000Y-142625000D01*
X169375000Y-142625000D02*
X169375000Y-142225000D01*
X160000000Y-142725000D02*
X160000000Y-139775000D01*
X159500000Y-139275000D02*
X159500000Y-137950000D01*
X160000000Y-139775000D02*
X159500000Y-139275000D01*
X160850000Y-142725000D02*
X160850000Y-138925000D01*
X160850000Y-138925000D02*
X161825000Y-137950000D01*
X161825000Y-137950000D02*
X162250000Y-137950000D01*
X160850000Y-143575000D02*
X161725000Y-143575000D01*
X162025000Y-143275000D02*
X162025000Y-140150000D01*
X161725000Y-143575000D02*
X162025000Y-143275000D01*
X173350000Y-128500000D02*
X167100000Y-128500000D01*
X165600000Y-127000000D02*
X162550000Y-127000000D01*
X167100000Y-128500000D02*
X165600000Y-127000000D01*
X173350000Y-131040000D02*
X172165000Y-131040000D01*
X165500000Y-125550000D02*
X164000000Y-125550000D01*
X166650000Y-126700000D02*
X165500000Y-125550000D01*
X169925000Y-126700000D02*
X166650000Y-126700000D01*
X171000000Y-127775000D02*
X169925000Y-126700000D01*
X172165000Y-131040000D02*
X171000000Y-129875000D01*
X161750000Y-127000000D02*
X161750000Y-128000000D01*
X174625000Y-129775000D02*
X175875000Y-131025000D01*
X171950000Y-129775000D02*
X174625000Y-129775000D01*
X171325000Y-129150000D02*
X171950000Y-129775000D01*
X166900000Y-129150000D02*
X171325000Y-129150000D01*
X165900000Y-128150000D02*
X166900000Y-129150000D01*
X161900000Y-128150000D02*
X165900000Y-128150000D01*
X161750000Y-128000000D02*
X161900000Y-128150000D01*
X175875000Y-131025000D02*
X175890000Y-131040000D01*
X159350000Y-118500000D02*
X159350000Y-119700000D01*
X170775000Y-131000000D02*
X173350000Y-133575000D01*
X167425000Y-131000000D02*
X170775000Y-131000000D01*
X165400000Y-128975000D02*
X167425000Y-131000000D01*
X161300000Y-121650000D02*
X161300000Y-123925000D01*
X159350000Y-119700000D02*
X161300000Y-121650000D01*
X173350000Y-133575000D02*
X173350000Y-133580000D01*
D30*
X153100000Y-135900000D02*
X151750000Y-135900000D01*
X151750000Y-135900000D02*
X151100000Y-135250000D01*
X151100000Y-135250000D02*
X149400000Y-134900000D01*
X153100000Y-136700000D02*
X151750000Y-136700000D01*
X151750000Y-136700000D02*
X151100000Y-137350000D01*
X151100000Y-137350000D02*
X149400000Y-137700000D01*
D32*
X160950000Y-127000000D02*
X160950000Y-128200000D01*
X172275000Y-138725000D02*
X172275000Y-142225000D01*
X170350000Y-136800000D02*
X172275000Y-138725000D01*
X170350000Y-132400000D02*
X170350000Y-136800000D01*
X169575000Y-131625000D02*
X170350000Y-132400000D01*
X164800000Y-131625000D02*
X169575000Y-131625000D01*
X164600000Y-131425000D02*
X164800000Y-131625000D01*
X164600000Y-130250000D02*
X164600000Y-131425000D01*
X162975000Y-128625000D02*
X164600000Y-130250000D01*
X161375000Y-128625000D02*
X162975000Y-128625000D01*
X160950000Y-128200000D02*
X161375000Y-128625000D01*
X159500000Y-135050000D02*
X159950000Y-135050000D01*
X159950000Y-135050000D02*
X160875000Y-134125000D01*
X160875000Y-134125000D02*
X160875000Y-133300000D01*
X160875000Y-133300000D02*
X161200000Y-132500000D01*
X158300000Y-132500000D02*
X158300000Y-130825000D01*
X156950000Y-129475000D02*
X156950000Y-127325000D01*
X158300000Y-130825000D02*
X156950000Y-129475000D01*
X156950000Y-127325000D02*
X156950000Y-127000000D01*
X170875000Y-139450000D02*
X170875000Y-138225000D01*
X160150000Y-128900000D02*
X160150000Y-127700000D01*
X160375000Y-129125000D02*
X160150000Y-128900000D01*
X162550000Y-129125000D02*
X160375000Y-129125000D01*
X163950000Y-130525000D02*
X162550000Y-129125000D01*
X163950000Y-131675000D02*
X163950000Y-130525000D01*
X164500000Y-132225000D02*
X163950000Y-131675000D01*
X169300000Y-132225000D02*
X164500000Y-132225000D01*
X169725000Y-132650000D02*
X169300000Y-132225000D01*
X169725000Y-137075000D02*
X169725000Y-132650000D01*
X170875000Y-138225000D02*
X169725000Y-137075000D01*
X160150000Y-127700000D02*
X160150000Y-127000000D01*
X168500000Y-136675000D02*
X168500000Y-133925000D01*
X165600000Y-133925000D02*
X164700000Y-133925000D01*
X159350000Y-129125000D02*
X159350000Y-127000000D01*
X159950000Y-129725000D02*
X159350000Y-129125000D01*
X162350000Y-129725000D02*
X159950000Y-129725000D01*
X163375000Y-130750000D02*
X162350000Y-129725000D01*
X163375000Y-132600000D02*
X163375000Y-130750000D01*
X164700000Y-133925000D02*
X163375000Y-132600000D01*
X162250000Y-135050000D02*
X162250000Y-131125000D01*
X157750000Y-129125000D02*
X157750000Y-127525000D01*
X159425000Y-130800000D02*
X157750000Y-129125000D01*
X161925000Y-130800000D02*
X159425000Y-130800000D01*
X162250000Y-131125000D02*
X161925000Y-130800000D01*
X157750000Y-127525000D02*
X157750000Y-127000000D01*
X164925000Y-140150000D02*
X164925000Y-139000000D01*
X158550000Y-129150000D02*
X158550000Y-127600000D01*
X159725000Y-130325000D02*
X158550000Y-129150000D01*
X162175000Y-130325000D02*
X159725000Y-130325000D01*
X162750000Y-130900000D02*
X162175000Y-130325000D01*
X162750000Y-132775000D02*
X162750000Y-130900000D01*
X163750000Y-133775000D02*
X162750000Y-132775000D01*
X163750000Y-137825000D02*
X163750000Y-133775000D01*
X164925000Y-139000000D02*
X163750000Y-137825000D01*
X158550000Y-127600000D02*
X158550000Y-127000000D01*
D31*
X148050000Y-140250000D02*
X151475000Y-140250000D01*
X153100000Y-138625000D02*
X153100000Y-137675000D01*
X151475000Y-140250000D02*
X153100000Y-138625000D01*
D29*
X151050000Y-102800000D02*
X151050000Y-106550000D01*
X165900000Y-119950000D02*
X164000000Y-119950000D01*
X151050000Y-106550000D02*
X152500000Y-108000000D01*
X158550000Y-118500000D02*
X158550000Y-107300000D01*
X158550000Y-107300000D02*
X159050000Y-106800000D01*
X159050000Y-106800000D02*
X159050000Y-105350000D01*
X159050000Y-105350000D02*
X158650000Y-104950000D01*
X158650000Y-104950000D02*
X158650000Y-103400000D01*
D32*
X158650000Y-103400000D02*
X158670000Y-102800000D01*
X157750000Y-118500000D02*
X157750000Y-107200000D01*
X161200000Y-101500000D02*
X161200000Y-102150000D01*
X160900000Y-101200000D02*
X161200000Y-101500000D01*
X158000000Y-101200000D02*
X160900000Y-101200000D01*
X157350000Y-101850000D02*
X158000000Y-101200000D01*
X157350000Y-104700000D02*
X157350000Y-101850000D01*
X158400000Y-105750000D02*
X157350000Y-104700000D01*
X158400000Y-106550000D02*
X158400000Y-105750000D01*
X157750000Y-107200000D02*
X158400000Y-106550000D01*
X161200000Y-102150000D02*
X161210000Y-102800000D01*
D33*
X134660000Y-141250000D02*
X134660000Y-138590000D01*
X134660000Y-138590000D02*
X138475000Y-134775000D01*
X138475000Y-134775000D02*
X138480000Y-134770000D01*
D34*
G36*
X151223000Y-136623000D02*
X148477000Y-136623000D01*
X148477000Y-135977000D01*
X151223000Y-135977000D01*
X151223000Y-136623000D01*
X151223000Y-136623000D01*
G37*
X151223000Y-136623000D02*
X148477000Y-136623000D01*
X148477000Y-135977000D01*
X151223000Y-135977000D01*
X151223000Y-136623000D01*
D35*
G36*
X153387300Y-135587300D02*
X152662700Y-135587300D01*
X152662700Y-135112700D01*
X153387300Y-135112700D01*
X153387300Y-135587300D01*
X153387300Y-135587300D01*
G37*
X153387300Y-135587300D02*
X152662700Y-135587300D01*
X152662700Y-135112700D01*
X153387300Y-135112700D01*
X153387300Y-135587300D01*
G36*
X156187300Y-135587300D02*
X155612700Y-135587300D01*
X155612700Y-135112700D01*
X156187300Y-135112700D01*
X156187300Y-135587300D01*
X156187300Y-135587300D01*
G37*
X156187300Y-135587300D02*
X155612700Y-135587300D01*
X155612700Y-135112700D01*
X156187300Y-135112700D01*
X156187300Y-135587300D01*
G36*
X156187300Y-137887300D02*
X155612700Y-137887300D01*
X155612700Y-137412700D01*
X156187300Y-137412700D01*
X156187300Y-137887300D01*
X156187300Y-137887300D01*
G37*
X156187300Y-137887300D02*
X155612700Y-137887300D01*
X155612700Y-137412700D01*
X156187300Y-137412700D01*
X156187300Y-137887300D01*
G36*
X156387300Y-137187300D02*
X155612700Y-137187300D01*
X155612700Y-136212700D01*
X156387300Y-136212700D01*
X156387300Y-137187300D01*
X156387300Y-137187300D01*
G37*
X156387300Y-137187300D02*
X155612700Y-137187300D01*
X155612700Y-136212700D01*
X156387300Y-136212700D01*
X156387300Y-137187300D01*
G36*
X153387300Y-137687300D02*
X152812700Y-137687300D01*
X152812700Y-137412700D01*
X153387300Y-137412700D01*
X153387300Y-137687300D01*
X153387300Y-137687300D01*
G37*
X153387300Y-137687300D02*
X152812700Y-137687300D01*
X152812700Y-137412700D01*
X153387300Y-137412700D01*
X153387300Y-137687300D01*
M02*
