G04 #@! TF.FileFunction,Paste,Top*
%FSLAX46Y46*%
G04 Gerber Fmt 4.6, Leading zero omitted, Abs format (unit mm)*
G04 Created by KiCad (PCBNEW 4.0.7) date 10/19/18 11:12:39*
%MOMM*%
%LPD*%
G01*
G04 APERTURE LIST*
%ADD10C,0.100000*%
%ADD11C,0.010000*%
%ADD12R,1.680000X2.200000*%
%ADD13R,0.600000X0.200000*%
%ADD14R,1.000000X1.600000*%
%ADD15R,1.600000X1.000000*%
%ADD16R,3.900000X1.200000*%
%ADD17R,0.900000X1.700000*%
%ADD18R,1.700000X0.900000*%
%ADD19R,1.600000X0.550000*%
%ADD20R,0.550000X1.600000*%
%ADD21R,0.450000X0.450000*%
%ADD22R,1.050000X0.600000*%
%ADD23R,1.000000X1.250000*%
G04 APERTURE END LIST*
D10*
D11*
X145825000Y-140950000D02*
X145825000Y-141450000D01*
X145825000Y-141450000D02*
X144875000Y-141450000D01*
X144875000Y-141450000D02*
X144875000Y-140950000D01*
X144875000Y-140950000D02*
X145825000Y-140950000D01*
X147575000Y-141900000D02*
X148525000Y-141900000D01*
X148525000Y-141900000D02*
X148525000Y-142400000D01*
X148525000Y-142400000D02*
X147575000Y-142400000D01*
X147575000Y-142400000D02*
X147575000Y-141900000D01*
X147575000Y-140000000D02*
X147575000Y-140500000D01*
X147575000Y-140500000D02*
X148525000Y-140500000D01*
X148525000Y-140500000D02*
X148525000Y-140000000D01*
X148525000Y-140000000D02*
X147575000Y-140000000D01*
D12*
X154500000Y-136500000D03*
D13*
X153100000Y-135500000D03*
X153100000Y-135900000D03*
X153100000Y-136300000D03*
X153100000Y-136700000D03*
X153100000Y-137100000D03*
X153100000Y-137500000D03*
X155900000Y-137500000D03*
X155900000Y-137100000D03*
X155900000Y-136700000D03*
X155900000Y-136300000D03*
X155900000Y-135900000D03*
X155900000Y-135500000D03*
D14*
X145200000Y-144500000D03*
X148200000Y-144500000D03*
X157000000Y-140500000D03*
X154000000Y-140500000D03*
X157000000Y-143000000D03*
X154000000Y-143000000D03*
X166750000Y-122000000D03*
X169750000Y-122000000D03*
X169750000Y-124500000D03*
X166750000Y-124500000D03*
D15*
X154725000Y-112800000D03*
X154725000Y-115800000D03*
D14*
X156350000Y-106200000D03*
X153350000Y-106200000D03*
D15*
X172500000Y-117000000D03*
X172500000Y-120000000D03*
X171500000Y-113500000D03*
X171500000Y-110500000D03*
X163500000Y-114000000D03*
X163500000Y-111000000D03*
D16*
X149400000Y-134900000D03*
X149400000Y-137700000D03*
D17*
X172275000Y-142225000D03*
X169375000Y-142225000D03*
X161200000Y-132500000D03*
X158300000Y-132500000D03*
X170875000Y-139450000D03*
X167975000Y-139450000D03*
X168500000Y-136675000D03*
X165600000Y-136675000D03*
X168500000Y-133925000D03*
X165600000Y-133925000D03*
D18*
X159500000Y-137950000D03*
X159500000Y-135050000D03*
X162250000Y-137950000D03*
X162250000Y-135050000D03*
D17*
X162025000Y-140150000D03*
X164925000Y-140150000D03*
D18*
X152025000Y-118700000D03*
X152025000Y-115800000D03*
X170000000Y-117050000D03*
X170000000Y-119950000D03*
X169000000Y-113350000D03*
X169000000Y-110450000D03*
X161000000Y-113850000D03*
X161000000Y-110950000D03*
D19*
X155500000Y-119950000D03*
X155500000Y-120750000D03*
X155500000Y-121550000D03*
X155500000Y-122350000D03*
X155500000Y-123150000D03*
X155500000Y-123950000D03*
X155500000Y-124750000D03*
X155500000Y-125550000D03*
D20*
X156950000Y-127000000D03*
X157750000Y-127000000D03*
X158550000Y-127000000D03*
X159350000Y-127000000D03*
X160150000Y-127000000D03*
X160950000Y-127000000D03*
X161750000Y-127000000D03*
X162550000Y-127000000D03*
D19*
X164000000Y-125550000D03*
X164000000Y-124750000D03*
X164000000Y-123950000D03*
X164000000Y-123150000D03*
X164000000Y-122350000D03*
X164000000Y-121550000D03*
X164000000Y-120750000D03*
X164000000Y-119950000D03*
D20*
X162550000Y-118500000D03*
X161750000Y-118500000D03*
X160950000Y-118500000D03*
X160150000Y-118500000D03*
X159350000Y-118500000D03*
X158550000Y-118500000D03*
X157750000Y-118500000D03*
X156950000Y-118500000D03*
D21*
X166800000Y-143575000D03*
X166800000Y-142725000D03*
X167650000Y-142725000D03*
X167650000Y-143575000D03*
X160000000Y-143575000D03*
X160000000Y-142725000D03*
X160850000Y-142725000D03*
X160850000Y-143575000D03*
D22*
X145350000Y-141200000D03*
X148050000Y-140250000D03*
X148050000Y-142150000D03*
D23*
X152000000Y-131500000D03*
X154000000Y-131500000D03*
M02*
