G04 #@! TF.GenerationSoftware,KiCad,Pcbnew,(5.0.1)-3*
G04 #@! TF.CreationDate,2018-10-29T22:15:53-04:00*
G04 #@! TF.ProjectId,GCEW,474345572E6B696361645F7063620000,rev?*
G04 #@! TF.SameCoordinates,Original*
G04 #@! TF.FileFunction,Legend,Top*
G04 #@! TF.FilePolarity,Positive*
%FSLAX46Y46*%
G04 Gerber Fmt 4.6, Leading zero omitted, Abs format (unit mm)*
G04 Created by KiCad (PCBNEW (5.0.1)-3) date 10/29/2018 10:15:53 PM*
%MOMM*%
%LPD*%
G01*
G04 APERTURE LIST*
%ADD10C,0.200000*%
%ADD11C,0.300000*%
%ADD12C,0.100000*%
%ADD13C,0.120000*%
%ADD14C,0.050000*%
%ADD15C,0.150000*%
G04 APERTURE END LIST*
D10*
X117900000Y-125338095D02*
X117947619Y-125242857D01*
X117947619Y-125100000D01*
X117900000Y-124957142D01*
X117804761Y-124861904D01*
X117709523Y-124814285D01*
X117519047Y-124766666D01*
X117376190Y-124766666D01*
X117185714Y-124814285D01*
X117090476Y-124861904D01*
X116995238Y-124957142D01*
X116947619Y-125100000D01*
X116947619Y-125195238D01*
X116995238Y-125338095D01*
X117042857Y-125385714D01*
X117376190Y-125385714D01*
X117376190Y-125195238D01*
X116947619Y-125814285D02*
X117947619Y-125814285D01*
X116947619Y-126385714D01*
X117947619Y-126385714D01*
X116947619Y-126861904D02*
X117947619Y-126861904D01*
X117947619Y-127100000D01*
X117900000Y-127242857D01*
X117804761Y-127338095D01*
X117709523Y-127385714D01*
X117519047Y-127433333D01*
X117376190Y-127433333D01*
X117185714Y-127385714D01*
X117090476Y-127338095D01*
X116995238Y-127242857D01*
X116947619Y-127100000D01*
X116947619Y-126861904D01*
X116947619Y-121433333D02*
X117947619Y-121433333D01*
X117471428Y-121433333D02*
X117471428Y-122004761D01*
X116947619Y-122004761D02*
X117947619Y-122004761D01*
X116852380Y-122242857D02*
X116852380Y-123004761D01*
X117042857Y-123814285D02*
X116995238Y-123766666D01*
X116947619Y-123623809D01*
X116947619Y-123528571D01*
X116995238Y-123385714D01*
X117090476Y-123290476D01*
X117185714Y-123242857D01*
X117376190Y-123195238D01*
X117519047Y-123195238D01*
X117709523Y-123242857D01*
X117804761Y-123290476D01*
X117900000Y-123385714D01*
X117947619Y-123528571D01*
X117947619Y-123623809D01*
X117900000Y-123766666D01*
X117852380Y-123814285D01*
X116947619Y-117933333D02*
X117947619Y-117933333D01*
X117471428Y-117933333D02*
X117471428Y-118504761D01*
X116947619Y-118504761D02*
X117947619Y-118504761D01*
X116852380Y-118742857D02*
X116852380Y-119504761D01*
X117471428Y-120076190D02*
X117423809Y-120219047D01*
X117376190Y-120266666D01*
X117280952Y-120314285D01*
X117138095Y-120314285D01*
X117042857Y-120266666D01*
X116995238Y-120219047D01*
X116947619Y-120123809D01*
X116947619Y-119742857D01*
X117947619Y-119742857D01*
X117947619Y-120076190D01*
X117900000Y-120171428D01*
X117852380Y-120219047D01*
X117757142Y-120266666D01*
X117661904Y-120266666D01*
X117566666Y-120219047D01*
X117519047Y-120171428D01*
X117471428Y-120076190D01*
X117471428Y-119742857D01*
X116947619Y-114504761D02*
X117947619Y-114504761D01*
X117471428Y-114504761D02*
X117471428Y-115076190D01*
X116947619Y-115076190D02*
X117947619Y-115076190D01*
X116852380Y-115314285D02*
X116852380Y-116076190D01*
X117233333Y-116266666D02*
X117233333Y-116742857D01*
X116947619Y-116171428D02*
X117947619Y-116504761D01*
X116947619Y-116838095D01*
D11*
X116828571Y-112107142D02*
X117971428Y-112107142D01*
X117400000Y-112678571D02*
X117400000Y-111535714D01*
D10*
X140728571Y-67347619D02*
X140728571Y-68347619D01*
X140252380Y-67347619D02*
X140252380Y-68347619D01*
X139680952Y-67347619D01*
X139680952Y-68347619D01*
X138728571Y-67347619D02*
X139204761Y-67347619D01*
X139204761Y-68347619D01*
X137823809Y-67442857D02*
X137871428Y-67395238D01*
X138014285Y-67347619D01*
X138109523Y-67347619D01*
X138252380Y-67395238D01*
X138347619Y-67490476D01*
X138395238Y-67585714D01*
X138442857Y-67776190D01*
X138442857Y-67919047D01*
X138395238Y-68109523D01*
X138347619Y-68204761D01*
X138252380Y-68300000D01*
X138109523Y-68347619D01*
X138014285Y-68347619D01*
X137871428Y-68300000D01*
X137823809Y-68252380D01*
X144647619Y-67347619D02*
X144647619Y-68347619D01*
X144171428Y-67347619D02*
X144171428Y-68347619D01*
X143600000Y-67347619D01*
X143600000Y-68347619D01*
X143123809Y-67347619D02*
X143123809Y-68347619D01*
X143123809Y-67871428D02*
X142552380Y-67871428D01*
X142552380Y-67347619D02*
X142552380Y-68347619D01*
X141504761Y-67442857D02*
X141552380Y-67395238D01*
X141695238Y-67347619D01*
X141790476Y-67347619D01*
X141933333Y-67395238D01*
X142028571Y-67490476D01*
X142076190Y-67585714D01*
X142123809Y-67776190D01*
X142123809Y-67919047D01*
X142076190Y-68109523D01*
X142028571Y-68204761D01*
X141933333Y-68300000D01*
X141790476Y-68347619D01*
X141695238Y-68347619D01*
X141552380Y-68300000D01*
X141504761Y-68252380D01*
X148476190Y-67347619D02*
X148476190Y-68347619D01*
X148000000Y-67347619D02*
X148000000Y-68347619D01*
X147428571Y-67347619D01*
X147428571Y-68347619D01*
X146952380Y-67347619D02*
X146952380Y-68347619D01*
X146952380Y-67871428D02*
X146380952Y-67871428D01*
X146380952Y-67347619D02*
X146380952Y-68347619D01*
X145952380Y-67633333D02*
X145476190Y-67633333D01*
X146047619Y-67347619D02*
X145714285Y-68347619D01*
X145380952Y-67347619D01*
X151023809Y-67442857D02*
X151071428Y-67395238D01*
X151214285Y-67347619D01*
X151309523Y-67347619D01*
X151452380Y-67395238D01*
X151547619Y-67490476D01*
X151595238Y-67585714D01*
X151642857Y-67776190D01*
X151642857Y-67919047D01*
X151595238Y-68109523D01*
X151547619Y-68204761D01*
X151452380Y-68300000D01*
X151309523Y-68347619D01*
X151214285Y-68347619D01*
X151071428Y-68300000D01*
X151023809Y-68252380D01*
X150642857Y-67633333D02*
X150166666Y-67633333D01*
X150738095Y-67347619D02*
X150404761Y-68347619D01*
X150071428Y-67347619D01*
X149261904Y-67347619D02*
X149738095Y-67347619D01*
X149738095Y-68347619D01*
X154538095Y-67871428D02*
X154204761Y-67871428D01*
X154061904Y-67347619D02*
X154538095Y-67347619D01*
X154538095Y-68347619D01*
X154061904Y-68347619D01*
X153633333Y-67347619D02*
X153633333Y-68347619D01*
X153061904Y-67347619D01*
X153061904Y-68347619D01*
X158538095Y-67395238D02*
X158395238Y-67347619D01*
X158157142Y-67347619D01*
X158061904Y-67395238D01*
X158014285Y-67442857D01*
X157966666Y-67538095D01*
X157966666Y-67633333D01*
X158014285Y-67728571D01*
X158061904Y-67776190D01*
X158157142Y-67823809D01*
X158347619Y-67871428D01*
X158442857Y-67919047D01*
X158490476Y-67966666D01*
X158538095Y-68061904D01*
X158538095Y-68157142D01*
X158490476Y-68252380D01*
X158442857Y-68300000D01*
X158347619Y-68347619D01*
X158109523Y-68347619D01*
X157966666Y-68300000D01*
X157347619Y-68347619D02*
X157157142Y-68347619D01*
X157061904Y-68300000D01*
X156966666Y-68204761D01*
X156919047Y-68014285D01*
X156919047Y-67680952D01*
X156966666Y-67490476D01*
X157061904Y-67395238D01*
X157157142Y-67347619D01*
X157347619Y-67347619D01*
X157442857Y-67395238D01*
X157538095Y-67490476D01*
X157585714Y-67680952D01*
X157585714Y-68014285D01*
X157538095Y-68204761D01*
X157442857Y-68300000D01*
X157347619Y-68347619D01*
X156538095Y-67633333D02*
X156061904Y-67633333D01*
X156633333Y-67347619D02*
X156300000Y-68347619D01*
X155966666Y-67347619D01*
X162109523Y-67395238D02*
X161966666Y-67347619D01*
X161728571Y-67347619D01*
X161633333Y-67395238D01*
X161585714Y-67442857D01*
X161538095Y-67538095D01*
X161538095Y-67633333D01*
X161585714Y-67728571D01*
X161633333Y-67776190D01*
X161728571Y-67823809D01*
X161919047Y-67871428D01*
X162014285Y-67919047D01*
X162061904Y-67966666D01*
X162109523Y-68061904D01*
X162109523Y-68157142D01*
X162061904Y-68252380D01*
X162014285Y-68300000D01*
X161919047Y-68347619D01*
X161680952Y-68347619D01*
X161538095Y-68300000D01*
X160919047Y-68347619D02*
X160728571Y-68347619D01*
X160633333Y-68300000D01*
X160538095Y-68204761D01*
X160490476Y-68014285D01*
X160490476Y-67680952D01*
X160538095Y-67490476D01*
X160633333Y-67395238D01*
X160728571Y-67347619D01*
X160919047Y-67347619D01*
X161014285Y-67395238D01*
X161109523Y-67490476D01*
X161157142Y-67680952D01*
X161157142Y-68014285D01*
X161109523Y-68204761D01*
X161014285Y-68300000D01*
X160919047Y-68347619D01*
X159728571Y-67871428D02*
X159585714Y-67823809D01*
X159538095Y-67776190D01*
X159490476Y-67680952D01*
X159490476Y-67538095D01*
X159538095Y-67442857D01*
X159585714Y-67395238D01*
X159680952Y-67347619D01*
X160061904Y-67347619D01*
X160061904Y-68347619D01*
X159728571Y-68347619D01*
X159633333Y-68300000D01*
X159585714Y-68252380D01*
X159538095Y-68157142D01*
X159538095Y-68061904D01*
X159585714Y-67966666D01*
X159633333Y-67919047D01*
X159728571Y-67871428D01*
X160061904Y-67871428D01*
X165609523Y-67395238D02*
X165466666Y-67347619D01*
X165228571Y-67347619D01*
X165133333Y-67395238D01*
X165085714Y-67442857D01*
X165038095Y-67538095D01*
X165038095Y-67633333D01*
X165085714Y-67728571D01*
X165133333Y-67776190D01*
X165228571Y-67823809D01*
X165419047Y-67871428D01*
X165514285Y-67919047D01*
X165561904Y-67966666D01*
X165609523Y-68061904D01*
X165609523Y-68157142D01*
X165561904Y-68252380D01*
X165514285Y-68300000D01*
X165419047Y-68347619D01*
X165180952Y-68347619D01*
X165038095Y-68300000D01*
X164419047Y-68347619D02*
X164228571Y-68347619D01*
X164133333Y-68300000D01*
X164038095Y-68204761D01*
X163990476Y-68014285D01*
X163990476Y-67680952D01*
X164038095Y-67490476D01*
X164133333Y-67395238D01*
X164228571Y-67347619D01*
X164419047Y-67347619D01*
X164514285Y-67395238D01*
X164609523Y-67490476D01*
X164657142Y-67680952D01*
X164657142Y-68014285D01*
X164609523Y-68204761D01*
X164514285Y-68300000D01*
X164419047Y-68347619D01*
X162990476Y-67442857D02*
X163038095Y-67395238D01*
X163180952Y-67347619D01*
X163276190Y-67347619D01*
X163419047Y-67395238D01*
X163514285Y-67490476D01*
X163561904Y-67585714D01*
X163609523Y-67776190D01*
X163609523Y-67919047D01*
X163561904Y-68109523D01*
X163514285Y-68204761D01*
X163419047Y-68300000D01*
X163276190Y-68347619D01*
X163180952Y-68347619D01*
X163038095Y-68300000D01*
X162990476Y-68252380D01*
D11*
X177342857Y-68350000D02*
X177485714Y-68421428D01*
X177700000Y-68421428D01*
X177914285Y-68350000D01*
X178057142Y-68207142D01*
X178128571Y-68064285D01*
X178200000Y-67778571D01*
X178200000Y-67564285D01*
X178128571Y-67278571D01*
X178057142Y-67135714D01*
X177914285Y-66992857D01*
X177700000Y-66921428D01*
X177557142Y-66921428D01*
X177342857Y-66992857D01*
X177271428Y-67064285D01*
X177271428Y-67564285D01*
X177557142Y-67564285D01*
X176628571Y-66921428D02*
X176628571Y-68421428D01*
X175771428Y-66921428D01*
X175771428Y-68421428D01*
X175057142Y-66921428D02*
X175057142Y-68421428D01*
X174700000Y-68421428D01*
X174485714Y-68350000D01*
X174342857Y-68207142D01*
X174271428Y-68064285D01*
X174200000Y-67778571D01*
X174200000Y-67564285D01*
X174271428Y-67278571D01*
X174342857Y-67135714D01*
X174485714Y-66992857D01*
X174700000Y-66921428D01*
X175057142Y-66921428D01*
X194757142Y-68521428D02*
X193828571Y-68521428D01*
X194328571Y-67950000D01*
X194114285Y-67950000D01*
X193971428Y-67878571D01*
X193900000Y-67807142D01*
X193828571Y-67664285D01*
X193828571Y-67307142D01*
X193900000Y-67164285D01*
X193971428Y-67092857D01*
X194114285Y-67021428D01*
X194542857Y-67021428D01*
X194685714Y-67092857D01*
X194757142Y-67164285D01*
X192542857Y-68521428D02*
X192828571Y-68521428D01*
X192971428Y-68450000D01*
X193042857Y-68378571D01*
X193185714Y-68164285D01*
X193257142Y-67878571D01*
X193257142Y-67307142D01*
X193185714Y-67164285D01*
X193114285Y-67092857D01*
X192971428Y-67021428D01*
X192685714Y-67021428D01*
X192542857Y-67092857D01*
X192471428Y-67164285D01*
X192400000Y-67307142D01*
X192400000Y-67664285D01*
X192471428Y-67807142D01*
X192542857Y-67878571D01*
X192685714Y-67950000D01*
X192971428Y-67950000D01*
X193114285Y-67878571D01*
X193185714Y-67807142D01*
X193257142Y-67664285D01*
X191971428Y-68521428D02*
X191471428Y-67021428D01*
X190971428Y-68521428D01*
X212735714Y-97935714D02*
X212807142Y-98007142D01*
X212878571Y-98221428D01*
X212878571Y-98364285D01*
X212807142Y-98578571D01*
X212664285Y-98721428D01*
X212521428Y-98792857D01*
X212235714Y-98864285D01*
X212021428Y-98864285D01*
X211735714Y-98792857D01*
X211592857Y-98721428D01*
X211450000Y-98578571D01*
X211378571Y-98364285D01*
X211378571Y-98221428D01*
X211450000Y-98007142D01*
X211521428Y-97935714D01*
X212450000Y-122357142D02*
X212450000Y-121642857D01*
X212878571Y-122500000D02*
X211378571Y-122000000D01*
X212878571Y-121500000D01*
D10*
X117900000Y-132238095D02*
X117947619Y-132142857D01*
X117947619Y-132000000D01*
X117900000Y-131857142D01*
X117804761Y-131761904D01*
X117709523Y-131714285D01*
X117519047Y-131666666D01*
X117376190Y-131666666D01*
X117185714Y-131714285D01*
X117090476Y-131761904D01*
X116995238Y-131857142D01*
X116947619Y-132000000D01*
X116947619Y-132095238D01*
X116995238Y-132238095D01*
X117042857Y-132285714D01*
X117376190Y-132285714D01*
X117376190Y-132095238D01*
X116947619Y-132714285D02*
X117947619Y-132714285D01*
X116947619Y-133285714D01*
X117947619Y-133285714D01*
X116947619Y-133761904D02*
X117947619Y-133761904D01*
X117947619Y-134000000D01*
X117900000Y-134142857D01*
X117804761Y-134238095D01*
X117709523Y-134285714D01*
X117519047Y-134333333D01*
X117376190Y-134333333D01*
X117185714Y-134285714D01*
X117090476Y-134238095D01*
X116995238Y-134142857D01*
X116947619Y-134000000D01*
X116947619Y-133761904D01*
X117947619Y-137509523D02*
X117947619Y-137033333D01*
X117471428Y-136985714D01*
X117519047Y-137033333D01*
X117566666Y-137128571D01*
X117566666Y-137366666D01*
X117519047Y-137461904D01*
X117471428Y-137509523D01*
X117376190Y-137557142D01*
X117138095Y-137557142D01*
X117042857Y-137509523D01*
X116995238Y-137461904D01*
X116947619Y-137366666D01*
X116947619Y-137128571D01*
X116995238Y-137033333D01*
X117042857Y-136985714D01*
X117947619Y-137842857D02*
X116947619Y-138176190D01*
X117947619Y-138509523D01*
X124250000Y-99500000D02*
X117250000Y-99500000D01*
X124250000Y-90350000D02*
X117250000Y-90350000D01*
X118457142Y-103797619D02*
X118504761Y-103750000D01*
X118600000Y-103702380D01*
X118838095Y-103702380D01*
X118933333Y-103750000D01*
X118980952Y-103797619D01*
X119028571Y-103892857D01*
X119028571Y-103988095D01*
X118980952Y-104130952D01*
X118409523Y-104702380D01*
X119028571Y-104702380D01*
X119647619Y-103702380D02*
X119742857Y-103702380D01*
X119838095Y-103750000D01*
X119885714Y-103797619D01*
X119933333Y-103892857D01*
X119980952Y-104083333D01*
X119980952Y-104321428D01*
X119933333Y-104511904D01*
X119885714Y-104607142D01*
X119838095Y-104654761D01*
X119742857Y-104702380D01*
X119647619Y-104702380D01*
X119552380Y-104654761D01*
X119504761Y-104607142D01*
X119457142Y-104511904D01*
X119409523Y-104321428D01*
X119409523Y-104083333D01*
X119457142Y-103892857D01*
X119504761Y-103797619D01*
X119552380Y-103750000D01*
X119647619Y-103702380D01*
X120266666Y-103702380D02*
X120600000Y-104702380D01*
X120933333Y-103702380D01*
X121980952Y-103654761D02*
X121123809Y-104940476D01*
X122171428Y-103702380D02*
X122504761Y-104702380D01*
X122838095Y-103702380D01*
X118978571Y-102052380D02*
X118407142Y-102052380D01*
X118692857Y-102052380D02*
X118692857Y-101052380D01*
X118597619Y-101195238D01*
X118502380Y-101290476D01*
X118407142Y-101338095D01*
X119597619Y-101052380D02*
X119692857Y-101052380D01*
X119788095Y-101100000D01*
X119835714Y-101147619D01*
X119883333Y-101242857D01*
X119930952Y-101433333D01*
X119930952Y-101671428D01*
X119883333Y-101861904D01*
X119835714Y-101957142D01*
X119788095Y-102004761D01*
X119692857Y-102052380D01*
X119597619Y-102052380D01*
X119502380Y-102004761D01*
X119454761Y-101957142D01*
X119407142Y-101861904D01*
X119359523Y-101671428D01*
X119359523Y-101433333D01*
X119407142Y-101242857D01*
X119454761Y-101147619D01*
X119502380Y-101100000D01*
X119597619Y-101052380D01*
X120216666Y-101052380D02*
X120550000Y-102052380D01*
X120883333Y-101052380D01*
X121930952Y-101004761D02*
X121073809Y-102290476D01*
X122121428Y-101052380D02*
X122454761Y-102052380D01*
X122788095Y-101052380D01*
X118583333Y-97202380D02*
X118678571Y-97202380D01*
X118773809Y-97250000D01*
X118821428Y-97297619D01*
X118869047Y-97392857D01*
X118916666Y-97583333D01*
X118916666Y-97821428D01*
X118869047Y-98011904D01*
X118821428Y-98107142D01*
X118773809Y-98154761D01*
X118678571Y-98202380D01*
X118583333Y-98202380D01*
X118488095Y-98154761D01*
X118440476Y-98107142D01*
X118392857Y-98011904D01*
X118345238Y-97821428D01*
X118345238Y-97583333D01*
X118392857Y-97392857D01*
X118440476Y-97297619D01*
X118488095Y-97250000D01*
X118583333Y-97202380D01*
X119345238Y-98107142D02*
X119392857Y-98154761D01*
X119345238Y-98202380D01*
X119297619Y-98154761D01*
X119345238Y-98107142D01*
X119345238Y-98202380D01*
X119773809Y-97297619D02*
X119821428Y-97250000D01*
X119916666Y-97202380D01*
X120154761Y-97202380D01*
X120250000Y-97250000D01*
X120297619Y-97297619D01*
X120345238Y-97392857D01*
X120345238Y-97488095D01*
X120297619Y-97630952D01*
X119726190Y-98202380D01*
X120345238Y-98202380D01*
X121202380Y-97202380D02*
X121011904Y-97202380D01*
X120916666Y-97250000D01*
X120869047Y-97297619D01*
X120773809Y-97440476D01*
X120726190Y-97630952D01*
X120726190Y-98011904D01*
X120773809Y-98107142D01*
X120821428Y-98154761D01*
X120916666Y-98202380D01*
X121107142Y-98202380D01*
X121202380Y-98154761D01*
X121250000Y-98107142D01*
X121297619Y-98011904D01*
X121297619Y-97773809D01*
X121250000Y-97678571D01*
X121202380Y-97630952D01*
X121107142Y-97583333D01*
X120916666Y-97583333D01*
X120821428Y-97630952D01*
X120773809Y-97678571D01*
X120726190Y-97773809D01*
X121583333Y-97202380D02*
X121916666Y-98202380D01*
X122250000Y-97202380D01*
X118583333Y-94552380D02*
X118678571Y-94552380D01*
X118773809Y-94600000D01*
X118821428Y-94647619D01*
X118869047Y-94742857D01*
X118916666Y-94933333D01*
X118916666Y-95171428D01*
X118869047Y-95361904D01*
X118821428Y-95457142D01*
X118773809Y-95504761D01*
X118678571Y-95552380D01*
X118583333Y-95552380D01*
X118488095Y-95504761D01*
X118440476Y-95457142D01*
X118392857Y-95361904D01*
X118345238Y-95171428D01*
X118345238Y-94933333D01*
X118392857Y-94742857D01*
X118440476Y-94647619D01*
X118488095Y-94600000D01*
X118583333Y-94552380D01*
X119345238Y-95457142D02*
X119392857Y-95504761D01*
X119345238Y-95552380D01*
X119297619Y-95504761D01*
X119345238Y-95457142D01*
X119345238Y-95552380D01*
X120345238Y-95552380D02*
X119773809Y-95552380D01*
X120059523Y-95552380D02*
X120059523Y-94552380D01*
X119964285Y-94695238D01*
X119869047Y-94790476D01*
X119773809Y-94838095D01*
X120678571Y-94552380D02*
X121297619Y-94552380D01*
X120964285Y-94933333D01*
X121107142Y-94933333D01*
X121202380Y-94980952D01*
X121250000Y-95028571D01*
X121297619Y-95123809D01*
X121297619Y-95361904D01*
X121250000Y-95457142D01*
X121202380Y-95504761D01*
X121107142Y-95552380D01*
X120821428Y-95552380D01*
X120726190Y-95504761D01*
X120678571Y-95457142D01*
X121583333Y-94552380D02*
X121916666Y-95552380D01*
X122250000Y-94552380D01*
X118583333Y-91902380D02*
X118678571Y-91902380D01*
X118773809Y-91950000D01*
X118821428Y-91997619D01*
X118869047Y-92092857D01*
X118916666Y-92283333D01*
X118916666Y-92521428D01*
X118869047Y-92711904D01*
X118821428Y-92807142D01*
X118773809Y-92854761D01*
X118678571Y-92902380D01*
X118583333Y-92902380D01*
X118488095Y-92854761D01*
X118440476Y-92807142D01*
X118392857Y-92711904D01*
X118345238Y-92521428D01*
X118345238Y-92283333D01*
X118392857Y-92092857D01*
X118440476Y-91997619D01*
X118488095Y-91950000D01*
X118583333Y-91902380D01*
X119345238Y-92807142D02*
X119392857Y-92854761D01*
X119345238Y-92902380D01*
X119297619Y-92854761D01*
X119345238Y-92807142D01*
X119345238Y-92902380D01*
X120011904Y-91902380D02*
X120107142Y-91902380D01*
X120202380Y-91950000D01*
X120250000Y-91997619D01*
X120297619Y-92092857D01*
X120345238Y-92283333D01*
X120345238Y-92521428D01*
X120297619Y-92711904D01*
X120250000Y-92807142D01*
X120202380Y-92854761D01*
X120107142Y-92902380D01*
X120011904Y-92902380D01*
X119916666Y-92854761D01*
X119869047Y-92807142D01*
X119821428Y-92711904D01*
X119773809Y-92521428D01*
X119773809Y-92283333D01*
X119821428Y-92092857D01*
X119869047Y-91997619D01*
X119916666Y-91950000D01*
X120011904Y-91902380D01*
X121202380Y-91902380D02*
X121011904Y-91902380D01*
X120916666Y-91950000D01*
X120869047Y-91997619D01*
X120773809Y-92140476D01*
X120726190Y-92330952D01*
X120726190Y-92711904D01*
X120773809Y-92807142D01*
X120821428Y-92854761D01*
X120916666Y-92902380D01*
X121107142Y-92902380D01*
X121202380Y-92854761D01*
X121250000Y-92807142D01*
X121297619Y-92711904D01*
X121297619Y-92473809D01*
X121250000Y-92378571D01*
X121202380Y-92330952D01*
X121107142Y-92283333D01*
X120916666Y-92283333D01*
X120821428Y-92330952D01*
X120773809Y-92378571D01*
X120726190Y-92473809D01*
X121583333Y-91902380D02*
X121916666Y-92902380D01*
X122250000Y-91902380D01*
X118890476Y-88052380D02*
X118414285Y-88052380D01*
X118366666Y-88528571D01*
X118414285Y-88480952D01*
X118509523Y-88433333D01*
X118747619Y-88433333D01*
X118842857Y-88480952D01*
X118890476Y-88528571D01*
X118938095Y-88623809D01*
X118938095Y-88861904D01*
X118890476Y-88957142D01*
X118842857Y-89004761D01*
X118747619Y-89052380D01*
X118509523Y-89052380D01*
X118414285Y-89004761D01*
X118366666Y-88957142D01*
X119271428Y-88052380D02*
X119938095Y-88052380D01*
X119509523Y-89052380D01*
X120509523Y-88052380D02*
X120604761Y-88052380D01*
X120700000Y-88100000D01*
X120747619Y-88147619D01*
X120795238Y-88242857D01*
X120842857Y-88433333D01*
X120842857Y-88671428D01*
X120795238Y-88861904D01*
X120747619Y-88957142D01*
X120700000Y-89004761D01*
X120604761Y-89052380D01*
X120509523Y-89052380D01*
X120414285Y-89004761D01*
X120366666Y-88957142D01*
X120319047Y-88861904D01*
X120271428Y-88671428D01*
X120271428Y-88433333D01*
X120319047Y-88242857D01*
X120366666Y-88147619D01*
X120414285Y-88100000D01*
X120509523Y-88052380D01*
X121271428Y-89052380D02*
X121271428Y-88385714D01*
X121271428Y-88480952D02*
X121319047Y-88433333D01*
X121414285Y-88385714D01*
X121557142Y-88385714D01*
X121652380Y-88433333D01*
X121700000Y-88528571D01*
X121700000Y-89052380D01*
X121700000Y-88528571D02*
X121747619Y-88433333D01*
X121842857Y-88385714D01*
X121985714Y-88385714D01*
X122080952Y-88433333D01*
X122128571Y-88528571D01*
X122128571Y-89052380D01*
X122557142Y-88766666D02*
X123033333Y-88766666D01*
X122461904Y-89052380D02*
X122795238Y-88052380D01*
X123128571Y-89052380D01*
X118366666Y-85497619D02*
X118414285Y-85450000D01*
X118509523Y-85402380D01*
X118747619Y-85402380D01*
X118842857Y-85450000D01*
X118890476Y-85497619D01*
X118938095Y-85592857D01*
X118938095Y-85688095D01*
X118890476Y-85830952D01*
X118319047Y-86402380D01*
X118938095Y-86402380D01*
X119795238Y-85735714D02*
X119795238Y-86402380D01*
X119557142Y-85354761D02*
X119319047Y-86069047D01*
X119938095Y-86069047D01*
X120509523Y-85402380D02*
X120604761Y-85402380D01*
X120700000Y-85450000D01*
X120747619Y-85497619D01*
X120795238Y-85592857D01*
X120842857Y-85783333D01*
X120842857Y-86021428D01*
X120795238Y-86211904D01*
X120747619Y-86307142D01*
X120700000Y-86354761D01*
X120604761Y-86402380D01*
X120509523Y-86402380D01*
X120414285Y-86354761D01*
X120366666Y-86307142D01*
X120319047Y-86211904D01*
X120271428Y-86021428D01*
X120271428Y-85783333D01*
X120319047Y-85592857D01*
X120366666Y-85497619D01*
X120414285Y-85450000D01*
X120509523Y-85402380D01*
X121271428Y-86402380D02*
X121271428Y-85735714D01*
X121271428Y-85830952D02*
X121319047Y-85783333D01*
X121414285Y-85735714D01*
X121557142Y-85735714D01*
X121652380Y-85783333D01*
X121700000Y-85878571D01*
X121700000Y-86402380D01*
X121700000Y-85878571D02*
X121747619Y-85783333D01*
X121842857Y-85735714D01*
X121985714Y-85735714D01*
X122080952Y-85783333D01*
X122128571Y-85878571D01*
X122128571Y-86402380D01*
X122557142Y-86116666D02*
X123033333Y-86116666D01*
X122461904Y-86402380D02*
X122795238Y-85402380D01*
X123128571Y-86402380D01*
X118888095Y-83652380D02*
X118316666Y-83652380D01*
X118602380Y-83652380D02*
X118602380Y-82652380D01*
X118507142Y-82795238D01*
X118411904Y-82890476D01*
X118316666Y-82938095D01*
X119269047Y-82747619D02*
X119316666Y-82700000D01*
X119411904Y-82652380D01*
X119650000Y-82652380D01*
X119745238Y-82700000D01*
X119792857Y-82747619D01*
X119840476Y-82842857D01*
X119840476Y-82938095D01*
X119792857Y-83080952D01*
X119221428Y-83652380D01*
X119840476Y-83652380D01*
X120459523Y-82652380D02*
X120554761Y-82652380D01*
X120650000Y-82700000D01*
X120697619Y-82747619D01*
X120745238Y-82842857D01*
X120792857Y-83033333D01*
X120792857Y-83271428D01*
X120745238Y-83461904D01*
X120697619Y-83557142D01*
X120650000Y-83604761D01*
X120554761Y-83652380D01*
X120459523Y-83652380D01*
X120364285Y-83604761D01*
X120316666Y-83557142D01*
X120269047Y-83461904D01*
X120221428Y-83271428D01*
X120221428Y-83033333D01*
X120269047Y-82842857D01*
X120316666Y-82747619D01*
X120364285Y-82700000D01*
X120459523Y-82652380D01*
X121221428Y-83652380D02*
X121221428Y-82985714D01*
X121221428Y-83080952D02*
X121269047Y-83033333D01*
X121364285Y-82985714D01*
X121507142Y-82985714D01*
X121602380Y-83033333D01*
X121650000Y-83128571D01*
X121650000Y-83652380D01*
X121650000Y-83128571D02*
X121697619Y-83033333D01*
X121792857Y-82985714D01*
X121935714Y-82985714D01*
X122030952Y-83033333D01*
X122078571Y-83128571D01*
X122078571Y-83652380D01*
X122507142Y-83366666D02*
X122983333Y-83366666D01*
X122411904Y-83652380D02*
X122745238Y-82652380D01*
X123078571Y-83652380D01*
D12*
G04 #@! TO.C,BT1*
X179300000Y-65400000D02*
X179300000Y-75000000D01*
X189900000Y-65400000D02*
X179300000Y-65400000D01*
X189900000Y-75000000D02*
X189900000Y-65400000D01*
X179300000Y-75000000D02*
X189900000Y-75000000D01*
D13*
G04 #@! TO.C,C1*
X213440000Y-75650000D02*
G75*
G03X213440000Y-75650000I-9090000J0D01*
G01*
X204350000Y-66600000D02*
X204350000Y-84700000D01*
X204390000Y-66600000D02*
X204390000Y-84700000D01*
X204430000Y-66600000D02*
X204430000Y-84700000D01*
X204470000Y-66600000D02*
X204470000Y-84700000D01*
X204510000Y-66601000D02*
X204510000Y-84699000D01*
X204550000Y-66602000D02*
X204550000Y-84698000D01*
X204590000Y-66603000D02*
X204590000Y-84697000D01*
X204630000Y-66604000D02*
X204630000Y-84696000D01*
X204670000Y-66605000D02*
X204670000Y-84695000D01*
X204710000Y-66607000D02*
X204710000Y-84693000D01*
X204750000Y-66608000D02*
X204750000Y-84692000D01*
X204790000Y-66610000D02*
X204790000Y-84690000D01*
X204830000Y-66612000D02*
X204830000Y-84688000D01*
X204870000Y-66614000D02*
X204870000Y-84686000D01*
X204910000Y-66617000D02*
X204910000Y-84683000D01*
X204950000Y-66619000D02*
X204950000Y-84681000D01*
X204990000Y-66622000D02*
X204990000Y-84678000D01*
X205030000Y-66625000D02*
X205030000Y-84675000D01*
X205071000Y-66628000D02*
X205071000Y-84672000D01*
X205111000Y-66631000D02*
X205111000Y-84669000D01*
X205151000Y-66635000D02*
X205151000Y-84665000D01*
X205191000Y-66638000D02*
X205191000Y-84662000D01*
X205231000Y-66642000D02*
X205231000Y-84658000D01*
X205271000Y-66646000D02*
X205271000Y-84654000D01*
X205311000Y-66650000D02*
X205311000Y-84650000D01*
X205351000Y-66655000D02*
X205351000Y-84645000D01*
X205391000Y-66659000D02*
X205391000Y-84641000D01*
X205431000Y-66664000D02*
X205431000Y-84636000D01*
X205471000Y-66669000D02*
X205471000Y-84631000D01*
X205511000Y-66674000D02*
X205511000Y-84626000D01*
X205551000Y-66679000D02*
X205551000Y-84621000D01*
X205591000Y-66684000D02*
X205591000Y-84616000D01*
X205631000Y-66690000D02*
X205631000Y-84610000D01*
X205671000Y-66696000D02*
X205671000Y-84604000D01*
X205711000Y-66702000D02*
X205711000Y-84598000D01*
X205751000Y-66708000D02*
X205751000Y-84592000D01*
X205791000Y-66714000D02*
X205791000Y-84586000D01*
X205831000Y-66721000D02*
X205831000Y-84579000D01*
X205871000Y-66727000D02*
X205871000Y-84573000D01*
X205911000Y-66734000D02*
X205911000Y-84566000D01*
X205951000Y-66741000D02*
X205951000Y-84559000D01*
X205991000Y-66749000D02*
X205991000Y-84551000D01*
X206031000Y-66756000D02*
X206031000Y-84544000D01*
X206071000Y-66764000D02*
X206071000Y-84536000D01*
X206111000Y-66772000D02*
X206111000Y-84528000D01*
X206151000Y-66780000D02*
X206151000Y-84520000D01*
X206191000Y-66788000D02*
X206191000Y-84512000D01*
X206231000Y-66796000D02*
X206231000Y-84504000D01*
X206271000Y-66805000D02*
X206271000Y-84495000D01*
X206311000Y-66813000D02*
X206311000Y-84487000D01*
X206351000Y-66822000D02*
X206351000Y-84478000D01*
X206391000Y-66831000D02*
X206391000Y-84469000D01*
X206431000Y-66841000D02*
X206431000Y-84459000D01*
X206471000Y-66850000D02*
X206471000Y-84450000D01*
X206511000Y-66860000D02*
X206511000Y-84440000D01*
X206551000Y-66870000D02*
X206551000Y-84430000D01*
X206591000Y-66880000D02*
X206591000Y-84420000D01*
X206631000Y-66890000D02*
X206631000Y-84410000D01*
X206671000Y-66901000D02*
X206671000Y-84399000D01*
X206711000Y-66911000D02*
X206711000Y-84389000D01*
X206751000Y-66922000D02*
X206751000Y-74270000D01*
X206751000Y-77030000D02*
X206751000Y-84378000D01*
X206791000Y-66933000D02*
X206791000Y-74270000D01*
X206791000Y-77030000D02*
X206791000Y-84367000D01*
X206831000Y-66944000D02*
X206831000Y-74270000D01*
X206831000Y-77030000D02*
X206831000Y-84356000D01*
X206871000Y-66956000D02*
X206871000Y-74270000D01*
X206871000Y-77030000D02*
X206871000Y-84344000D01*
X206911000Y-66967000D02*
X206911000Y-74270000D01*
X206911000Y-77030000D02*
X206911000Y-84333000D01*
X206951000Y-66979000D02*
X206951000Y-74270000D01*
X206951000Y-77030000D02*
X206951000Y-84321000D01*
X206991000Y-66991000D02*
X206991000Y-74270000D01*
X206991000Y-77030000D02*
X206991000Y-84309000D01*
X207031000Y-67004000D02*
X207031000Y-74270000D01*
X207031000Y-77030000D02*
X207031000Y-84296000D01*
X207071000Y-67016000D02*
X207071000Y-74270000D01*
X207071000Y-77030000D02*
X207071000Y-84284000D01*
X207111000Y-67029000D02*
X207111000Y-74270000D01*
X207111000Y-77030000D02*
X207111000Y-84271000D01*
X207151000Y-67041000D02*
X207151000Y-74270000D01*
X207151000Y-77030000D02*
X207151000Y-84259000D01*
X207191000Y-67055000D02*
X207191000Y-74270000D01*
X207191000Y-77030000D02*
X207191000Y-84245000D01*
X207231000Y-67068000D02*
X207231000Y-74270000D01*
X207231000Y-77030000D02*
X207231000Y-84232000D01*
X207271000Y-67081000D02*
X207271000Y-74270000D01*
X207271000Y-77030000D02*
X207271000Y-84219000D01*
X207311000Y-67095000D02*
X207311000Y-74270000D01*
X207311000Y-77030000D02*
X207311000Y-84205000D01*
X207351000Y-67109000D02*
X207351000Y-74270000D01*
X207351000Y-77030000D02*
X207351000Y-84191000D01*
X207391000Y-67123000D02*
X207391000Y-74270000D01*
X207391000Y-77030000D02*
X207391000Y-84177000D01*
X207431000Y-67137000D02*
X207431000Y-74270000D01*
X207431000Y-77030000D02*
X207431000Y-84163000D01*
X207471000Y-67152000D02*
X207471000Y-74270000D01*
X207471000Y-77030000D02*
X207471000Y-84148000D01*
X207511000Y-67166000D02*
X207511000Y-74270000D01*
X207511000Y-77030000D02*
X207511000Y-84134000D01*
X207551000Y-67181000D02*
X207551000Y-74270000D01*
X207551000Y-77030000D02*
X207551000Y-84119000D01*
X207591000Y-67197000D02*
X207591000Y-74270000D01*
X207591000Y-77030000D02*
X207591000Y-84103000D01*
X207631000Y-67212000D02*
X207631000Y-74270000D01*
X207631000Y-77030000D02*
X207631000Y-84088000D01*
X207671000Y-67227000D02*
X207671000Y-74270000D01*
X207671000Y-77030000D02*
X207671000Y-84073000D01*
X207711000Y-67243000D02*
X207711000Y-74270000D01*
X207711000Y-77030000D02*
X207711000Y-84057000D01*
X207751000Y-67259000D02*
X207751000Y-74270000D01*
X207751000Y-77030000D02*
X207751000Y-84041000D01*
X207791000Y-67276000D02*
X207791000Y-74270000D01*
X207791000Y-77030000D02*
X207791000Y-84024000D01*
X207831000Y-67292000D02*
X207831000Y-74270000D01*
X207831000Y-77030000D02*
X207831000Y-84008000D01*
X207871000Y-67309000D02*
X207871000Y-74270000D01*
X207871000Y-77030000D02*
X207871000Y-83991000D01*
X207911000Y-67326000D02*
X207911000Y-74270000D01*
X207911000Y-77030000D02*
X207911000Y-83974000D01*
X207951000Y-67343000D02*
X207951000Y-74270000D01*
X207951000Y-77030000D02*
X207951000Y-83957000D01*
X207991000Y-67360000D02*
X207991000Y-74270000D01*
X207991000Y-77030000D02*
X207991000Y-83940000D01*
X208031000Y-67378000D02*
X208031000Y-74270000D01*
X208031000Y-77030000D02*
X208031000Y-83922000D01*
X208071000Y-67396000D02*
X208071000Y-74270000D01*
X208071000Y-77030000D02*
X208071000Y-83904000D01*
X208111000Y-67414000D02*
X208111000Y-74270000D01*
X208111000Y-77030000D02*
X208111000Y-83886000D01*
X208151000Y-67432000D02*
X208151000Y-74270000D01*
X208151000Y-77030000D02*
X208151000Y-83868000D01*
X208191000Y-67450000D02*
X208191000Y-74270000D01*
X208191000Y-77030000D02*
X208191000Y-83850000D01*
X208231000Y-67469000D02*
X208231000Y-74270000D01*
X208231000Y-77030000D02*
X208231000Y-83831000D01*
X208271000Y-67488000D02*
X208271000Y-74270000D01*
X208271000Y-77030000D02*
X208271000Y-83812000D01*
X208311000Y-67507000D02*
X208311000Y-74270000D01*
X208311000Y-77030000D02*
X208311000Y-83793000D01*
X208351000Y-67527000D02*
X208351000Y-74270000D01*
X208351000Y-77030000D02*
X208351000Y-83773000D01*
X208391000Y-67547000D02*
X208391000Y-74270000D01*
X208391000Y-77030000D02*
X208391000Y-83753000D01*
X208431000Y-67567000D02*
X208431000Y-74270000D01*
X208431000Y-77030000D02*
X208431000Y-83733000D01*
X208471000Y-67587000D02*
X208471000Y-74270000D01*
X208471000Y-77030000D02*
X208471000Y-83713000D01*
X208511000Y-67607000D02*
X208511000Y-74270000D01*
X208511000Y-77030000D02*
X208511000Y-83693000D01*
X208551000Y-67628000D02*
X208551000Y-74270000D01*
X208551000Y-77030000D02*
X208551000Y-83672000D01*
X208591000Y-67649000D02*
X208591000Y-74270000D01*
X208591000Y-77030000D02*
X208591000Y-83651000D01*
X208631000Y-67670000D02*
X208631000Y-74270000D01*
X208631000Y-77030000D02*
X208631000Y-83630000D01*
X208671000Y-67692000D02*
X208671000Y-74270000D01*
X208671000Y-77030000D02*
X208671000Y-83608000D01*
X208711000Y-67713000D02*
X208711000Y-74270000D01*
X208711000Y-77030000D02*
X208711000Y-83587000D01*
X208751000Y-67735000D02*
X208751000Y-74270000D01*
X208751000Y-77030000D02*
X208751000Y-83565000D01*
X208791000Y-67758000D02*
X208791000Y-74270000D01*
X208791000Y-77030000D02*
X208791000Y-83542000D01*
X208831000Y-67780000D02*
X208831000Y-74270000D01*
X208831000Y-77030000D02*
X208831000Y-83520000D01*
X208871000Y-67803000D02*
X208871000Y-74270000D01*
X208871000Y-77030000D02*
X208871000Y-83497000D01*
X208911000Y-67826000D02*
X208911000Y-74270000D01*
X208911000Y-77030000D02*
X208911000Y-83474000D01*
X208951000Y-67849000D02*
X208951000Y-74270000D01*
X208951000Y-77030000D02*
X208951000Y-83451000D01*
X208991000Y-67873000D02*
X208991000Y-74270000D01*
X208991000Y-77030000D02*
X208991000Y-83427000D01*
X209031000Y-67897000D02*
X209031000Y-74270000D01*
X209031000Y-77030000D02*
X209031000Y-83403000D01*
X209071000Y-67921000D02*
X209071000Y-74270000D01*
X209071000Y-77030000D02*
X209071000Y-83379000D01*
X209111000Y-67945000D02*
X209111000Y-74270000D01*
X209111000Y-77030000D02*
X209111000Y-83355000D01*
X209151000Y-67970000D02*
X209151000Y-74270000D01*
X209151000Y-77030000D02*
X209151000Y-83330000D01*
X209191000Y-67995000D02*
X209191000Y-74270000D01*
X209191000Y-77030000D02*
X209191000Y-83305000D01*
X209231000Y-68020000D02*
X209231000Y-74270000D01*
X209231000Y-77030000D02*
X209231000Y-83280000D01*
X209271000Y-68046000D02*
X209271000Y-74270000D01*
X209271000Y-77030000D02*
X209271000Y-83254000D01*
X209311000Y-68072000D02*
X209311000Y-74270000D01*
X209311000Y-77030000D02*
X209311000Y-83228000D01*
X209351000Y-68098000D02*
X209351000Y-74270000D01*
X209351000Y-77030000D02*
X209351000Y-83202000D01*
X209391000Y-68125000D02*
X209391000Y-74270000D01*
X209391000Y-77030000D02*
X209391000Y-83175000D01*
X209431000Y-68151000D02*
X209431000Y-74270000D01*
X209431000Y-77030000D02*
X209431000Y-83149000D01*
X209471000Y-68179000D02*
X209471000Y-74270000D01*
X209471000Y-77030000D02*
X209471000Y-83121000D01*
X209511000Y-68206000D02*
X209511000Y-83094000D01*
X209551000Y-68234000D02*
X209551000Y-83066000D01*
X209591000Y-68262000D02*
X209591000Y-83038000D01*
X209631000Y-68290000D02*
X209631000Y-83010000D01*
X209671000Y-68319000D02*
X209671000Y-82981000D01*
X209711000Y-68348000D02*
X209711000Y-82952000D01*
X209751000Y-68377000D02*
X209751000Y-82923000D01*
X209791000Y-68407000D02*
X209791000Y-82893000D01*
X209831000Y-68437000D02*
X209831000Y-82863000D01*
X209871000Y-68467000D02*
X209871000Y-82833000D01*
X209911000Y-68498000D02*
X209911000Y-82802000D01*
X209951000Y-68529000D02*
X209951000Y-82771000D01*
X209991000Y-68561000D02*
X209991000Y-82739000D01*
X210031000Y-68593000D02*
X210031000Y-82707000D01*
X210071000Y-68625000D02*
X210071000Y-82675000D01*
X210111000Y-68657000D02*
X210111000Y-82643000D01*
X210151000Y-68690000D02*
X210151000Y-82610000D01*
X210191000Y-68724000D02*
X210191000Y-82576000D01*
X210231000Y-68757000D02*
X210231000Y-82543000D01*
X210271000Y-68792000D02*
X210271000Y-82508000D01*
X210311000Y-68826000D02*
X210311000Y-82474000D01*
X210351000Y-68861000D02*
X210351000Y-82439000D01*
X210391000Y-68896000D02*
X210391000Y-82404000D01*
X210431000Y-68932000D02*
X210431000Y-82368000D01*
X210471000Y-68968000D02*
X210471000Y-82332000D01*
X210511000Y-69005000D02*
X210511000Y-82295000D01*
X210551000Y-69042000D02*
X210551000Y-82258000D01*
X210591000Y-69080000D02*
X210591000Y-82220000D01*
X210631000Y-69118000D02*
X210631000Y-82182000D01*
X210671000Y-69156000D02*
X210671000Y-82144000D01*
X210711000Y-69195000D02*
X210711000Y-82105000D01*
X210751000Y-69234000D02*
X210751000Y-82066000D01*
X210791000Y-69274000D02*
X210791000Y-82026000D01*
X210831000Y-69315000D02*
X210831000Y-81985000D01*
X210871000Y-69356000D02*
X210871000Y-81944000D01*
X210911000Y-69397000D02*
X210911000Y-81903000D01*
X210951000Y-69439000D02*
X210951000Y-81861000D01*
X210991000Y-69482000D02*
X210991000Y-81818000D01*
X211031000Y-69525000D02*
X211031000Y-81775000D01*
X211071000Y-69568000D02*
X211071000Y-81732000D01*
X211111000Y-69612000D02*
X211111000Y-81688000D01*
X211151000Y-69657000D02*
X211151000Y-81643000D01*
X211191000Y-69703000D02*
X211191000Y-81597000D01*
X211231000Y-69749000D02*
X211231000Y-81551000D01*
X211271000Y-69795000D02*
X211271000Y-81505000D01*
X211311000Y-69843000D02*
X211311000Y-81457000D01*
X211351000Y-69891000D02*
X211351000Y-81409000D01*
X211391000Y-69939000D02*
X211391000Y-81361000D01*
X211431000Y-69988000D02*
X211431000Y-81312000D01*
X211471000Y-70039000D02*
X211471000Y-81261000D01*
X211511000Y-70089000D02*
X211511000Y-81211000D01*
X211551000Y-70141000D02*
X211551000Y-81159000D01*
X211591000Y-70193000D02*
X211591000Y-81107000D01*
X211631000Y-70246000D02*
X211631000Y-81054000D01*
X211671000Y-70300000D02*
X211671000Y-81000000D01*
X211711000Y-70355000D02*
X211711000Y-80945000D01*
X211751000Y-70410000D02*
X211751000Y-80890000D01*
X211791000Y-70467000D02*
X211791000Y-80833000D01*
X211831000Y-70524000D02*
X211831000Y-80776000D01*
X211871000Y-70583000D02*
X211871000Y-80717000D01*
X211911000Y-70642000D02*
X211911000Y-80658000D01*
X211951000Y-70703000D02*
X211951000Y-80597000D01*
X211991000Y-70764000D02*
X211991000Y-80536000D01*
X212031000Y-70827000D02*
X212031000Y-80473000D01*
X212071000Y-70891000D02*
X212071000Y-80409000D01*
X212111000Y-70956000D02*
X212111000Y-80344000D01*
X212151000Y-71022000D02*
X212151000Y-80278000D01*
X212191000Y-71089000D02*
X212191000Y-80211000D01*
X212231000Y-71158000D02*
X212231000Y-80142000D01*
X212271000Y-71228000D02*
X212271000Y-80072000D01*
X212311000Y-71300000D02*
X212311000Y-80000000D01*
X212351000Y-71373000D02*
X212351000Y-79927000D01*
X212391000Y-71448000D02*
X212391000Y-79852000D01*
X212431000Y-71525000D02*
X212431000Y-79775000D01*
X212471000Y-71604000D02*
X212471000Y-79696000D01*
X212511000Y-71684000D02*
X212511000Y-79616000D01*
X212550000Y-71767000D02*
X212550000Y-79533000D01*
X212590000Y-71851000D02*
X212590000Y-79449000D01*
X212630000Y-71939000D02*
X212630000Y-79361000D01*
X212670000Y-72028000D02*
X212670000Y-79272000D01*
X212710000Y-72120000D02*
X212710000Y-79180000D01*
X212750000Y-72216000D02*
X212750000Y-79084000D01*
X212790000Y-72314000D02*
X212790000Y-78986000D01*
X212830000Y-72416000D02*
X212830000Y-78884000D01*
X212870000Y-72521000D02*
X212870000Y-78779000D01*
X212910000Y-72631000D02*
X212910000Y-78669000D01*
X212950000Y-72745000D02*
X212950000Y-78555000D01*
X212990000Y-72865000D02*
X212990000Y-78435000D01*
X213030000Y-72990000D02*
X213030000Y-78310000D01*
X213070000Y-73122000D02*
X213070000Y-78178000D01*
X213110000Y-73262000D02*
X213110000Y-78038000D01*
X213150000Y-73412000D02*
X213150000Y-77888000D01*
X213190000Y-73572000D02*
X213190000Y-77728000D01*
X213230000Y-73747000D02*
X213230000Y-77553000D01*
X213270000Y-73940000D02*
X213270000Y-77360000D01*
X213310000Y-74158000D02*
X213310000Y-77142000D01*
X213350000Y-74414000D02*
X213350000Y-76886000D01*
X213390000Y-74737000D02*
X213390000Y-76563000D01*
X213430000Y-75263000D02*
X213430000Y-76037000D01*
X197400000Y-75650000D02*
X199200000Y-75650000D01*
X198300000Y-74750000D02*
X198300000Y-76550000D01*
G04 #@! TO.C,C2*
X151914142Y-109178356D02*
X153328356Y-107764142D01*
X151885858Y-106321644D02*
X150471644Y-107735858D01*
G04 #@! TO.C,C3*
X157214142Y-99928356D02*
X158628356Y-98514142D01*
X157185858Y-97071644D02*
X155771644Y-98485858D01*
G04 #@! TO.C,C4*
X140020000Y-119700000D02*
X140020000Y-117700000D01*
X137980000Y-117700000D02*
X137980000Y-119700000D01*
G04 #@! TO.C,C5*
X132400000Y-111800000D02*
X132400000Y-112800000D01*
X134100000Y-112800000D02*
X134100000Y-111800000D01*
G04 #@! TO.C,C6*
X132550000Y-118550000D02*
X132550000Y-119550000D01*
X134250000Y-119550000D02*
X134250000Y-118550000D01*
G04 #@! TO.C,C7*
X134250000Y-126300000D02*
X134250000Y-125300000D01*
X132550000Y-125300000D02*
X132550000Y-126300000D01*
G04 #@! TO.C,C8*
X162928356Y-119585858D02*
X161514142Y-118171644D01*
X160071644Y-119614142D02*
X161485858Y-121028356D01*
G04 #@! TO.C,C9*
X164183264Y-137248437D02*
G75*
G03X164180000Y-127450643I-1383264J4898437D01*
G01*
X161416736Y-137248437D02*
G75*
G02X161420000Y-127450643I1383264J4898437D01*
G01*
X161416736Y-137248437D02*
G75*
G03X164180000Y-137249357I1383264J4898437D01*
G01*
X167850000Y-132350000D02*
X157750000Y-132350000D01*
X167850000Y-132390000D02*
X157750000Y-132390000D01*
X167850000Y-132430000D02*
X157750000Y-132430000D01*
X167849000Y-132470000D02*
X157751000Y-132470000D01*
X167848000Y-132510000D02*
X157752000Y-132510000D01*
X167847000Y-132550000D02*
X157753000Y-132550000D01*
X167845000Y-132590000D02*
X157755000Y-132590000D01*
X167843000Y-132630000D02*
X157757000Y-132630000D01*
X167840000Y-132670000D02*
X157760000Y-132670000D01*
X167838000Y-132710000D02*
X157762000Y-132710000D01*
X167835000Y-132750000D02*
X157765000Y-132750000D01*
X167831000Y-132790000D02*
X157769000Y-132790000D01*
X167828000Y-132830000D02*
X157772000Y-132830000D01*
X167824000Y-132870000D02*
X157776000Y-132870000D01*
X167820000Y-132910000D02*
X157780000Y-132910000D01*
X167815000Y-132950000D02*
X157785000Y-132950000D01*
X167810000Y-132990000D02*
X157790000Y-132990000D01*
X167805000Y-133030000D02*
X157795000Y-133030000D01*
X167799000Y-133071000D02*
X157801000Y-133071000D01*
X167793000Y-133111000D02*
X157807000Y-133111000D01*
X167787000Y-133151000D02*
X157813000Y-133151000D01*
X167781000Y-133191000D02*
X157819000Y-133191000D01*
X167774000Y-133231000D02*
X157826000Y-133231000D01*
X167767000Y-133271000D02*
X157833000Y-133271000D01*
X167759000Y-133311000D02*
X157841000Y-133311000D01*
X167751000Y-133351000D02*
X157849000Y-133351000D01*
X167743000Y-133391000D02*
X157857000Y-133391000D01*
X167735000Y-133431000D02*
X157865000Y-133431000D01*
X167726000Y-133471000D02*
X157874000Y-133471000D01*
X167717000Y-133511000D02*
X157883000Y-133511000D01*
X167707000Y-133551000D02*
X157893000Y-133551000D01*
X167697000Y-133591000D02*
X157903000Y-133591000D01*
X167687000Y-133631000D02*
X157913000Y-133631000D01*
X167676000Y-133671000D02*
X163981000Y-133671000D01*
X161619000Y-133671000D02*
X157924000Y-133671000D01*
X167665000Y-133711000D02*
X163981000Y-133711000D01*
X161619000Y-133711000D02*
X157935000Y-133711000D01*
X167654000Y-133751000D02*
X163981000Y-133751000D01*
X161619000Y-133751000D02*
X157946000Y-133751000D01*
X167643000Y-133791000D02*
X163981000Y-133791000D01*
X161619000Y-133791000D02*
X157957000Y-133791000D01*
X167631000Y-133831000D02*
X163981000Y-133831000D01*
X161619000Y-133831000D02*
X157969000Y-133831000D01*
X167618000Y-133871000D02*
X163981000Y-133871000D01*
X161619000Y-133871000D02*
X157982000Y-133871000D01*
X167606000Y-133911000D02*
X163981000Y-133911000D01*
X161619000Y-133911000D02*
X157994000Y-133911000D01*
X167592000Y-133951000D02*
X163981000Y-133951000D01*
X161619000Y-133951000D02*
X158008000Y-133951000D01*
X167579000Y-133991000D02*
X163981000Y-133991000D01*
X161619000Y-133991000D02*
X158021000Y-133991000D01*
X167565000Y-134031000D02*
X163981000Y-134031000D01*
X161619000Y-134031000D02*
X158035000Y-134031000D01*
X167551000Y-134071000D02*
X163981000Y-134071000D01*
X161619000Y-134071000D02*
X158049000Y-134071000D01*
X167537000Y-134111000D02*
X163981000Y-134111000D01*
X161619000Y-134111000D02*
X158063000Y-134111000D01*
X167522000Y-134151000D02*
X163981000Y-134151000D01*
X161619000Y-134151000D02*
X158078000Y-134151000D01*
X167506000Y-134191000D02*
X163981000Y-134191000D01*
X161619000Y-134191000D02*
X158094000Y-134191000D01*
X167491000Y-134231000D02*
X163981000Y-134231000D01*
X161619000Y-134231000D02*
X158109000Y-134231000D01*
X167474000Y-134271000D02*
X163981000Y-134271000D01*
X161619000Y-134271000D02*
X158126000Y-134271000D01*
X167458000Y-134311000D02*
X163981000Y-134311000D01*
X161619000Y-134311000D02*
X158142000Y-134311000D01*
X167441000Y-134351000D02*
X163981000Y-134351000D01*
X161619000Y-134351000D02*
X158159000Y-134351000D01*
X167424000Y-134391000D02*
X163981000Y-134391000D01*
X161619000Y-134391000D02*
X158176000Y-134391000D01*
X167406000Y-134431000D02*
X163981000Y-134431000D01*
X161619000Y-134431000D02*
X158194000Y-134431000D01*
X167388000Y-134471000D02*
X163981000Y-134471000D01*
X161619000Y-134471000D02*
X158212000Y-134471000D01*
X167369000Y-134511000D02*
X163981000Y-134511000D01*
X161619000Y-134511000D02*
X158231000Y-134511000D01*
X167350000Y-134551000D02*
X163981000Y-134551000D01*
X161619000Y-134551000D02*
X158250000Y-134551000D01*
X167331000Y-134591000D02*
X163981000Y-134591000D01*
X161619000Y-134591000D02*
X158269000Y-134591000D01*
X167311000Y-134631000D02*
X163981000Y-134631000D01*
X161619000Y-134631000D02*
X158289000Y-134631000D01*
X167291000Y-134671000D02*
X163981000Y-134671000D01*
X161619000Y-134671000D02*
X158309000Y-134671000D01*
X167270000Y-134711000D02*
X163981000Y-134711000D01*
X161619000Y-134711000D02*
X158330000Y-134711000D01*
X167249000Y-134751000D02*
X163981000Y-134751000D01*
X161619000Y-134751000D02*
X158351000Y-134751000D01*
X167228000Y-134791000D02*
X163981000Y-134791000D01*
X161619000Y-134791000D02*
X158372000Y-134791000D01*
X167205000Y-134831000D02*
X163981000Y-134831000D01*
X161619000Y-134831000D02*
X158395000Y-134831000D01*
X167183000Y-134871000D02*
X163981000Y-134871000D01*
X161619000Y-134871000D02*
X158417000Y-134871000D01*
X167160000Y-134911000D02*
X163981000Y-134911000D01*
X161619000Y-134911000D02*
X158440000Y-134911000D01*
X167136000Y-134951000D02*
X163981000Y-134951000D01*
X161619000Y-134951000D02*
X158464000Y-134951000D01*
X167112000Y-134991000D02*
X163981000Y-134991000D01*
X161619000Y-134991000D02*
X158488000Y-134991000D01*
X167088000Y-135031000D02*
X163981000Y-135031000D01*
X161619000Y-135031000D02*
X158512000Y-135031000D01*
X167063000Y-135071000D02*
X163981000Y-135071000D01*
X161619000Y-135071000D02*
X158537000Y-135071000D01*
X167037000Y-135111000D02*
X163981000Y-135111000D01*
X161619000Y-135111000D02*
X158563000Y-135111000D01*
X167011000Y-135151000D02*
X163981000Y-135151000D01*
X161619000Y-135151000D02*
X158589000Y-135151000D01*
X166985000Y-135191000D02*
X163981000Y-135191000D01*
X161619000Y-135191000D02*
X158615000Y-135191000D01*
X166957000Y-135231000D02*
X163981000Y-135231000D01*
X161619000Y-135231000D02*
X158643000Y-135231000D01*
X166930000Y-135271000D02*
X163981000Y-135271000D01*
X161619000Y-135271000D02*
X158670000Y-135271000D01*
X166901000Y-135311000D02*
X163981000Y-135311000D01*
X161619000Y-135311000D02*
X158699000Y-135311000D01*
X166872000Y-135351000D02*
X163981000Y-135351000D01*
X161619000Y-135351000D02*
X158728000Y-135351000D01*
X166843000Y-135391000D02*
X163981000Y-135391000D01*
X161619000Y-135391000D02*
X158757000Y-135391000D01*
X166813000Y-135431000D02*
X163981000Y-135431000D01*
X161619000Y-135431000D02*
X158787000Y-135431000D01*
X166782000Y-135471000D02*
X163981000Y-135471000D01*
X161619000Y-135471000D02*
X158818000Y-135471000D01*
X166751000Y-135511000D02*
X163981000Y-135511000D01*
X161619000Y-135511000D02*
X158849000Y-135511000D01*
X166719000Y-135551000D02*
X163981000Y-135551000D01*
X161619000Y-135551000D02*
X158881000Y-135551000D01*
X166686000Y-135591000D02*
X163981000Y-135591000D01*
X161619000Y-135591000D02*
X158914000Y-135591000D01*
X166653000Y-135631000D02*
X163981000Y-135631000D01*
X161619000Y-135631000D02*
X158947000Y-135631000D01*
X166619000Y-135671000D02*
X163981000Y-135671000D01*
X161619000Y-135671000D02*
X158981000Y-135671000D01*
X166584000Y-135711000D02*
X163981000Y-135711000D01*
X161619000Y-135711000D02*
X159016000Y-135711000D01*
X166548000Y-135751000D02*
X163981000Y-135751000D01*
X161619000Y-135751000D02*
X159052000Y-135751000D01*
X166512000Y-135791000D02*
X163981000Y-135791000D01*
X161619000Y-135791000D02*
X159088000Y-135791000D01*
X166475000Y-135831000D02*
X163981000Y-135831000D01*
X161619000Y-135831000D02*
X159125000Y-135831000D01*
X166437000Y-135871000D02*
X163981000Y-135871000D01*
X161619000Y-135871000D02*
X159163000Y-135871000D01*
X166398000Y-135911000D02*
X163981000Y-135911000D01*
X161619000Y-135911000D02*
X159202000Y-135911000D01*
X166359000Y-135951000D02*
X163981000Y-135951000D01*
X161619000Y-135951000D02*
X159241000Y-135951000D01*
X166318000Y-135991000D02*
X163981000Y-135991000D01*
X161619000Y-135991000D02*
X159282000Y-135991000D01*
X166277000Y-136031000D02*
X159323000Y-136031000D01*
X166235000Y-136071000D02*
X159365000Y-136071000D01*
X166191000Y-136111000D02*
X159409000Y-136111000D01*
X166147000Y-136151000D02*
X159453000Y-136151000D01*
X166102000Y-136191000D02*
X159498000Y-136191000D01*
X166055000Y-136231000D02*
X159545000Y-136231000D01*
X166007000Y-136271000D02*
X159593000Y-136271000D01*
X165958000Y-136311000D02*
X159642000Y-136311000D01*
X165908000Y-136351000D02*
X159692000Y-136351000D01*
X165857000Y-136391000D02*
X159743000Y-136391000D01*
X165804000Y-136431000D02*
X159796000Y-136431000D01*
X165749000Y-136471000D02*
X159851000Y-136471000D01*
X165694000Y-136511000D02*
X159906000Y-136511000D01*
X165636000Y-136551000D02*
X159964000Y-136551000D01*
X165577000Y-136591000D02*
X160023000Y-136591000D01*
X165515000Y-136631000D02*
X160085000Y-136631000D01*
X165452000Y-136671000D02*
X160148000Y-136671000D01*
X165387000Y-136711000D02*
X160213000Y-136711000D01*
X165319000Y-136751000D02*
X160281000Y-136751000D01*
X165249000Y-136791000D02*
X160351000Y-136791000D01*
X165177000Y-136831000D02*
X160423000Y-136831000D01*
X165101000Y-136871000D02*
X160499000Y-136871000D01*
X165022000Y-136911000D02*
X160578000Y-136911000D01*
X164940000Y-136951000D02*
X160660000Y-136951000D01*
X164853000Y-136991000D02*
X160747000Y-136991000D01*
X164762000Y-137031000D02*
X160838000Y-137031000D01*
X164666000Y-137071000D02*
X160934000Y-137071000D01*
X164563000Y-137111000D02*
X161037000Y-137111000D01*
X164454000Y-137151000D02*
X161146000Y-137151000D01*
X164336000Y-137191000D02*
X161264000Y-137191000D01*
X164207000Y-137231000D02*
X161393000Y-137231000D01*
X164065000Y-137271000D02*
X161535000Y-137271000D01*
X163904000Y-137311000D02*
X161696000Y-137311000D01*
X163713000Y-137351000D02*
X161887000Y-137351000D01*
X163472000Y-137391000D02*
X162128000Y-137391000D01*
X163079000Y-137431000D02*
X162521000Y-137431000D01*
X162800000Y-127150000D02*
X162800000Y-128650000D01*
X163550000Y-127900000D02*
X162050000Y-127900000D01*
G04 #@! TO.C,C10*
X157528482Y-117114016D02*
X158942696Y-115699802D01*
X157500198Y-114257304D02*
X156085984Y-115671518D01*
G04 #@! TO.C,C11*
X164939016Y-117446518D02*
X163524802Y-116032304D01*
X162082304Y-117474802D02*
X163496518Y-118889016D01*
D12*
G04 #@! TO.C,C12*
X145200000Y-115750000D02*
X145200000Y-122750000D01*
X146300000Y-113950000D02*
X145200000Y-115750000D01*
X148800000Y-113950000D02*
X146300000Y-113950000D01*
X152400000Y-115750000D02*
X152400000Y-116450000D01*
X152100000Y-115250000D02*
X152400000Y-115750000D01*
X151300000Y-113950000D02*
X152100000Y-115250000D01*
X148800000Y-113950000D02*
X151300000Y-113950000D01*
X152400000Y-122750000D02*
X152400000Y-116350000D01*
X145200000Y-122750000D02*
X152400000Y-122750000D01*
D13*
G04 #@! TO.C,C13*
X164505000Y-96150000D02*
X164505000Y-98150000D01*
X166545000Y-98150000D02*
X166545000Y-96150000D01*
G04 #@! TO.C,C14*
X154935858Y-112771644D02*
X153521644Y-114185858D01*
X154964142Y-115628356D02*
X156378356Y-114214142D01*
G04 #@! TO.C,C15*
X132500000Y-137925000D02*
X132500000Y-133325000D01*
X135900000Y-137925000D02*
X135900000Y-133325000D01*
X132500000Y-137925000D02*
X135900000Y-137925000D01*
G04 #@! TO.C,D1*
X152350000Y-128850000D02*
X152350000Y-130850000D01*
X152350000Y-130850000D02*
X156200000Y-130850000D01*
X152350000Y-128850000D02*
X156200000Y-128850000D01*
D14*
G04 #@! TO.C,J1*
X138300000Y-70100000D02*
X167300000Y-70100000D01*
D12*
X137750000Y-69300000D02*
X137750000Y-81900000D01*
X167850000Y-69300000D02*
X137750000Y-69300000D01*
X167850000Y-81900000D02*
X167850000Y-69300000D01*
X137750000Y-81900000D02*
X167850000Y-81900000D01*
D14*
G04 #@! TO.C,J2*
X119800000Y-138525000D02*
X119800000Y-130525000D01*
D12*
X119000000Y-139075000D02*
X131600000Y-139075000D01*
X119000000Y-129975000D02*
X119000000Y-139075000D01*
X131600000Y-129975000D02*
X119000000Y-129975000D01*
X131600000Y-139075000D02*
X131600000Y-129975000D01*
D13*
G04 #@! TO.C,J3*
X129980000Y-81890000D02*
X124780000Y-81890000D01*
X129980000Y-87030000D02*
X129980000Y-81890000D01*
X124780000Y-89630000D02*
X124780000Y-81890000D01*
X129980000Y-87030000D02*
X127380000Y-87030000D01*
X127380000Y-87030000D02*
X127380000Y-89630000D01*
X127380000Y-89630000D02*
X124780000Y-89630000D01*
X129980000Y-88300000D02*
X129980000Y-89630000D01*
X129980000Y-89630000D02*
X128650000Y-89630000D01*
G04 #@! TO.C,J4*
X129980000Y-91040000D02*
X124780000Y-91040000D01*
X129980000Y-96180000D02*
X129980000Y-91040000D01*
X124780000Y-98780000D02*
X124780000Y-91040000D01*
X129980000Y-96180000D02*
X127380000Y-96180000D01*
X127380000Y-96180000D02*
X127380000Y-98780000D01*
X127380000Y-98780000D02*
X124780000Y-98780000D01*
X129980000Y-97450000D02*
X129980000Y-98780000D01*
X129980000Y-98780000D02*
X128650000Y-98780000D01*
G04 #@! TO.C,J5*
X129980000Y-100230000D02*
X124780000Y-100230000D01*
X129980000Y-102830000D02*
X129980000Y-100230000D01*
X124780000Y-105430000D02*
X124780000Y-100230000D01*
X129980000Y-102830000D02*
X127380000Y-102830000D01*
X127380000Y-102830000D02*
X127380000Y-105430000D01*
X127380000Y-105430000D02*
X124780000Y-105430000D01*
X129980000Y-104100000D02*
X129980000Y-105430000D01*
X129980000Y-105430000D02*
X128650000Y-105430000D01*
D12*
G04 #@! TO.C,L1*
X156750000Y-141950000D02*
X156750000Y-131450000D01*
X145050000Y-141950000D02*
X156750000Y-141950000D01*
X145050000Y-131450000D02*
X145050000Y-141950000D01*
X156750000Y-131450000D02*
X145050000Y-131450000D01*
G04 #@! TO.C,M1*
X204900000Y-117800000D02*
X204900000Y-102200000D01*
X214500000Y-117800000D02*
X204900000Y-117800000D01*
X214500000Y-102200000D02*
X214500000Y-117800000D01*
X204900000Y-102200000D02*
X214500000Y-102200000D01*
D13*
G04 #@! TO.C,R1*
X156838406Y-96774802D02*
X155424192Y-98189016D01*
X153910984Y-96675808D02*
X155325198Y-95261594D01*
G04 #@! TO.C,R2*
X134680000Y-112900000D02*
X134680000Y-110900000D01*
X136820000Y-110900000D02*
X136820000Y-112900000D01*
G04 #@! TO.C,R3*
X133950000Y-89470000D02*
X131950000Y-89470000D01*
X131950000Y-87330000D02*
X133950000Y-87330000D01*
G04 #@! TO.C,R4*
X133950000Y-86870000D02*
X131950000Y-86870000D01*
X131950000Y-84730000D02*
X133950000Y-84730000D01*
G04 #@! TO.C,R5*
X133950000Y-84170000D02*
X131950000Y-84170000D01*
X131950000Y-82030000D02*
X133950000Y-82030000D01*
G04 #@! TO.C,R6*
X133950000Y-98720000D02*
X131950000Y-98720000D01*
X131950000Y-96580000D02*
X133950000Y-96580000D01*
G04 #@! TO.C,R7*
X133950000Y-96120000D02*
X131950000Y-96120000D01*
X131950000Y-93980000D02*
X133950000Y-93980000D01*
G04 #@! TO.C,R8*
X134880000Y-119650000D02*
X134880000Y-117650000D01*
X137020000Y-117650000D02*
X137020000Y-119650000D01*
G04 #@! TO.C,R9*
X133950000Y-105070000D02*
X131950000Y-105070000D01*
X131950000Y-102930000D02*
X133950000Y-102930000D01*
G04 #@! TO.C,R10*
X133950000Y-102670000D02*
X131950000Y-102670000D01*
X131950000Y-100530000D02*
X133950000Y-100530000D01*
G04 #@! TO.C,R11*
X149950000Y-94030000D02*
X149950000Y-92030000D01*
X152090000Y-92030000D02*
X152090000Y-94030000D01*
G04 #@! TO.C,R12*
X137020000Y-125200000D02*
X137020000Y-127200000D01*
X134880000Y-127200000D02*
X134880000Y-125200000D01*
G04 #@! TO.C,R13*
X149530000Y-92030000D02*
X149530000Y-94030000D01*
X147390000Y-94030000D02*
X147390000Y-92030000D01*
G04 #@! TO.C,R14*
X159500503Y-122963711D02*
X158086289Y-121549497D01*
X159599497Y-120036289D02*
X161013711Y-121450503D01*
G04 #@! TO.C,R15*
X156000000Y-126430000D02*
X154800000Y-126430000D01*
X154800000Y-124670000D02*
X156000000Y-124670000D01*
G04 #@! TO.C,R16*
X159600000Y-126430000D02*
X158400000Y-126430000D01*
X158400000Y-124670000D02*
X159600000Y-124670000D01*
G04 #@! TO.C,U1*
X196200000Y-104750000D02*
X195400000Y-104750000D01*
X196200000Y-104750000D02*
X197800000Y-104750000D01*
X196200000Y-101650000D02*
X195400000Y-101650000D01*
X196200000Y-101650000D02*
X197000000Y-101650000D01*
D15*
G04 #@! TO.C,U2*
X155663076Y-107370800D02*
X156034307Y-107742031D01*
X160789600Y-102244276D02*
X161160831Y-102615507D01*
X165916124Y-107370800D02*
X165544893Y-106999569D01*
X160789600Y-112497324D02*
X160418369Y-112126093D01*
X160789600Y-102244276D02*
X160418369Y-102615507D01*
X165916124Y-107370800D02*
X165544893Y-107742031D01*
X155663076Y-107370800D02*
X156034307Y-106999569D01*
D13*
G04 #@! TO.C,U3*
X182900000Y-142400000D02*
X184400000Y-142400000D01*
X184400000Y-142400000D02*
X184400000Y-140590000D01*
X184400000Y-140590000D02*
X189525000Y-140590000D01*
X182900000Y-132000000D02*
X184400000Y-132000000D01*
X184400000Y-132000000D02*
X184400000Y-133810000D01*
X184400000Y-133810000D02*
X185500000Y-133810000D01*
G04 #@! TO.C,U5*
X182924999Y-122050000D02*
X184424999Y-122050000D01*
X184424999Y-122050000D02*
X184424999Y-120240000D01*
X184424999Y-120240000D02*
X189549999Y-120240000D01*
X182924999Y-111650000D02*
X184424999Y-111650000D01*
X184424999Y-111650000D02*
X184424999Y-113460000D01*
X184424999Y-113460000D02*
X185524999Y-113460000D01*
G04 #@! TO.C,U7*
X182950000Y-101700000D02*
X184450000Y-101700000D01*
X184450000Y-101700000D02*
X184450000Y-99890000D01*
X184450000Y-99890000D02*
X189575000Y-99890000D01*
X182950000Y-91300000D02*
X184450000Y-91300000D01*
X184450000Y-91300000D02*
X184450000Y-93110000D01*
X184450000Y-93110000D02*
X185550000Y-93110000D01*
D14*
G04 #@! TO.C,U9*
X119800000Y-118300000D02*
X119800000Y-109300000D01*
X119800000Y-118300000D02*
X119800000Y-127300000D01*
D12*
X119000000Y-128100000D02*
X131600000Y-128100000D01*
X119000000Y-108500000D02*
X119000000Y-128100000D01*
X131600000Y-108500000D02*
X119000000Y-108500000D01*
X131600000Y-128100000D02*
X131600000Y-108500000D01*
G04 #@! TO.C,BT1*
D15*
X183714285Y-76228571D02*
X183857142Y-76276190D01*
X183904761Y-76323809D01*
X183952380Y-76419047D01*
X183952380Y-76561904D01*
X183904761Y-76657142D01*
X183857142Y-76704761D01*
X183761904Y-76752380D01*
X183380952Y-76752380D01*
X183380952Y-75752380D01*
X183714285Y-75752380D01*
X183809523Y-75800000D01*
X183857142Y-75847619D01*
X183904761Y-75942857D01*
X183904761Y-76038095D01*
X183857142Y-76133333D01*
X183809523Y-76180952D01*
X183714285Y-76228571D01*
X183380952Y-76228571D01*
X184238095Y-75752380D02*
X184809523Y-75752380D01*
X184523809Y-76752380D02*
X184523809Y-75752380D01*
X185666666Y-76752380D02*
X185095238Y-76752380D01*
X185380952Y-76752380D02*
X185380952Y-75752380D01*
X185285714Y-75895238D01*
X185190476Y-75990476D01*
X185095238Y-76038095D01*
G04 #@! TO.C,C1*
X206933333Y-86957142D02*
X206885714Y-87004761D01*
X206742857Y-87052380D01*
X206647619Y-87052380D01*
X206504761Y-87004761D01*
X206409523Y-86909523D01*
X206361904Y-86814285D01*
X206314285Y-86623809D01*
X206314285Y-86480952D01*
X206361904Y-86290476D01*
X206409523Y-86195238D01*
X206504761Y-86100000D01*
X206647619Y-86052380D01*
X206742857Y-86052380D01*
X206885714Y-86100000D01*
X206933333Y-86147619D01*
X207885714Y-87052380D02*
X207314285Y-87052380D01*
X207600000Y-87052380D02*
X207600000Y-86052380D01*
X207504761Y-86195238D01*
X207409523Y-86290476D01*
X207314285Y-86338095D01*
G04 #@! TO.C,C2*
X148783333Y-110507142D02*
X148735714Y-110554761D01*
X148592857Y-110602380D01*
X148497619Y-110602380D01*
X148354761Y-110554761D01*
X148259523Y-110459523D01*
X148211904Y-110364285D01*
X148164285Y-110173809D01*
X148164285Y-110030952D01*
X148211904Y-109840476D01*
X148259523Y-109745238D01*
X148354761Y-109650000D01*
X148497619Y-109602380D01*
X148592857Y-109602380D01*
X148735714Y-109650000D01*
X148783333Y-109697619D01*
X149164285Y-109697619D02*
X149211904Y-109650000D01*
X149307142Y-109602380D01*
X149545238Y-109602380D01*
X149640476Y-109650000D01*
X149688095Y-109697619D01*
X149735714Y-109792857D01*
X149735714Y-109888095D01*
X149688095Y-110030952D01*
X149116666Y-110602380D01*
X149735714Y-110602380D01*
G04 #@! TO.C,C3*
X160083333Y-98807142D02*
X160035714Y-98854761D01*
X159892857Y-98902380D01*
X159797619Y-98902380D01*
X159654761Y-98854761D01*
X159559523Y-98759523D01*
X159511904Y-98664285D01*
X159464285Y-98473809D01*
X159464285Y-98330952D01*
X159511904Y-98140476D01*
X159559523Y-98045238D01*
X159654761Y-97950000D01*
X159797619Y-97902380D01*
X159892857Y-97902380D01*
X160035714Y-97950000D01*
X160083333Y-97997619D01*
X160416666Y-97902380D02*
X161035714Y-97902380D01*
X160702380Y-98283333D01*
X160845238Y-98283333D01*
X160940476Y-98330952D01*
X160988095Y-98378571D01*
X161035714Y-98473809D01*
X161035714Y-98711904D01*
X160988095Y-98807142D01*
X160940476Y-98854761D01*
X160845238Y-98902380D01*
X160559523Y-98902380D01*
X160464285Y-98854761D01*
X160416666Y-98807142D01*
G04 #@! TO.C,C4*
X138833333Y-115957142D02*
X138785714Y-116004761D01*
X138642857Y-116052380D01*
X138547619Y-116052380D01*
X138404761Y-116004761D01*
X138309523Y-115909523D01*
X138261904Y-115814285D01*
X138214285Y-115623809D01*
X138214285Y-115480952D01*
X138261904Y-115290476D01*
X138309523Y-115195238D01*
X138404761Y-115100000D01*
X138547619Y-115052380D01*
X138642857Y-115052380D01*
X138785714Y-115100000D01*
X138833333Y-115147619D01*
X139690476Y-115385714D02*
X139690476Y-116052380D01*
X139452380Y-115004761D02*
X139214285Y-115719047D01*
X139833333Y-115719047D01*
G04 #@! TO.C,C5*
X133083333Y-109057142D02*
X133035714Y-109104761D01*
X132892857Y-109152380D01*
X132797619Y-109152380D01*
X132654761Y-109104761D01*
X132559523Y-109009523D01*
X132511904Y-108914285D01*
X132464285Y-108723809D01*
X132464285Y-108580952D01*
X132511904Y-108390476D01*
X132559523Y-108295238D01*
X132654761Y-108200000D01*
X132797619Y-108152380D01*
X132892857Y-108152380D01*
X133035714Y-108200000D01*
X133083333Y-108247619D01*
X133988095Y-108152380D02*
X133511904Y-108152380D01*
X133464285Y-108628571D01*
X133511904Y-108580952D01*
X133607142Y-108533333D01*
X133845238Y-108533333D01*
X133940476Y-108580952D01*
X133988095Y-108628571D01*
X134035714Y-108723809D01*
X134035714Y-108961904D01*
X133988095Y-109057142D01*
X133940476Y-109104761D01*
X133845238Y-109152380D01*
X133607142Y-109152380D01*
X133511904Y-109104761D01*
X133464285Y-109057142D01*
G04 #@! TO.C,C6*
X133233333Y-115957142D02*
X133185714Y-116004761D01*
X133042857Y-116052380D01*
X132947619Y-116052380D01*
X132804761Y-116004761D01*
X132709523Y-115909523D01*
X132661904Y-115814285D01*
X132614285Y-115623809D01*
X132614285Y-115480952D01*
X132661904Y-115290476D01*
X132709523Y-115195238D01*
X132804761Y-115100000D01*
X132947619Y-115052380D01*
X133042857Y-115052380D01*
X133185714Y-115100000D01*
X133233333Y-115147619D01*
X134090476Y-115052380D02*
X133900000Y-115052380D01*
X133804761Y-115100000D01*
X133757142Y-115147619D01*
X133661904Y-115290476D01*
X133614285Y-115480952D01*
X133614285Y-115861904D01*
X133661904Y-115957142D01*
X133709523Y-116004761D01*
X133804761Y-116052380D01*
X133995238Y-116052380D01*
X134090476Y-116004761D01*
X134138095Y-115957142D01*
X134185714Y-115861904D01*
X134185714Y-115623809D01*
X134138095Y-115528571D01*
X134090476Y-115480952D01*
X133995238Y-115433333D01*
X133804761Y-115433333D01*
X133709523Y-115480952D01*
X133661904Y-115528571D01*
X133614285Y-115623809D01*
G04 #@! TO.C,C7*
X133033333Y-123357142D02*
X132985714Y-123404761D01*
X132842857Y-123452380D01*
X132747619Y-123452380D01*
X132604761Y-123404761D01*
X132509523Y-123309523D01*
X132461904Y-123214285D01*
X132414285Y-123023809D01*
X132414285Y-122880952D01*
X132461904Y-122690476D01*
X132509523Y-122595238D01*
X132604761Y-122500000D01*
X132747619Y-122452380D01*
X132842857Y-122452380D01*
X132985714Y-122500000D01*
X133033333Y-122547619D01*
X133366666Y-122452380D02*
X134033333Y-122452380D01*
X133604761Y-123452380D01*
G04 #@! TO.C,C8*
X164733333Y-121157142D02*
X164685714Y-121204761D01*
X164542857Y-121252380D01*
X164447619Y-121252380D01*
X164304761Y-121204761D01*
X164209523Y-121109523D01*
X164161904Y-121014285D01*
X164114285Y-120823809D01*
X164114285Y-120680952D01*
X164161904Y-120490476D01*
X164209523Y-120395238D01*
X164304761Y-120300000D01*
X164447619Y-120252380D01*
X164542857Y-120252380D01*
X164685714Y-120300000D01*
X164733333Y-120347619D01*
X165304761Y-120680952D02*
X165209523Y-120633333D01*
X165161904Y-120585714D01*
X165114285Y-120490476D01*
X165114285Y-120442857D01*
X165161904Y-120347619D01*
X165209523Y-120300000D01*
X165304761Y-120252380D01*
X165495238Y-120252380D01*
X165590476Y-120300000D01*
X165638095Y-120347619D01*
X165685714Y-120442857D01*
X165685714Y-120490476D01*
X165638095Y-120585714D01*
X165590476Y-120633333D01*
X165495238Y-120680952D01*
X165304761Y-120680952D01*
X165209523Y-120728571D01*
X165161904Y-120776190D01*
X165114285Y-120871428D01*
X165114285Y-121061904D01*
X165161904Y-121157142D01*
X165209523Y-121204761D01*
X165304761Y-121252380D01*
X165495238Y-121252380D01*
X165590476Y-121204761D01*
X165638095Y-121157142D01*
X165685714Y-121061904D01*
X165685714Y-120871428D01*
X165638095Y-120776190D01*
X165590476Y-120728571D01*
X165495238Y-120680952D01*
G04 #@! TO.C,C9*
X166333333Y-126457142D02*
X166285714Y-126504761D01*
X166142857Y-126552380D01*
X166047619Y-126552380D01*
X165904761Y-126504761D01*
X165809523Y-126409523D01*
X165761904Y-126314285D01*
X165714285Y-126123809D01*
X165714285Y-125980952D01*
X165761904Y-125790476D01*
X165809523Y-125695238D01*
X165904761Y-125600000D01*
X166047619Y-125552380D01*
X166142857Y-125552380D01*
X166285714Y-125600000D01*
X166333333Y-125647619D01*
X166809523Y-126552380D02*
X167000000Y-126552380D01*
X167095238Y-126504761D01*
X167142857Y-126457142D01*
X167238095Y-126314285D01*
X167285714Y-126123809D01*
X167285714Y-125742857D01*
X167238095Y-125647619D01*
X167190476Y-125600000D01*
X167095238Y-125552380D01*
X166904761Y-125552380D01*
X166809523Y-125600000D01*
X166761904Y-125647619D01*
X166714285Y-125742857D01*
X166714285Y-125980952D01*
X166761904Y-126076190D01*
X166809523Y-126123809D01*
X166904761Y-126171428D01*
X167095238Y-126171428D01*
X167190476Y-126123809D01*
X167238095Y-126076190D01*
X167285714Y-125980952D01*
G04 #@! TO.C,C10*
X158547969Y-118057107D02*
X158547969Y-118124451D01*
X158480625Y-118259138D01*
X158413282Y-118326481D01*
X158278595Y-118393825D01*
X158143908Y-118393825D01*
X158042893Y-118360153D01*
X157874534Y-118259138D01*
X157773519Y-118158123D01*
X157672503Y-117989764D01*
X157638832Y-117888749D01*
X157638832Y-117754062D01*
X157706175Y-117619375D01*
X157773519Y-117552031D01*
X157908206Y-117484688D01*
X157975549Y-117484688D01*
X159288748Y-117451016D02*
X158884687Y-117855077D01*
X159086717Y-117653046D02*
X158379610Y-116945939D01*
X158413282Y-117114298D01*
X158413282Y-117248985D01*
X158379610Y-117350001D01*
X159019374Y-116306176D02*
X159086717Y-116238833D01*
X159187732Y-116205161D01*
X159255076Y-116205161D01*
X159356091Y-116238833D01*
X159524450Y-116339848D01*
X159692809Y-116508207D01*
X159793824Y-116676565D01*
X159827496Y-116777581D01*
X159827496Y-116844924D01*
X159793824Y-116945939D01*
X159726480Y-117013283D01*
X159625465Y-117046955D01*
X159558122Y-117046955D01*
X159457106Y-117013283D01*
X159288748Y-116912268D01*
X159120389Y-116743909D01*
X159019374Y-116575550D01*
X158985702Y-116474535D01*
X158985702Y-116407191D01*
X159019374Y-116306176D01*
G04 #@! TO.C,C11*
X164697969Y-115707106D02*
X164697969Y-115774450D01*
X164630625Y-115909137D01*
X164563282Y-115976480D01*
X164428595Y-116043824D01*
X164293908Y-116043824D01*
X164192893Y-116010152D01*
X164024534Y-115909137D01*
X163923519Y-115808122D01*
X163822503Y-115639763D01*
X163788832Y-115538748D01*
X163788832Y-115404061D01*
X163856175Y-115269374D01*
X163923519Y-115202030D01*
X164058206Y-115134687D01*
X164125549Y-115134687D01*
X165438748Y-115101015D02*
X165034687Y-115505076D01*
X165236717Y-115303045D02*
X164529610Y-114595938D01*
X164563282Y-114764297D01*
X164563282Y-114898984D01*
X164529610Y-115000000D01*
X166112183Y-114427580D02*
X165708122Y-114831641D01*
X165910152Y-114629610D02*
X165203045Y-113922503D01*
X165236717Y-114090862D01*
X165236717Y-114225549D01*
X165203045Y-114326564D01*
G04 #@! TO.C,C12*
X144348816Y-119063568D02*
X144396435Y-119111187D01*
X144444054Y-119254044D01*
X144444054Y-119349282D01*
X144396435Y-119492139D01*
X144301197Y-119587377D01*
X144205959Y-119634996D01*
X144015483Y-119682615D01*
X143872626Y-119682615D01*
X143682150Y-119634996D01*
X143586912Y-119587377D01*
X143491674Y-119492139D01*
X143444054Y-119349282D01*
X143444054Y-119254044D01*
X143491674Y-119111187D01*
X143539293Y-119063568D01*
X144444054Y-118111187D02*
X144444054Y-118682615D01*
X144444054Y-118396901D02*
X143444054Y-118396901D01*
X143586912Y-118492139D01*
X143682150Y-118587377D01*
X143729769Y-118682615D01*
X143539293Y-117730234D02*
X143491674Y-117682615D01*
X143444054Y-117587377D01*
X143444054Y-117349282D01*
X143491674Y-117254044D01*
X143539293Y-117206425D01*
X143634531Y-117158806D01*
X143729769Y-117158806D01*
X143872626Y-117206425D01*
X144444054Y-117777853D01*
X144444054Y-117158806D01*
X144167732Y-121257094D02*
X144167732Y-122018999D01*
X144167732Y-114893133D02*
X144167732Y-115655038D01*
X143786780Y-115274086D02*
X144548684Y-115274086D01*
G04 #@! TO.C,C13*
X164882142Y-93582142D02*
X164834523Y-93629761D01*
X164691666Y-93677380D01*
X164596428Y-93677380D01*
X164453571Y-93629761D01*
X164358333Y-93534523D01*
X164310714Y-93439285D01*
X164263095Y-93248809D01*
X164263095Y-93105952D01*
X164310714Y-92915476D01*
X164358333Y-92820238D01*
X164453571Y-92725000D01*
X164596428Y-92677380D01*
X164691666Y-92677380D01*
X164834523Y-92725000D01*
X164882142Y-92772619D01*
X165834523Y-93677380D02*
X165263095Y-93677380D01*
X165548809Y-93677380D02*
X165548809Y-92677380D01*
X165453571Y-92820238D01*
X165358333Y-92915476D01*
X165263095Y-92963095D01*
X166167857Y-92677380D02*
X166786904Y-92677380D01*
X166453571Y-93058333D01*
X166596428Y-93058333D01*
X166691666Y-93105952D01*
X166739285Y-93153571D01*
X166786904Y-93248809D01*
X166786904Y-93486904D01*
X166739285Y-93582142D01*
X166691666Y-93629761D01*
X166596428Y-93677380D01*
X166310714Y-93677380D01*
X166215476Y-93629761D01*
X166167857Y-93582142D01*
G04 #@! TO.C,C14*
X153172969Y-113682106D02*
X153172969Y-113749450D01*
X153105625Y-113884137D01*
X153038282Y-113951480D01*
X152903595Y-114018824D01*
X152768908Y-114018824D01*
X152667893Y-113985152D01*
X152499534Y-113884137D01*
X152398519Y-113783122D01*
X152297503Y-113614763D01*
X152263832Y-113513748D01*
X152263832Y-113379061D01*
X152331175Y-113244374D01*
X152398519Y-113177030D01*
X152533206Y-113109687D01*
X152600549Y-113109687D01*
X153913748Y-113076015D02*
X153509687Y-113480076D01*
X153711717Y-113278045D02*
X153004610Y-112570938D01*
X153038282Y-112739297D01*
X153038282Y-112873984D01*
X153004610Y-112975000D01*
X154048435Y-111998519D02*
X154519839Y-112469923D01*
X153610702Y-111897503D02*
X153947419Y-112570938D01*
X154385152Y-112133206D01*
G04 #@! TO.C,C15*
X133557142Y-132082142D02*
X133509523Y-132129761D01*
X133366666Y-132177380D01*
X133271428Y-132177380D01*
X133128571Y-132129761D01*
X133033333Y-132034523D01*
X132985714Y-131939285D01*
X132938095Y-131748809D01*
X132938095Y-131605952D01*
X132985714Y-131415476D01*
X133033333Y-131320238D01*
X133128571Y-131225000D01*
X133271428Y-131177380D01*
X133366666Y-131177380D01*
X133509523Y-131225000D01*
X133557142Y-131272619D01*
X134509523Y-132177380D02*
X133938095Y-132177380D01*
X134223809Y-132177380D02*
X134223809Y-131177380D01*
X134128571Y-131320238D01*
X134033333Y-131415476D01*
X133938095Y-131463095D01*
X135414285Y-131177380D02*
X134938095Y-131177380D01*
X134890476Y-131653571D01*
X134938095Y-131605952D01*
X135033333Y-131558333D01*
X135271428Y-131558333D01*
X135366666Y-131605952D01*
X135414285Y-131653571D01*
X135461904Y-131748809D01*
X135461904Y-131986904D01*
X135414285Y-132082142D01*
X135366666Y-132129761D01*
X135271428Y-132177380D01*
X135033333Y-132177380D01*
X134938095Y-132129761D01*
X134890476Y-132082142D01*
G04 #@! TO.C,D1*
X150211904Y-130302380D02*
X150211904Y-129302380D01*
X150450000Y-129302380D01*
X150592857Y-129350000D01*
X150688095Y-129445238D01*
X150735714Y-129540476D01*
X150783333Y-129730952D01*
X150783333Y-129873809D01*
X150735714Y-130064285D01*
X150688095Y-130159523D01*
X150592857Y-130254761D01*
X150450000Y-130302380D01*
X150211904Y-130302380D01*
X151735714Y-130302380D02*
X151164285Y-130302380D01*
X151450000Y-130302380D02*
X151450000Y-129302380D01*
X151354761Y-129445238D01*
X151259523Y-129540476D01*
X151164285Y-129588095D01*
G04 #@! TO.C,J1*
X152466666Y-77702380D02*
X152466666Y-78416666D01*
X152419047Y-78559523D01*
X152323809Y-78654761D01*
X152180952Y-78702380D01*
X152085714Y-78702380D01*
X153466666Y-78702380D02*
X152895238Y-78702380D01*
X153180952Y-78702380D02*
X153180952Y-77702380D01*
X153085714Y-77845238D01*
X152990476Y-77940476D01*
X152895238Y-77988095D01*
G04 #@! TO.C,J2*
X128066666Y-134852380D02*
X128066666Y-135566666D01*
X128019047Y-135709523D01*
X127923809Y-135804761D01*
X127780952Y-135852380D01*
X127685714Y-135852380D01*
X128495238Y-134947619D02*
X128542857Y-134900000D01*
X128638095Y-134852380D01*
X128876190Y-134852380D01*
X128971428Y-134900000D01*
X129019047Y-134947619D01*
X129066666Y-135042857D01*
X129066666Y-135138095D01*
X129019047Y-135280952D01*
X128447619Y-135852380D01*
X129066666Y-135852380D01*
G04 #@! TO.C,J3*
X124566666Y-80152380D02*
X124566666Y-80866666D01*
X124519047Y-81009523D01*
X124423809Y-81104761D01*
X124280952Y-81152380D01*
X124185714Y-81152380D01*
X124947619Y-80152380D02*
X125566666Y-80152380D01*
X125233333Y-80533333D01*
X125376190Y-80533333D01*
X125471428Y-80580952D01*
X125519047Y-80628571D01*
X125566666Y-80723809D01*
X125566666Y-80961904D01*
X125519047Y-81057142D01*
X125471428Y-81104761D01*
X125376190Y-81152380D01*
X125090476Y-81152380D01*
X124995238Y-81104761D01*
X124947619Y-81057142D01*
G04 #@! TO.C,J4*
X131366666Y-91452380D02*
X131366666Y-92166666D01*
X131319047Y-92309523D01*
X131223809Y-92404761D01*
X131080952Y-92452380D01*
X130985714Y-92452380D01*
X132271428Y-91785714D02*
X132271428Y-92452380D01*
X132033333Y-91404761D02*
X131795238Y-92119047D01*
X132414285Y-92119047D01*
G04 #@! TO.C,J5*
X131066666Y-105802380D02*
X131066666Y-106516666D01*
X131019047Y-106659523D01*
X130923809Y-106754761D01*
X130780952Y-106802380D01*
X130685714Y-106802380D01*
X132019047Y-105802380D02*
X131542857Y-105802380D01*
X131495238Y-106278571D01*
X131542857Y-106230952D01*
X131638095Y-106183333D01*
X131876190Y-106183333D01*
X131971428Y-106230952D01*
X132019047Y-106278571D01*
X132066666Y-106373809D01*
X132066666Y-106611904D01*
X132019047Y-106707142D01*
X131971428Y-106754761D01*
X131876190Y-106802380D01*
X131638095Y-106802380D01*
X131542857Y-106754761D01*
X131495238Y-106707142D01*
G04 #@! TO.C,L1*
X146183333Y-131052380D02*
X145707142Y-131052380D01*
X145707142Y-130052380D01*
X147040476Y-131052380D02*
X146469047Y-131052380D01*
X146754761Y-131052380D02*
X146754761Y-130052380D01*
X146659523Y-130195238D01*
X146564285Y-130290476D01*
X146469047Y-130338095D01*
G04 #@! TO.C,M1*
X203352380Y-107209523D02*
X202352380Y-107209523D01*
X203066666Y-106876190D01*
X202352380Y-106542857D01*
X203352380Y-106542857D01*
X203352380Y-105542857D02*
X203352380Y-106114285D01*
X203352380Y-105828571D02*
X202352380Y-105828571D01*
X202495238Y-105923809D01*
X202590476Y-106019047D01*
X202638095Y-106114285D01*
G04 #@! TO.C,R1*
X159133333Y-94927380D02*
X158800000Y-94451190D01*
X158561904Y-94927380D02*
X158561904Y-93927380D01*
X158942857Y-93927380D01*
X159038095Y-93975000D01*
X159085714Y-94022619D01*
X159133333Y-94117857D01*
X159133333Y-94260714D01*
X159085714Y-94355952D01*
X159038095Y-94403571D01*
X158942857Y-94451190D01*
X158561904Y-94451190D01*
X160085714Y-94927380D02*
X159514285Y-94927380D01*
X159800000Y-94927380D02*
X159800000Y-93927380D01*
X159704761Y-94070238D01*
X159609523Y-94165476D01*
X159514285Y-94213095D01*
G04 #@! TO.C,R2*
X135583333Y-109152380D02*
X135250000Y-108676190D01*
X135011904Y-109152380D02*
X135011904Y-108152380D01*
X135392857Y-108152380D01*
X135488095Y-108200000D01*
X135535714Y-108247619D01*
X135583333Y-108342857D01*
X135583333Y-108485714D01*
X135535714Y-108580952D01*
X135488095Y-108628571D01*
X135392857Y-108676190D01*
X135011904Y-108676190D01*
X135964285Y-108247619D02*
X136011904Y-108200000D01*
X136107142Y-108152380D01*
X136345238Y-108152380D01*
X136440476Y-108200000D01*
X136488095Y-108247619D01*
X136535714Y-108342857D01*
X136535714Y-108438095D01*
X136488095Y-108580952D01*
X135916666Y-109152380D01*
X136535714Y-109152380D01*
G04 #@! TO.C,R3*
X137033333Y-88852380D02*
X136700000Y-88376190D01*
X136461904Y-88852380D02*
X136461904Y-87852380D01*
X136842857Y-87852380D01*
X136938095Y-87900000D01*
X136985714Y-87947619D01*
X137033333Y-88042857D01*
X137033333Y-88185714D01*
X136985714Y-88280952D01*
X136938095Y-88328571D01*
X136842857Y-88376190D01*
X136461904Y-88376190D01*
X137366666Y-87852380D02*
X137985714Y-87852380D01*
X137652380Y-88233333D01*
X137795238Y-88233333D01*
X137890476Y-88280952D01*
X137938095Y-88328571D01*
X137985714Y-88423809D01*
X137985714Y-88661904D01*
X137938095Y-88757142D01*
X137890476Y-88804761D01*
X137795238Y-88852380D01*
X137509523Y-88852380D01*
X137414285Y-88804761D01*
X137366666Y-88757142D01*
G04 #@! TO.C,R4*
X137033333Y-86252380D02*
X136700000Y-85776190D01*
X136461904Y-86252380D02*
X136461904Y-85252380D01*
X136842857Y-85252380D01*
X136938095Y-85300000D01*
X136985714Y-85347619D01*
X137033333Y-85442857D01*
X137033333Y-85585714D01*
X136985714Y-85680952D01*
X136938095Y-85728571D01*
X136842857Y-85776190D01*
X136461904Y-85776190D01*
X137890476Y-85585714D02*
X137890476Y-86252380D01*
X137652380Y-85204761D02*
X137414285Y-85919047D01*
X138033333Y-85919047D01*
G04 #@! TO.C,R5*
X137033333Y-83552380D02*
X136700000Y-83076190D01*
X136461904Y-83552380D02*
X136461904Y-82552380D01*
X136842857Y-82552380D01*
X136938095Y-82600000D01*
X136985714Y-82647619D01*
X137033333Y-82742857D01*
X137033333Y-82885714D01*
X136985714Y-82980952D01*
X136938095Y-83028571D01*
X136842857Y-83076190D01*
X136461904Y-83076190D01*
X137938095Y-82552380D02*
X137461904Y-82552380D01*
X137414285Y-83028571D01*
X137461904Y-82980952D01*
X137557142Y-82933333D01*
X137795238Y-82933333D01*
X137890476Y-82980952D01*
X137938095Y-83028571D01*
X137985714Y-83123809D01*
X137985714Y-83361904D01*
X137938095Y-83457142D01*
X137890476Y-83504761D01*
X137795238Y-83552380D01*
X137557142Y-83552380D01*
X137461904Y-83504761D01*
X137414285Y-83457142D01*
G04 #@! TO.C,R6*
X136483333Y-97052380D02*
X136150000Y-96576190D01*
X135911904Y-97052380D02*
X135911904Y-96052380D01*
X136292857Y-96052380D01*
X136388095Y-96100000D01*
X136435714Y-96147619D01*
X136483333Y-96242857D01*
X136483333Y-96385714D01*
X136435714Y-96480952D01*
X136388095Y-96528571D01*
X136292857Y-96576190D01*
X135911904Y-96576190D01*
X137340476Y-96052380D02*
X137150000Y-96052380D01*
X137054761Y-96100000D01*
X137007142Y-96147619D01*
X136911904Y-96290476D01*
X136864285Y-96480952D01*
X136864285Y-96861904D01*
X136911904Y-96957142D01*
X136959523Y-97004761D01*
X137054761Y-97052380D01*
X137245238Y-97052380D01*
X137340476Y-97004761D01*
X137388095Y-96957142D01*
X137435714Y-96861904D01*
X137435714Y-96623809D01*
X137388095Y-96528571D01*
X137340476Y-96480952D01*
X137245238Y-96433333D01*
X137054761Y-96433333D01*
X136959523Y-96480952D01*
X136911904Y-96528571D01*
X136864285Y-96623809D01*
G04 #@! TO.C,R7*
X136483333Y-94452380D02*
X136150000Y-93976190D01*
X135911904Y-94452380D02*
X135911904Y-93452380D01*
X136292857Y-93452380D01*
X136388095Y-93500000D01*
X136435714Y-93547619D01*
X136483333Y-93642857D01*
X136483333Y-93785714D01*
X136435714Y-93880952D01*
X136388095Y-93928571D01*
X136292857Y-93976190D01*
X135911904Y-93976190D01*
X136816666Y-93452380D02*
X137483333Y-93452380D01*
X137054761Y-94452380D01*
G04 #@! TO.C,R8*
X135783333Y-116052380D02*
X135450000Y-115576190D01*
X135211904Y-116052380D02*
X135211904Y-115052380D01*
X135592857Y-115052380D01*
X135688095Y-115100000D01*
X135735714Y-115147619D01*
X135783333Y-115242857D01*
X135783333Y-115385714D01*
X135735714Y-115480952D01*
X135688095Y-115528571D01*
X135592857Y-115576190D01*
X135211904Y-115576190D01*
X136354761Y-115480952D02*
X136259523Y-115433333D01*
X136211904Y-115385714D01*
X136164285Y-115290476D01*
X136164285Y-115242857D01*
X136211904Y-115147619D01*
X136259523Y-115100000D01*
X136354761Y-115052380D01*
X136545238Y-115052380D01*
X136640476Y-115100000D01*
X136688095Y-115147619D01*
X136735714Y-115242857D01*
X136735714Y-115290476D01*
X136688095Y-115385714D01*
X136640476Y-115433333D01*
X136545238Y-115480952D01*
X136354761Y-115480952D01*
X136259523Y-115528571D01*
X136211904Y-115576190D01*
X136164285Y-115671428D01*
X136164285Y-115861904D01*
X136211904Y-115957142D01*
X136259523Y-116004761D01*
X136354761Y-116052380D01*
X136545238Y-116052380D01*
X136640476Y-116004761D01*
X136688095Y-115957142D01*
X136735714Y-115861904D01*
X136735714Y-115671428D01*
X136688095Y-115576190D01*
X136640476Y-115528571D01*
X136545238Y-115480952D01*
G04 #@! TO.C,R9*
X136483333Y-104002380D02*
X136150000Y-103526190D01*
X135911904Y-104002380D02*
X135911904Y-103002380D01*
X136292857Y-103002380D01*
X136388095Y-103050000D01*
X136435714Y-103097619D01*
X136483333Y-103192857D01*
X136483333Y-103335714D01*
X136435714Y-103430952D01*
X136388095Y-103478571D01*
X136292857Y-103526190D01*
X135911904Y-103526190D01*
X136959523Y-104002380D02*
X137150000Y-104002380D01*
X137245238Y-103954761D01*
X137292857Y-103907142D01*
X137388095Y-103764285D01*
X137435714Y-103573809D01*
X137435714Y-103192857D01*
X137388095Y-103097619D01*
X137340476Y-103050000D01*
X137245238Y-103002380D01*
X137054761Y-103002380D01*
X136959523Y-103050000D01*
X136911904Y-103097619D01*
X136864285Y-103192857D01*
X136864285Y-103430952D01*
X136911904Y-103526190D01*
X136959523Y-103573809D01*
X137054761Y-103621428D01*
X137245238Y-103621428D01*
X137340476Y-103573809D01*
X137388095Y-103526190D01*
X137435714Y-103430952D01*
G04 #@! TO.C,R10*
X136507142Y-100852380D02*
X136173809Y-100376190D01*
X135935714Y-100852380D02*
X135935714Y-99852380D01*
X136316666Y-99852380D01*
X136411904Y-99900000D01*
X136459523Y-99947619D01*
X136507142Y-100042857D01*
X136507142Y-100185714D01*
X136459523Y-100280952D01*
X136411904Y-100328571D01*
X136316666Y-100376190D01*
X135935714Y-100376190D01*
X137459523Y-100852380D02*
X136888095Y-100852380D01*
X137173809Y-100852380D02*
X137173809Y-99852380D01*
X137078571Y-99995238D01*
X136983333Y-100090476D01*
X136888095Y-100138095D01*
X138078571Y-99852380D02*
X138173809Y-99852380D01*
X138269047Y-99900000D01*
X138316666Y-99947619D01*
X138364285Y-100042857D01*
X138411904Y-100233333D01*
X138411904Y-100471428D01*
X138364285Y-100661904D01*
X138316666Y-100757142D01*
X138269047Y-100804761D01*
X138173809Y-100852380D01*
X138078571Y-100852380D01*
X137983333Y-100804761D01*
X137935714Y-100757142D01*
X137888095Y-100661904D01*
X137840476Y-100471428D01*
X137840476Y-100233333D01*
X137888095Y-100042857D01*
X137935714Y-99947619D01*
X137983333Y-99900000D01*
X138078571Y-99852380D01*
G04 #@! TO.C,R11*
X151007142Y-89652380D02*
X150673809Y-89176190D01*
X150435714Y-89652380D02*
X150435714Y-88652380D01*
X150816666Y-88652380D01*
X150911904Y-88700000D01*
X150959523Y-88747619D01*
X151007142Y-88842857D01*
X151007142Y-88985714D01*
X150959523Y-89080952D01*
X150911904Y-89128571D01*
X150816666Y-89176190D01*
X150435714Y-89176190D01*
X151959523Y-89652380D02*
X151388095Y-89652380D01*
X151673809Y-89652380D02*
X151673809Y-88652380D01*
X151578571Y-88795238D01*
X151483333Y-88890476D01*
X151388095Y-88938095D01*
X152911904Y-89652380D02*
X152340476Y-89652380D01*
X152626190Y-89652380D02*
X152626190Y-88652380D01*
X152530952Y-88795238D01*
X152435714Y-88890476D01*
X152340476Y-88938095D01*
G04 #@! TO.C,R12*
X135757142Y-123452380D02*
X135423809Y-122976190D01*
X135185714Y-123452380D02*
X135185714Y-122452380D01*
X135566666Y-122452380D01*
X135661904Y-122500000D01*
X135709523Y-122547619D01*
X135757142Y-122642857D01*
X135757142Y-122785714D01*
X135709523Y-122880952D01*
X135661904Y-122928571D01*
X135566666Y-122976190D01*
X135185714Y-122976190D01*
X136709523Y-123452380D02*
X136138095Y-123452380D01*
X136423809Y-123452380D02*
X136423809Y-122452380D01*
X136328571Y-122595238D01*
X136233333Y-122690476D01*
X136138095Y-122738095D01*
X137090476Y-122547619D02*
X137138095Y-122500000D01*
X137233333Y-122452380D01*
X137471428Y-122452380D01*
X137566666Y-122500000D01*
X137614285Y-122547619D01*
X137661904Y-122642857D01*
X137661904Y-122738095D01*
X137614285Y-122880952D01*
X137042857Y-123452380D01*
X137661904Y-123452380D01*
G04 #@! TO.C,R13*
X147257142Y-89652380D02*
X146923809Y-89176190D01*
X146685714Y-89652380D02*
X146685714Y-88652380D01*
X147066666Y-88652380D01*
X147161904Y-88700000D01*
X147209523Y-88747619D01*
X147257142Y-88842857D01*
X147257142Y-88985714D01*
X147209523Y-89080952D01*
X147161904Y-89128571D01*
X147066666Y-89176190D01*
X146685714Y-89176190D01*
X148209523Y-89652380D02*
X147638095Y-89652380D01*
X147923809Y-89652380D02*
X147923809Y-88652380D01*
X147828571Y-88795238D01*
X147733333Y-88890476D01*
X147638095Y-88938095D01*
X148542857Y-88652380D02*
X149161904Y-88652380D01*
X148828571Y-89033333D01*
X148971428Y-89033333D01*
X149066666Y-89080952D01*
X149114285Y-89128571D01*
X149161904Y-89223809D01*
X149161904Y-89461904D01*
X149114285Y-89557142D01*
X149066666Y-89604761D01*
X148971428Y-89652380D01*
X148685714Y-89652380D01*
X148590476Y-89604761D01*
X148542857Y-89557142D01*
G04 #@! TO.C,R14*
X162957142Y-123252380D02*
X162623809Y-122776190D01*
X162385714Y-123252380D02*
X162385714Y-122252380D01*
X162766666Y-122252380D01*
X162861904Y-122300000D01*
X162909523Y-122347619D01*
X162957142Y-122442857D01*
X162957142Y-122585714D01*
X162909523Y-122680952D01*
X162861904Y-122728571D01*
X162766666Y-122776190D01*
X162385714Y-122776190D01*
X163909523Y-123252380D02*
X163338095Y-123252380D01*
X163623809Y-123252380D02*
X163623809Y-122252380D01*
X163528571Y-122395238D01*
X163433333Y-122490476D01*
X163338095Y-122538095D01*
X164766666Y-122585714D02*
X164766666Y-123252380D01*
X164528571Y-122204761D02*
X164290476Y-122919047D01*
X164909523Y-122919047D01*
G04 #@! TO.C,R15*
X154707142Y-124302380D02*
X154373809Y-123826190D01*
X154135714Y-124302380D02*
X154135714Y-123302380D01*
X154516666Y-123302380D01*
X154611904Y-123350000D01*
X154659523Y-123397619D01*
X154707142Y-123492857D01*
X154707142Y-123635714D01*
X154659523Y-123730952D01*
X154611904Y-123778571D01*
X154516666Y-123826190D01*
X154135714Y-123826190D01*
X155659523Y-124302380D02*
X155088095Y-124302380D01*
X155373809Y-124302380D02*
X155373809Y-123302380D01*
X155278571Y-123445238D01*
X155183333Y-123540476D01*
X155088095Y-123588095D01*
X156564285Y-123302380D02*
X156088095Y-123302380D01*
X156040476Y-123778571D01*
X156088095Y-123730952D01*
X156183333Y-123683333D01*
X156421428Y-123683333D01*
X156516666Y-123730952D01*
X156564285Y-123778571D01*
X156611904Y-123873809D01*
X156611904Y-124111904D01*
X156564285Y-124207142D01*
X156516666Y-124254761D01*
X156421428Y-124302380D01*
X156183333Y-124302380D01*
X156088095Y-124254761D01*
X156040476Y-124207142D01*
G04 #@! TO.C,R16*
X161657142Y-125052380D02*
X161323809Y-124576190D01*
X161085714Y-125052380D02*
X161085714Y-124052380D01*
X161466666Y-124052380D01*
X161561904Y-124100000D01*
X161609523Y-124147619D01*
X161657142Y-124242857D01*
X161657142Y-124385714D01*
X161609523Y-124480952D01*
X161561904Y-124528571D01*
X161466666Y-124576190D01*
X161085714Y-124576190D01*
X162609523Y-125052380D02*
X162038095Y-125052380D01*
X162323809Y-125052380D02*
X162323809Y-124052380D01*
X162228571Y-124195238D01*
X162133333Y-124290476D01*
X162038095Y-124338095D01*
X163466666Y-124052380D02*
X163276190Y-124052380D01*
X163180952Y-124100000D01*
X163133333Y-124147619D01*
X163038095Y-124290476D01*
X162990476Y-124480952D01*
X162990476Y-124861904D01*
X163038095Y-124957142D01*
X163085714Y-125004761D01*
X163180952Y-125052380D01*
X163371428Y-125052380D01*
X163466666Y-125004761D01*
X163514285Y-124957142D01*
X163561904Y-124861904D01*
X163561904Y-124623809D01*
X163514285Y-124528571D01*
X163466666Y-124480952D01*
X163371428Y-124433333D01*
X163180952Y-124433333D01*
X163085714Y-124480952D01*
X163038095Y-124528571D01*
X162990476Y-124623809D01*
G04 #@! TO.C,U1*
X191638095Y-102652380D02*
X191638095Y-103461904D01*
X191685714Y-103557142D01*
X191733333Y-103604761D01*
X191828571Y-103652380D01*
X192019047Y-103652380D01*
X192114285Y-103604761D01*
X192161904Y-103557142D01*
X192209523Y-103461904D01*
X192209523Y-102652380D01*
X193209523Y-103652380D02*
X192638095Y-103652380D01*
X192923809Y-103652380D02*
X192923809Y-102652380D01*
X192828571Y-102795238D01*
X192733333Y-102890476D01*
X192638095Y-102938095D01*
G04 #@! TO.C,U2*
X160013095Y-100427380D02*
X160013095Y-101236904D01*
X160060714Y-101332142D01*
X160108333Y-101379761D01*
X160203571Y-101427380D01*
X160394047Y-101427380D01*
X160489285Y-101379761D01*
X160536904Y-101332142D01*
X160584523Y-101236904D01*
X160584523Y-100427380D01*
X161013095Y-100522619D02*
X161060714Y-100475000D01*
X161155952Y-100427380D01*
X161394047Y-100427380D01*
X161489285Y-100475000D01*
X161536904Y-100522619D01*
X161584523Y-100617857D01*
X161584523Y-100713095D01*
X161536904Y-100855952D01*
X160965476Y-101427380D01*
X161584523Y-101427380D01*
G04 #@! TO.C,U3*
X170738095Y-136452380D02*
X170738095Y-137261904D01*
X170785714Y-137357142D01*
X170833333Y-137404761D01*
X170928571Y-137452380D01*
X171119047Y-137452380D01*
X171214285Y-137404761D01*
X171261904Y-137357142D01*
X171309523Y-137261904D01*
X171309523Y-136452380D01*
X171690476Y-136452380D02*
X172309523Y-136452380D01*
X171976190Y-136833333D01*
X172119047Y-136833333D01*
X172214285Y-136880952D01*
X172261904Y-136928571D01*
X172309523Y-137023809D01*
X172309523Y-137261904D01*
X172261904Y-137357142D01*
X172214285Y-137404761D01*
X172119047Y-137452380D01*
X171833333Y-137452380D01*
X171738095Y-137404761D01*
X171690476Y-137357142D01*
G04 #@! TO.C,U5*
X170738095Y-115652380D02*
X170738095Y-116461904D01*
X170785714Y-116557142D01*
X170833333Y-116604761D01*
X170928571Y-116652380D01*
X171119047Y-116652380D01*
X171214285Y-116604761D01*
X171261904Y-116557142D01*
X171309523Y-116461904D01*
X171309523Y-115652380D01*
X172261904Y-115652380D02*
X171785714Y-115652380D01*
X171738095Y-116128571D01*
X171785714Y-116080952D01*
X171880952Y-116033333D01*
X172119047Y-116033333D01*
X172214285Y-116080952D01*
X172261904Y-116128571D01*
X172309523Y-116223809D01*
X172309523Y-116461904D01*
X172261904Y-116557142D01*
X172214285Y-116604761D01*
X172119047Y-116652380D01*
X171880952Y-116652380D01*
X171785714Y-116604761D01*
X171738095Y-116557142D01*
G04 #@! TO.C,U7*
X170738095Y-97252380D02*
X170738095Y-98061904D01*
X170785714Y-98157142D01*
X170833333Y-98204761D01*
X170928571Y-98252380D01*
X171119047Y-98252380D01*
X171214285Y-98204761D01*
X171261904Y-98157142D01*
X171309523Y-98061904D01*
X171309523Y-97252380D01*
X171690476Y-97252380D02*
X172357142Y-97252380D01*
X171928571Y-98252380D01*
G04 #@! TO.C,U9*
X128438095Y-117752380D02*
X128438095Y-118561904D01*
X128485714Y-118657142D01*
X128533333Y-118704761D01*
X128628571Y-118752380D01*
X128819047Y-118752380D01*
X128914285Y-118704761D01*
X128961904Y-118657142D01*
X129009523Y-118561904D01*
X129009523Y-117752380D01*
X129533333Y-118752380D02*
X129723809Y-118752380D01*
X129819047Y-118704761D01*
X129866666Y-118657142D01*
X129961904Y-118514285D01*
X130009523Y-118323809D01*
X130009523Y-117942857D01*
X129961904Y-117847619D01*
X129914285Y-117800000D01*
X129819047Y-117752380D01*
X129628571Y-117752380D01*
X129533333Y-117800000D01*
X129485714Y-117847619D01*
X129438095Y-117942857D01*
X129438095Y-118180952D01*
X129485714Y-118276190D01*
X129533333Y-118323809D01*
X129628571Y-118371428D01*
X129819047Y-118371428D01*
X129914285Y-118323809D01*
X129961904Y-118276190D01*
X130009523Y-118180952D01*
G04 #@! TD*
M02*
